<?xml version="1.0" encoding="utf-8" standalone="no"?>
<!DOCTYPE svg PUBLIC "-//W3C//DTD SVG 1.1//EN"
  "http://www.w3.org/Graphics/SVG/1.1/DTD/svg11.dtd">
<svg xmlns:xlink="http://www.w3.org/1999/xlink" width="483.429pt" height="264.6865pt" viewBox="0 0 483.429 264.6865" xmlns="http://www.w3.org/2000/svg" version="1.1">
 <metadata>
  <rdf:RDF xmlns:dc="http://purl.org/dc/elements/1.1/" xmlns:cc="http://creativecommons.org/ns#" xmlns:rdf="http://www.w3.org/1999/02/22-rdf-syntax-ns#">
   <cc:Work>
    <dc:type rdf:resource="http://purl.org/dc/dcmitype/StillImage"/>
    <dc:date>2023-08-25T12:28:31.285766</dc:date>
    <dc:format>image/svg+xml</dc:format>
    <dc:creator>
     <cc:Agent>
      <dc:title>Matplotlib v3.6.3, https://matplotlib.org/</dc:title>
     </cc:Agent>
    </dc:creator>
   </cc:Work>
  </rdf:RDF>
 </metadata>
 <defs>
  <style type="text/css">*{stroke-linejoin: round; stroke-linecap: butt}</style>
 </defs>
 <g id="figure_1">
  <g id="patch_1">
   <path d="M 0 264.6865 
L 483.429 264.6865 
L 483.429 0 
L 0 0 
z
" style="fill: #ffffff"/>
  </g>
  <g id="axes_1">
   <g id="patch_2">
    <path d="M 65.7525 185.9385 
L 219.969012 185.9385 
L 219.969012 20.4945 
L 65.7525 20.4945 
z
" style="fill: #ffffff"/>
   </g>
   <g id="matplotlib.axis_1">
    <g id="xtick_1">
     <g id="line2d_1">
      <path d="M 72.762341 185.9385 
L 72.762341 20.4945 
" clip-path="url(#p998b3c31fa)" style="fill: none; stroke: #cccccc; stroke-width: 0.8; stroke-linecap: round"/>
     </g>
     <g id="text_1">
      <!-- (0, 100] -->
      <g style="fill: #262626" transform="translate(55.334216 200.925125) scale(0.088 -0.088)">
       <defs>
        <path id="DejaVuSerif-28" d="M 2041 -997 
Q 1281 -656 893 83 
Q 506 822 506 1931 
Q 506 3044 893 3783 
Q 1281 4522 2041 4863 
L 2041 4556 
Q 1559 4225 1350 3623 
Q 1141 3022 1141 1931 
Q 1141 844 1350 242 
Q 1559 -359 2041 -691 
L 2041 -997 
z
" transform="scale(0.015625)"/>
        <path id="DejaVuSerif-30" d="M 2034 219 
Q 2513 219 2750 744 
Q 2988 1269 2988 2328 
Q 2988 3391 2750 3916 
Q 2513 4441 2034 4441 
Q 1556 4441 1318 3916 
Q 1081 3391 1081 2328 
Q 1081 1269 1318 744 
Q 1556 219 2034 219 
z
M 2034 -91 
Q 1275 -91 848 546 
Q 422 1184 422 2328 
Q 422 3475 848 4112 
Q 1275 4750 2034 4750 
Q 2797 4750 3222 4112 
Q 3647 3475 3647 2328 
Q 3647 1184 3222 546 
Q 2797 -91 2034 -91 
z
" transform="scale(0.015625)"/>
        <path id="DejaVuSerif-2c" d="M 231 -622 
Q 525 -406 662 -114 
Q 800 178 800 594 
L 800 709 
L 1416 709 
Q 1391 175 1164 -208 
Q 938 -591 481 -872 
L 231 -622 
z
" transform="scale(0.015625)"/>
        <path id="DejaVuSerif-20" transform="scale(0.015625)"/>
        <path id="DejaVuSerif-31" d="M 909 0 
L 909 331 
L 1722 331 
L 1722 4213 
L 781 3603 
L 781 4013 
L 1919 4750 
L 2350 4750 
L 2350 331 
L 3163 331 
L 3163 0 
L 909 0 
z
" transform="scale(0.015625)"/>
        <path id="DejaVuSerif-5d" d="M 1947 4863 
L 1947 -844 
L 494 -844 
L 494 -513 
L 1350 -513 
L 1350 4531 
L 494 4531 
L 494 4863 
L 1947 4863 
z
" transform="scale(0.015625)"/>
       </defs>
       <use xlink:href="#DejaVuSerif-28"/>
       <use xlink:href="#DejaVuSerif-30" x="39.013672"/>
       <use xlink:href="#DejaVuSerif-2c" x="102.636719"/>
       <use xlink:href="#DejaVuSerif-20" x="134.423828"/>
       <use xlink:href="#DejaVuSerif-31" x="166.210938"/>
       <use xlink:href="#DejaVuSerif-30" x="229.833984"/>
       <use xlink:href="#DejaVuSerif-30" x="293.457031"/>
       <use xlink:href="#DejaVuSerif-5d" x="357.080078"/>
      </g>
     </g>
    </g>
    <g id="xtick_2">
     <g id="line2d_2">
      <path d="M 107.811549 185.9385 
L 107.811549 20.4945 
" clip-path="url(#p998b3c31fa)" style="fill: none; stroke: #cccccc; stroke-width: 0.8; stroke-linecap: round"/>
     </g>
    </g>
    <g id="xtick_3">
     <g id="line2d_3">
      <path d="M 142.860756 185.9385 
L 142.860756 20.4945 
" clip-path="url(#p998b3c31fa)" style="fill: none; stroke: #cccccc; stroke-width: 0.8; stroke-linecap: round"/>
     </g>
     <g id="text_2">
      <!-- (200, 300] -->
      <g style="fill: #262626" transform="translate(119.833631 200.925125) scale(0.088 -0.088)">
       <defs>
        <path id="DejaVuSerif-32" d="M 819 3553 
L 469 3553 
L 469 4384 
Q 803 4563 1142 4656 
Q 1481 4750 1806 4750 
Q 2534 4750 2956 4397 
Q 3378 4044 3378 3438 
Q 3378 2753 2422 1800 
Q 2347 1728 2309 1691 
L 1131 513 
L 3078 513 
L 3078 1088 
L 3444 1088 
L 3444 0 
L 434 0 
L 434 341 
L 1850 1753 
Q 2319 2222 2519 2614 
Q 2719 3006 2719 3438 
Q 2719 3909 2473 4175 
Q 2228 4441 1797 4441 
Q 1350 4441 1106 4219 
Q 863 3997 819 3553 
z
" transform="scale(0.015625)"/>
        <path id="DejaVuSerif-33" d="M 622 4469 
Q 988 4606 1323 4678 
Q 1659 4750 1953 4750 
Q 2638 4750 3022 4454 
Q 3406 4159 3406 3634 
Q 3406 3213 3140 2930 
Q 2875 2647 2388 2547 
Q 2963 2466 3280 2130 
Q 3597 1794 3597 1259 
Q 3597 606 3158 257 
Q 2719 -91 1894 -91 
Q 1528 -91 1179 -12 
Q 831 66 488 225 
L 488 1131 
L 838 1131 
Q 869 681 1141 450 
Q 1413 219 1906 219 
Q 2384 219 2661 495 
Q 2938 772 2938 1253 
Q 2938 1803 2653 2086 
Q 2369 2369 1819 2369 
L 1522 2369 
L 1522 2688 
L 1678 2688 
Q 2225 2688 2498 2914 
Q 2772 3141 2772 3597 
Q 2772 4006 2547 4223 
Q 2322 4441 1900 4441 
Q 1478 4441 1245 4241 
Q 1013 4041 972 3647 
L 622 3647 
L 622 4469 
z
" transform="scale(0.015625)"/>
       </defs>
       <use xlink:href="#DejaVuSerif-28"/>
       <use xlink:href="#DejaVuSerif-32" x="39.013672"/>
       <use xlink:href="#DejaVuSerif-30" x="102.636719"/>
       <use xlink:href="#DejaVuSerif-30" x="166.259766"/>
       <use xlink:href="#DejaVuSerif-2c" x="229.882812"/>
       <use xlink:href="#DejaVuSerif-20" x="261.669922"/>
       <use xlink:href="#DejaVuSerif-33" x="293.457031"/>
       <use xlink:href="#DejaVuSerif-30" x="357.080078"/>
       <use xlink:href="#DejaVuSerif-30" x="420.703125"/>
       <use xlink:href="#DejaVuSerif-5d" x="484.326172"/>
      </g>
     </g>
    </g>
    <g id="xtick_4">
     <g id="line2d_4">
      <path d="M 177.909964 185.9385 
L 177.909964 20.4945 
" clip-path="url(#p998b3c31fa)" style="fill: none; stroke: #cccccc; stroke-width: 0.8; stroke-linecap: round"/>
     </g>
    </g>
    <g id="xtick_5">
     <g id="line2d_5">
      <path d="M 212.959171 185.9385 
L 212.959171 20.4945 
" clip-path="url(#p998b3c31fa)" style="fill: none; stroke: #cccccc; stroke-width: 0.8; stroke-linecap: round"/>
     </g>
     <g id="text_3">
      <!-- (400, 500] -->
      <g style="fill: #262626" transform="translate(189.932046 200.925125) scale(0.088 -0.088)">
       <defs>
        <path id="DejaVuSerif-34" d="M 2234 1581 
L 2234 4063 
L 641 1581 
L 2234 1581 
z
M 3609 0 
L 1484 0 
L 1484 331 
L 2234 331 
L 2234 1247 
L 197 1247 
L 197 1588 
L 2241 4750 
L 2859 4750 
L 2859 1581 
L 3750 1581 
L 3750 1247 
L 2859 1247 
L 2859 331 
L 3609 331 
L 3609 0 
z
" transform="scale(0.015625)"/>
        <path id="DejaVuSerif-35" d="M 3219 4666 
L 3219 4153 
L 1081 4153 
L 1081 2816 
Q 1244 2928 1461 2984 
Q 1678 3041 1947 3041 
Q 2703 3041 3140 2622 
Q 3578 2203 3578 1478 
Q 3578 738 3136 323 
Q 2694 -91 1894 -91 
Q 1572 -91 1234 -12 
Q 897 66 544 225 
L 544 1131 
L 897 1131 
Q 925 688 1179 453 
Q 1434 219 1894 219 
Q 2388 219 2653 544 
Q 2919 869 2919 1478 
Q 2919 2084 2655 2407 
Q 2391 2731 1894 2731 
Q 1613 2731 1398 2631 
Q 1184 2531 1019 2322 
L 750 2322 
L 750 4666 
L 3219 4666 
z
" transform="scale(0.015625)"/>
       </defs>
       <use xlink:href="#DejaVuSerif-28"/>
       <use xlink:href="#DejaVuSerif-34" x="39.013672"/>
       <use xlink:href="#DejaVuSerif-30" x="102.636719"/>
       <use xlink:href="#DejaVuSerif-30" x="166.259766"/>
       <use xlink:href="#DejaVuSerif-2c" x="229.882812"/>
       <use xlink:href="#DejaVuSerif-20" x="261.669922"/>
       <use xlink:href="#DejaVuSerif-35" x="293.457031"/>
       <use xlink:href="#DejaVuSerif-30" x="357.080078"/>
       <use xlink:href="#DejaVuSerif-30" x="420.703125"/>
       <use xlink:href="#DejaVuSerif-5d" x="484.326172"/>
      </g>
     </g>
    </g>
    <g id="text_4">
     <!-- Number of activities -->
     <g style="fill: #262626" transform="translate(93.062256 214.04975) scale(0.096 -0.096)">
      <defs>
       <path id="DejaVuSerif-4e" d="M 313 0 
L 313 331 
L 941 331 
L 941 4331 
L 313 4331 
L 313 4666 
L 1509 4666 
L 4306 984 
L 4306 4331 
L 3681 4331 
L 3681 4666 
L 5319 4666 
L 5319 4331 
L 4691 4331 
L 4691 -91 
L 4313 -91 
L 1325 3841 
L 1325 331 
L 1953 331 
L 1953 0 
L 313 0 
z
" transform="scale(0.015625)"/>
       <path id="DejaVuSerif-75" d="M 2266 3322 
L 3341 3322 
L 3341 331 
L 3884 331 
L 3884 0 
L 2766 0 
L 2766 588 
Q 2606 256 2353 82 
Q 2100 -91 1766 -91 
Q 1213 -91 952 223 
Q 691 538 691 1209 
L 691 2988 
L 172 2988 
L 172 3322 
L 1269 3322 
L 1269 1388 
Q 1269 781 1417 556 
Q 1566 331 1947 331 
Q 2347 331 2556 625 
Q 2766 919 2766 1478 
L 2766 2988 
L 2266 2988 
L 2266 3322 
z
" transform="scale(0.015625)"/>
       <path id="DejaVuSerif-6d" d="M 3316 2675 
Q 3481 3041 3739 3227 
Q 3997 3413 4341 3413 
Q 4863 3413 5119 3089 
Q 5375 2766 5375 2113 
L 5375 331 
L 5894 331 
L 5894 0 
L 4300 0 
L 4300 331 
L 4800 331 
L 4800 2047 
Q 4800 2556 4650 2772 
Q 4500 2988 4153 2988 
Q 3769 2988 3567 2697 
Q 3366 2406 3366 1850 
L 3366 331 
L 3866 331 
L 3866 0 
L 2291 0 
L 2291 331 
L 2791 331 
L 2791 2069 
Q 2791 2566 2641 2777 
Q 2491 2988 2144 2988 
Q 1759 2988 1557 2697 
Q 1356 2406 1356 1850 
L 1356 331 
L 1856 331 
L 1856 0 
L 263 0 
L 263 331 
L 781 331 
L 781 2994 
L 231 2994 
L 231 3322 
L 1356 3322 
L 1356 2731 
Q 1516 3063 1762 3238 
Q 2009 3413 2322 3413 
Q 2709 3413 2968 3220 
Q 3228 3028 3316 2675 
z
" transform="scale(0.015625)"/>
       <path id="DejaVuSerif-62" d="M 738 331 
L 738 4531 
L 184 4531 
L 184 4863 
L 1313 4863 
L 1313 2803 
Q 1481 3116 1742 3264 
Q 2003 3413 2388 3413 
Q 3000 3413 3387 2928 
Q 3775 2444 3775 1663 
Q 3775 881 3387 395 
Q 3000 -91 2388 -91 
Q 2003 -91 1742 57 
Q 1481 206 1313 519 
L 1313 0 
L 184 0 
L 184 331 
L 738 331 
z
M 1313 1497 
Q 1313 897 1542 583 
Q 1772 269 2209 269 
Q 2650 269 2876 622 
Q 3103 975 3103 1663 
Q 3103 2353 2876 2703 
Q 2650 3053 2209 3053 
Q 1772 3053 1542 2737 
Q 1313 2422 1313 1825 
L 1313 1497 
z
" transform="scale(0.015625)"/>
       <path id="DejaVuSerif-65" d="M 3469 1600 
L 991 1600 
L 991 1575 
Q 991 903 1244 561 
Q 1497 219 1991 219 
Q 2369 219 2611 417 
Q 2853 616 2950 1006 
L 3413 1006 
Q 3275 459 2904 184 
Q 2534 -91 1931 -91 
Q 1203 -91 761 389 
Q 319 869 319 1663 
Q 319 2450 753 2931 
Q 1188 3413 1894 3413 
Q 2647 3413 3050 2948 
Q 3453 2484 3469 1600 
z
M 2791 1931 
Q 2772 2513 2545 2808 
Q 2319 3103 1894 3103 
Q 1497 3103 1269 2806 
Q 1041 2509 991 1931 
L 2791 1931 
z
" transform="scale(0.015625)"/>
       <path id="DejaVuSerif-72" d="M 3059 3328 
L 3059 2497 
L 2728 2497 
Q 2713 2744 2591 2866 
Q 2469 2988 2234 2988 
Q 1809 2988 1582 2694 
Q 1356 2400 1356 1850 
L 1356 331 
L 2022 331 
L 2022 0 
L 263 0 
L 263 331 
L 781 331 
L 781 2994 
L 231 2994 
L 231 3322 
L 1356 3322 
L 1356 2731 
Q 1525 3078 1790 3245 
Q 2056 3413 2438 3413 
Q 2578 3413 2733 3391 
Q 2888 3369 3059 3328 
z
" transform="scale(0.015625)"/>
       <path id="DejaVuSerif-6f" d="M 1925 219 
Q 2388 219 2623 584 
Q 2859 950 2859 1663 
Q 2859 2375 2623 2739 
Q 2388 3103 1925 3103 
Q 1463 3103 1227 2739 
Q 991 2375 991 1663 
Q 991 950 1228 584 
Q 1466 219 1925 219 
z
M 1925 -91 
Q 1200 -91 759 389 
Q 319 869 319 1663 
Q 319 2456 758 2934 
Q 1197 3413 1925 3413 
Q 2653 3413 3092 2934 
Q 3531 2456 3531 1663 
Q 3531 869 3092 389 
Q 2653 -91 1925 -91 
z
" transform="scale(0.015625)"/>
       <path id="DejaVuSerif-66" d="M 2753 4078 
L 2450 4078 
Q 2447 4313 2317 4434 
Q 2188 4556 1941 4556 
Q 1619 4556 1487 4379 
Q 1356 4203 1356 3750 
L 1356 3322 
L 2284 3322 
L 2284 2988 
L 1356 2988 
L 1356 331 
L 2094 331 
L 2094 0 
L 231 0 
L 231 331 
L 781 331 
L 781 2988 
L 231 2988 
L 231 3322 
L 781 3322 
L 781 3738 
Q 781 4294 1070 4578 
Q 1359 4863 1919 4863 
Q 2128 4863 2337 4825 
Q 2547 4788 2753 4709 
L 2753 4078 
z
" transform="scale(0.015625)"/>
       <path id="DejaVuSerif-61" d="M 2547 1044 
L 2547 1747 
L 1806 1747 
Q 1378 1747 1168 1562 
Q 959 1378 959 997 
Q 959 650 1171 447 
Q 1384 244 1747 244 
Q 2106 244 2326 466 
Q 2547 688 2547 1044 
z
M 3122 2075 
L 3122 331 
L 3634 331 
L 3634 0 
L 2547 0 
L 2547 359 
Q 2356 128 2106 18 
Q 1856 -91 1522 -91 
Q 969 -91 644 203 
Q 319 497 319 997 
Q 319 1513 691 1797 
Q 1063 2081 1741 2081 
L 2547 2081 
L 2547 2309 
Q 2547 2688 2317 2895 
Q 2088 3103 1672 3103 
Q 1328 3103 1125 2947 
Q 922 2791 872 2484 
L 575 2484 
L 575 3156 
Q 875 3284 1158 3348 
Q 1441 3413 1709 3413 
Q 2400 3413 2761 3070 
Q 3122 2728 3122 2075 
z
" transform="scale(0.015625)"/>
       <path id="DejaVuSerif-63" d="M 3291 997 
Q 3169 466 2822 187 
Q 2475 -91 1925 -91 
Q 1200 -91 759 389 
Q 319 869 319 1663 
Q 319 2459 759 2936 
Q 1200 3413 1925 3413 
Q 2241 3413 2553 3339 
Q 2866 3266 3181 3116 
L 3181 2266 
L 2847 2266 
Q 2781 2703 2561 2903 
Q 2341 3103 1931 3103 
Q 1466 3103 1228 2742 
Q 991 2381 991 1663 
Q 991 944 1227 581 
Q 1463 219 1931 219 
Q 2303 219 2525 412 
Q 2747 606 2828 997 
L 3291 997 
z
" transform="scale(0.015625)"/>
       <path id="DejaVuSerif-74" d="M 691 2988 
L 184 2988 
L 184 3322 
L 691 3322 
L 691 4353 
L 1269 4353 
L 1269 3322 
L 2350 3322 
L 2350 2988 
L 1269 2988 
L 1269 878 
Q 1269 456 1350 337 
Q 1431 219 1650 219 
Q 1875 219 1978 351 
Q 2081 484 2088 781 
L 2522 781 
Q 2497 328 2275 118 
Q 2053 -91 1600 -91 
Q 1103 -91 897 129 
Q 691 350 691 878 
L 691 2988 
z
" transform="scale(0.015625)"/>
       <path id="DejaVuSerif-69" d="M 622 4353 
Q 622 4497 726 4603 
Q 831 4709 978 4709 
Q 1122 4709 1226 4603 
Q 1331 4497 1331 4353 
Q 1331 4206 1228 4103 
Q 1125 4000 978 4000 
Q 831 4000 726 4103 
Q 622 4206 622 4353 
z
M 1356 331 
L 1900 331 
L 1900 0 
L 231 0 
L 231 331 
L 781 331 
L 781 2988 
L 231 2988 
L 231 3322 
L 1356 3322 
L 1356 331 
z
" transform="scale(0.015625)"/>
       <path id="DejaVuSerif-76" d="M 1581 0 
L 359 2988 
L -19 2988 
L -19 3322 
L 1509 3322 
L 1509 2988 
L 978 2988 
L 1913 703 
L 2847 2988 
L 2350 2988 
L 2350 3322 
L 3597 3322 
L 3597 2988 
L 3225 2988 
L 2003 0 
L 1581 0 
z
" transform="scale(0.015625)"/>
       <path id="DejaVuSerif-73" d="M 359 184 
L 359 959 
L 691 959 
Q 703 588 923 403 
Q 1144 219 1575 219 
Q 1963 219 2166 364 
Q 2369 509 2369 788 
Q 2369 1006 2220 1140 
Q 2072 1275 1594 1428 
L 1178 1569 
Q 750 1706 558 1912 
Q 366 2119 366 2438 
Q 366 2894 700 3153 
Q 1034 3413 1625 3413 
Q 1888 3413 2178 3344 
Q 2469 3275 2778 3144 
L 2778 2419 
L 2447 2419 
Q 2434 2741 2221 2922 
Q 2009 3103 1644 3103 
Q 1281 3103 1095 2975 
Q 909 2847 909 2591 
Q 909 2381 1050 2254 
Q 1191 2128 1613 1997 
L 2069 1856 
Q 2541 1709 2748 1489 
Q 2956 1269 2956 922 
Q 2956 450 2595 179 
Q 2234 -91 1600 -91 
Q 1278 -91 972 -22 
Q 666 47 359 184 
z
" transform="scale(0.015625)"/>
      </defs>
      <use xlink:href="#DejaVuSerif-4e"/>
      <use xlink:href="#DejaVuSerif-75" x="87.5"/>
      <use xlink:href="#DejaVuSerif-6d" x="151.904297"/>
      <use xlink:href="#DejaVuSerif-62" x="246.728516"/>
      <use xlink:href="#DejaVuSerif-65" x="310.742188"/>
      <use xlink:href="#DejaVuSerif-72" x="369.921875"/>
      <use xlink:href="#DejaVuSerif-20" x="417.724609"/>
      <use xlink:href="#DejaVuSerif-6f" x="449.511719"/>
      <use xlink:href="#DejaVuSerif-66" x="509.716797"/>
      <use xlink:href="#DejaVuSerif-20" x="546.728516"/>
      <use xlink:href="#DejaVuSerif-61" x="578.515625"/>
      <use xlink:href="#DejaVuSerif-63" x="638.134766"/>
      <use xlink:href="#DejaVuSerif-74" x="694.140625"/>
      <use xlink:href="#DejaVuSerif-69" x="734.326172"/>
      <use xlink:href="#DejaVuSerif-76" x="766.308594"/>
      <use xlink:href="#DejaVuSerif-69" x="822.802734"/>
      <use xlink:href="#DejaVuSerif-74" x="854.785156"/>
      <use xlink:href="#DejaVuSerif-69" x="894.970703"/>
      <use xlink:href="#DejaVuSerif-65" x="926.953125"/>
      <use xlink:href="#DejaVuSerif-73" x="986.132812"/>
     </g>
    </g>
   </g>
   <g id="matplotlib.axis_2">
    <g id="ytick_1">
     <g id="line2d_6">
      <path d="M 65.7525 178.418318 
L 219.969012 178.418318 
" clip-path="url(#p998b3c31fa)" style="fill: none; stroke: #cccccc; stroke-width: 0.8; stroke-linecap: round"/>
     </g>
     <g id="text_5">
      <!-- 0 -->
      <g style="fill: #262626" transform="translate(51.8535 181.761631) scale(0.088 -0.088)">
       <use xlink:href="#DejaVuSerif-30"/>
      </g>
     </g>
    </g>
    <g id="ytick_2">
     <g id="line2d_7">
      <path d="M 65.7525 152.782791 
L 219.969012 152.782791 
" clip-path="url(#p998b3c31fa)" style="fill: none; stroke: #cccccc; stroke-width: 0.8; stroke-linecap: round"/>
     </g>
     <g id="text_6">
      <!-- 1000 -->
      <g style="fill: #262626" transform="translate(35.0565 156.126104) scale(0.088 -0.088)">
       <use xlink:href="#DejaVuSerif-31"/>
       <use xlink:href="#DejaVuSerif-30" x="63.623047"/>
       <use xlink:href="#DejaVuSerif-30" x="127.246094"/>
       <use xlink:href="#DejaVuSerif-30" x="190.869141"/>
      </g>
     </g>
    </g>
    <g id="ytick_3">
     <g id="line2d_8">
      <path d="M 65.7525 127.147264 
L 219.969012 127.147264 
" clip-path="url(#p998b3c31fa)" style="fill: none; stroke: #cccccc; stroke-width: 0.8; stroke-linecap: round"/>
     </g>
     <g id="text_7">
      <!-- 2000 -->
      <g style="fill: #262626" transform="translate(35.0565 130.490577) scale(0.088 -0.088)">
       <use xlink:href="#DejaVuSerif-32"/>
       <use xlink:href="#DejaVuSerif-30" x="63.623047"/>
       <use xlink:href="#DejaVuSerif-30" x="127.246094"/>
       <use xlink:href="#DejaVuSerif-30" x="190.869141"/>
      </g>
     </g>
    </g>
    <g id="ytick_4">
     <g id="line2d_9">
      <path d="M 65.7525 101.511737 
L 219.969012 101.511737 
" clip-path="url(#p998b3c31fa)" style="fill: none; stroke: #cccccc; stroke-width: 0.8; stroke-linecap: round"/>
     </g>
     <g id="text_8">
      <!-- 3000 -->
      <g style="fill: #262626" transform="translate(35.0565 104.85505) scale(0.088 -0.088)">
       <use xlink:href="#DejaVuSerif-33"/>
       <use xlink:href="#DejaVuSerif-30" x="63.623047"/>
       <use xlink:href="#DejaVuSerif-30" x="127.246094"/>
       <use xlink:href="#DejaVuSerif-30" x="190.869141"/>
      </g>
     </g>
    </g>
    <g id="ytick_5">
     <g id="line2d_10">
      <path d="M 65.7525 75.876211 
L 219.969012 75.876211 
" clip-path="url(#p998b3c31fa)" style="fill: none; stroke: #cccccc; stroke-width: 0.8; stroke-linecap: round"/>
     </g>
     <g id="text_9">
      <!-- 4000 -->
      <g style="fill: #262626" transform="translate(35.0565 79.219523) scale(0.088 -0.088)">
       <use xlink:href="#DejaVuSerif-34"/>
       <use xlink:href="#DejaVuSerif-30" x="63.623047"/>
       <use xlink:href="#DejaVuSerif-30" x="127.246094"/>
       <use xlink:href="#DejaVuSerif-30" x="190.869141"/>
      </g>
     </g>
    </g>
    <g id="ytick_6">
     <g id="line2d_11">
      <path d="M 65.7525 50.240684 
L 219.969012 50.240684 
" clip-path="url(#p998b3c31fa)" style="fill: none; stroke: #cccccc; stroke-width: 0.8; stroke-linecap: round"/>
     </g>
     <g id="text_10">
      <!-- 5000 -->
      <g style="fill: #262626" transform="translate(35.0565 53.583996) scale(0.088 -0.088)">
       <use xlink:href="#DejaVuSerif-35"/>
       <use xlink:href="#DejaVuSerif-30" x="63.623047"/>
       <use xlink:href="#DejaVuSerif-30" x="127.246094"/>
       <use xlink:href="#DejaVuSerif-30" x="190.869141"/>
      </g>
     </g>
    </g>
    <g id="ytick_7">
     <g id="line2d_12">
      <path d="M 65.7525 24.605157 
L 219.969012 24.605157 
" clip-path="url(#p998b3c31fa)" style="fill: none; stroke: #cccccc; stroke-width: 0.8; stroke-linecap: round"/>
     </g>
     <g id="text_11">
      <!-- 6000 -->
      <g style="fill: #262626" transform="translate(35.0565 27.948469) scale(0.088 -0.088)">
       <defs>
        <path id="DejaVuSerif-36" d="M 2094 219 
Q 2534 219 2771 542 
Q 3009 866 3009 1472 
Q 3009 2078 2771 2401 
Q 2534 2725 2094 2725 
Q 1647 2725 1412 2412 
Q 1178 2100 1178 1509 
Q 1178 888 1415 553 
Q 1653 219 2094 219 
z
M 1075 2569 
Q 1288 2803 1556 2918 
Q 1825 3034 2163 3034 
Q 2859 3034 3264 2615 
Q 3669 2197 3669 1472 
Q 3669 763 3233 336 
Q 2797 -91 2069 -91 
Q 1278 -91 853 498 
Q 428 1088 428 2181 
Q 428 3406 931 4078 
Q 1434 4750 2350 4750 
Q 2597 4750 2869 4703 
Q 3141 4656 3425 4563 
L 3425 3794 
L 3072 3794 
Q 3034 4109 2831 4275 
Q 2628 4441 2284 4441 
Q 1678 4441 1381 3981 
Q 1084 3522 1075 2569 
z
" transform="scale(0.015625)"/>
       </defs>
       <use xlink:href="#DejaVuSerif-36"/>
       <use xlink:href="#DejaVuSerif-30" x="63.623047"/>
       <use xlink:href="#DejaVuSerif-30" x="127.246094"/>
       <use xlink:href="#DejaVuSerif-30" x="190.869141"/>
      </g>
     </g>
    </g>
    <g id="text_12">
     <!-- Median penalty improvement -->
     <g style="fill: #262626" transform="translate(28.9235 174.93825) rotate(-90) scale(0.096 -0.096)">
      <defs>
       <path id="DejaVuSerif-4d" d="M 353 0 
L 353 331 
L 947 331 
L 947 4331 
L 319 4331 
L 319 4666 
L 1678 4666 
L 3316 1344 
L 4953 4666 
L 6228 4666 
L 6228 4331 
L 5606 4331 
L 5606 331 
L 6203 331 
L 6203 0 
L 4378 0 
L 4378 331 
L 4972 331 
L 4972 3938 
L 3372 684 
L 2931 684 
L 1331 3938 
L 1331 331 
L 1925 331 
L 1925 0 
L 353 0 
z
" transform="scale(0.015625)"/>
       <path id="DejaVuSerif-64" d="M 3359 331 
L 3909 331 
L 3909 0 
L 2784 0 
L 2784 519 
Q 2616 206 2355 57 
Q 2094 -91 1709 -91 
Q 1097 -91 708 395 
Q 319 881 319 1663 
Q 319 2444 706 2928 
Q 1094 3413 1709 3413 
Q 2094 3413 2355 3264 
Q 2616 3116 2784 2803 
L 2784 4531 
L 2241 4531 
L 2241 4863 
L 3359 4863 
L 3359 331 
z
M 2784 1497 
L 2784 1825 
Q 2784 2422 2554 2737 
Q 2325 3053 1888 3053 
Q 1444 3053 1217 2703 
Q 991 2353 991 1663 
Q 991 975 1217 622 
Q 1444 269 1888 269 
Q 2325 269 2554 583 
Q 2784 897 2784 1497 
z
" transform="scale(0.015625)"/>
       <path id="DejaVuSerif-6e" d="M 263 0 
L 263 331 
L 781 331 
L 781 2988 
L 231 2988 
L 231 3322 
L 1356 3322 
L 1356 2731 
Q 1516 3069 1770 3241 
Q 2025 3413 2363 3413 
Q 2913 3413 3172 3097 
Q 3431 2781 3431 2113 
L 3431 331 
L 3944 331 
L 3944 0 
L 2356 0 
L 2356 331 
L 2853 331 
L 2853 1931 
Q 2853 2541 2703 2767 
Q 2553 2994 2175 2994 
Q 1775 2994 1565 2701 
Q 1356 2409 1356 1850 
L 1356 331 
L 1856 331 
L 1856 0 
L 263 0 
z
" transform="scale(0.015625)"/>
       <path id="DejaVuSerif-70" d="M 1313 1825 
L 1313 1497 
Q 1313 897 1542 583 
Q 1772 269 2209 269 
Q 2650 269 2876 622 
Q 3103 975 3103 1663 
Q 3103 2353 2876 2703 
Q 2650 3053 2209 3053 
Q 1772 3053 1542 2737 
Q 1313 2422 1313 1825 
z
M 738 2988 
L 184 2988 
L 184 3322 
L 1313 3322 
L 1313 2803 
Q 1481 3116 1742 3264 
Q 2003 3413 2388 3413 
Q 3000 3413 3387 2928 
Q 3775 2444 3775 1663 
Q 3775 881 3387 395 
Q 3000 -91 2388 -91 
Q 2003 -91 1742 57 
Q 1481 206 1313 519 
L 1313 -997 
L 1856 -997 
L 1856 -1331 
L 184 -1331 
L 184 -997 
L 738 -997 
L 738 2988 
z
" transform="scale(0.015625)"/>
       <path id="DejaVuSerif-6c" d="M 1313 331 
L 1856 331 
L 1856 0 
L 184 0 
L 184 331 
L 738 331 
L 738 4531 
L 184 4531 
L 184 4863 
L 1313 4863 
L 1313 331 
z
" transform="scale(0.015625)"/>
       <path id="DejaVuSerif-79" d="M 1381 -609 
L 1600 -56 
L 359 2988 
L -19 2988 
L -19 3322 
L 1509 3322 
L 1509 2988 
L 978 2988 
L 1913 703 
L 2847 2988 
L 2350 2988 
L 2350 3322 
L 3597 3322 
L 3597 2988 
L 3225 2988 
L 1703 -750 
Q 1547 -1138 1356 -1280 
Q 1166 -1422 819 -1422 
Q 672 -1422 517 -1397 
Q 363 -1372 206 -1325 
L 206 -691 
L 500 -691 
Q 519 -903 608 -995 
Q 697 -1088 884 -1088 
Q 1056 -1088 1161 -992 
Q 1266 -897 1381 -609 
z
" transform="scale(0.015625)"/>
      </defs>
      <use xlink:href="#DejaVuSerif-4d"/>
      <use xlink:href="#DejaVuSerif-65" x="102.392578"/>
      <use xlink:href="#DejaVuSerif-64" x="161.572266"/>
      <use xlink:href="#DejaVuSerif-69" x="225.585938"/>
      <use xlink:href="#DejaVuSerif-61" x="257.568359"/>
      <use xlink:href="#DejaVuSerif-6e" x="317.1875"/>
      <use xlink:href="#DejaVuSerif-20" x="381.591797"/>
      <use xlink:href="#DejaVuSerif-70" x="413.378906"/>
      <use xlink:href="#DejaVuSerif-65" x="477.392578"/>
      <use xlink:href="#DejaVuSerif-6e" x="536.572266"/>
      <use xlink:href="#DejaVuSerif-61" x="600.976562"/>
      <use xlink:href="#DejaVuSerif-6c" x="660.595703"/>
      <use xlink:href="#DejaVuSerif-74" x="692.578125"/>
      <use xlink:href="#DejaVuSerif-79" x="732.763672"/>
      <use xlink:href="#DejaVuSerif-20" x="789.257812"/>
      <use xlink:href="#DejaVuSerif-69" x="821.044922"/>
      <use xlink:href="#DejaVuSerif-6d" x="853.027344"/>
      <use xlink:href="#DejaVuSerif-70" x="947.851562"/>
      <use xlink:href="#DejaVuSerif-72" x="1011.865234"/>
      <use xlink:href="#DejaVuSerif-6f" x="1059.667969"/>
      <use xlink:href="#DejaVuSerif-76" x="1119.873047"/>
      <use xlink:href="#DejaVuSerif-65" x="1176.367188"/>
      <use xlink:href="#DejaVuSerif-6d" x="1235.546875"/>
      <use xlink:href="#DejaVuSerif-65" x="1330.371094"/>
      <use xlink:href="#DejaVuSerif-6e" x="1389.550781"/>
      <use xlink:href="#DejaVuSerif-74" x="1453.955078"/>
     </g>
    </g>
   </g>
   <g id="line2d_13">
    <path d="M 72.762341 178.418318 
L 107.811549 168.77936 
L 142.860756 129.915901 
L 177.909964 90.539732 
L 212.959171 28.694023 
" clip-path="url(#p998b3c31fa)" style="fill: none; stroke: #0173b2; stroke-width: 1.2; stroke-linecap: round"/>
    <defs>
     <path id="mfa0dd73983" d="M -1.2 2.4 
L 0 1.2 
L 1.2 2.4 
L 2.4 1.2 
L 1.2 0 
L 2.4 -1.2 
L 1.2 -2.4 
L 0 -1.2 
L -1.2 -2.4 
L -2.4 -1.2 
L -1.2 0 
L -2.4 1.2 
z
" style="stroke: #0173b2; stroke-linejoin: miter"/>
    </defs>
    <g clip-path="url(#p998b3c31fa)">
     <use xlink:href="#mfa0dd73983" x="72.762341" y="178.418318" style="fill: #0173b2; stroke: #0173b2; stroke-linejoin: miter"/>
     <use xlink:href="#mfa0dd73983" x="107.811549" y="168.77936" style="fill: #0173b2; stroke: #0173b2; stroke-linejoin: miter"/>
     <use xlink:href="#mfa0dd73983" x="142.860756" y="129.915901" style="fill: #0173b2; stroke: #0173b2; stroke-linejoin: miter"/>
     <use xlink:href="#mfa0dd73983" x="177.909964" y="90.539732" style="fill: #0173b2; stroke: #0173b2; stroke-linejoin: miter"/>
     <use xlink:href="#mfa0dd73983" x="212.959171" y="28.694023" style="fill: #0173b2; stroke: #0173b2; stroke-linejoin: miter"/>
    </g>
   </g>
   <g id="line2d_14">
    <path d="M 72.762341 178.418318 
L 107.811549 169.779146 
L 142.860756 129.915901 
L 177.909964 90.616639 
L 212.959171 28.014682 
" clip-path="url(#p998b3c31fa)" style="fill: none; stroke: #de8f05; stroke-width: 1.2; stroke-linecap: round"/>
    <defs>
     <path id="mda26c1e0fb" d="M 0 2.4 
C 0.636487 2.4 1.246992 2.147121 1.697056 1.697056 
C 2.147121 1.246992 2.4 0.636487 2.4 0 
C 2.4 -0.636487 2.147121 -1.246992 1.697056 -1.697056 
C 1.246992 -2.147121 0.636487 -2.4 0 -2.4 
C -0.636487 -2.4 -1.246992 -2.147121 -1.697056 -1.697056 
C -2.147121 -1.246992 -2.4 -0.636487 -2.4 0 
C -2.4 0.636487 -2.147121 1.246992 -1.697056 1.697056 
C -1.246992 2.147121 -0.636487 2.4 0 2.4 
z
" style="stroke: #de8f05"/>
    </defs>
    <g clip-path="url(#p998b3c31fa)">
     <use xlink:href="#mda26c1e0fb" x="72.762341" y="178.418318" style="fill: #de8f05; stroke: #de8f05"/>
     <use xlink:href="#mda26c1e0fb" x="107.811549" y="169.779146" style="fill: #de8f05; stroke: #de8f05"/>
     <use xlink:href="#mda26c1e0fb" x="142.860756" y="129.915901" style="fill: #de8f05; stroke: #de8f05"/>
     <use xlink:href="#mda26c1e0fb" x="177.909964" y="90.616639" style="fill: #de8f05; stroke: #de8f05"/>
     <use xlink:href="#mda26c1e0fb" x="212.959171" y="28.014682" style="fill: #de8f05; stroke: #de8f05"/>
    </g>
   </g>
   <g id="line2d_15">
    <path d="M 72.762341 178.418318 
L 107.811549 169.98423 
L 142.860756 130.146621 
L 177.909964 93.513453 
L 212.959171 29.834804 
" clip-path="url(#p998b3c31fa)" style="fill: none; stroke: #029e73; stroke-width: 1.2; stroke-linecap: round"/>
    <defs>
     <path id="m7edb4c557c" d="M -0 2.4 
L 2.4 -2.4 
L -2.4 -2.4 
z
" style="stroke: #029e73; stroke-linejoin: miter"/>
    </defs>
    <g clip-path="url(#p998b3c31fa)">
     <use xlink:href="#m7edb4c557c" x="72.762341" y="178.418318" style="fill: #029e73; stroke: #029e73; stroke-linejoin: miter"/>
     <use xlink:href="#m7edb4c557c" x="107.811549" y="169.98423" style="fill: #029e73; stroke: #029e73; stroke-linejoin: miter"/>
     <use xlink:href="#m7edb4c557c" x="142.860756" y="130.146621" style="fill: #029e73; stroke: #029e73; stroke-linejoin: miter"/>
     <use xlink:href="#m7edb4c557c" x="177.909964" y="93.513453" style="fill: #029e73; stroke: #029e73; stroke-linejoin: miter"/>
     <use xlink:href="#m7edb4c557c" x="212.959171" y="29.834804" style="fill: #029e73; stroke: #029e73; stroke-linejoin: miter"/>
    </g>
   </g>
   <g id="line2d_16">
    <path d="M 72.762341 178.418318 
L 107.811549 170.061136 
L 142.860756 134.017586 
L 177.909964 105.472426 
L 212.959171 50.43295 
" clip-path="url(#p998b3c31fa)" style="fill: none; stroke: #d55e00; stroke-width: 1.2; stroke-linecap: round"/>
    <defs>
     <path id="mfd72bfad73" d="M -2.4 2.4 
L 2.4 2.4 
L 2.4 -2.4 
L -2.4 -2.4 
z
" style="stroke: #d55e00; stroke-linejoin: miter"/>
    </defs>
    <g clip-path="url(#p998b3c31fa)">
     <use xlink:href="#mfd72bfad73" x="72.762341" y="178.418318" style="fill: #d55e00; stroke: #d55e00; stroke-linejoin: miter"/>
     <use xlink:href="#mfd72bfad73" x="107.811549" y="170.061136" style="fill: #d55e00; stroke: #d55e00; stroke-linejoin: miter"/>
     <use xlink:href="#mfd72bfad73" x="142.860756" y="134.017586" style="fill: #d55e00; stroke: #d55e00; stroke-linejoin: miter"/>
     <use xlink:href="#mfd72bfad73" x="177.909964" y="105.472426" style="fill: #d55e00; stroke: #d55e00; stroke-linejoin: miter"/>
     <use xlink:href="#mfd72bfad73" x="212.959171" y="50.43295" style="fill: #d55e00; stroke: #d55e00; stroke-linejoin: miter"/>
    </g>
   </g>
   <g id="line2d_17">
    <path d="M 72.762341 178.418318 
L 107.811549 170.086772 
L 142.860756 128.352134 
L 177.909964 90.539732 
L 212.959171 28.014682 
" clip-path="url(#p998b3c31fa)" style="fill: none; stroke: #cc78bc; stroke-width: 1.2; stroke-linecap: round"/>
    <defs>
     <path id="mbe313b9aa1" d="M 0 3.394113 
L 3.394113 0 
L 0 -3.394113 
L -3.394113 0 
z
" style="stroke: #cc78bc; stroke-linejoin: miter"/>
    </defs>
    <g clip-path="url(#p998b3c31fa)">
     <use xlink:href="#mbe313b9aa1" x="72.762341" y="178.418318" style="fill: #cc78bc; stroke: #cc78bc; stroke-linejoin: miter"/>
     <use xlink:href="#mbe313b9aa1" x="107.811549" y="170.086772" style="fill: #cc78bc; stroke: #cc78bc; stroke-linejoin: miter"/>
     <use xlink:href="#mbe313b9aa1" x="142.860756" y="128.352134" style="fill: #cc78bc; stroke: #cc78bc; stroke-linejoin: miter"/>
     <use xlink:href="#mbe313b9aa1" x="177.909964" y="90.539732" style="fill: #cc78bc; stroke: #cc78bc; stroke-linejoin: miter"/>
     <use xlink:href="#mbe313b9aa1" x="212.959171" y="28.014682" style="fill: #cc78bc; stroke: #cc78bc; stroke-linejoin: miter"/>
    </g>
   </g>
   <g id="line2d_18">
    <path d="M 72.762341 178.418318 
L 107.811549 168.77936 
L 142.860756 129.915901 
L 177.909964 89.847573 
L 212.959171 28.014682 
" clip-path="url(#p998b3c31fa)" style="fill: none; stroke: #ca9161; stroke-width: 1.2; stroke-linecap: round"/>
    <defs>
     <path id="m12112916e4" d="M -0.8 2.4 
L 0.8 2.4 
L 0.8 0.8 
L 2.4 0.8 
L 2.4 -0.8 
L 0.8 -0.8 
L 0.8 -2.4 
L -0.8 -2.4 
L -0.8 -0.8 
L -2.4 -0.8 
L -2.4 0.8 
L -0.8 0.8 
z
" style="stroke: #ca9161; stroke-linejoin: miter"/>
    </defs>
    <g clip-path="url(#p998b3c31fa)">
     <use xlink:href="#m12112916e4" x="72.762341" y="178.418318" style="fill: #ca9161; stroke: #ca9161; stroke-linejoin: miter"/>
     <use xlink:href="#m12112916e4" x="107.811549" y="168.77936" style="fill: #ca9161; stroke: #ca9161; stroke-linejoin: miter"/>
     <use xlink:href="#m12112916e4" x="142.860756" y="129.915901" style="fill: #ca9161; stroke: #ca9161; stroke-linejoin: miter"/>
     <use xlink:href="#m12112916e4" x="177.909964" y="89.847573" style="fill: #ca9161; stroke: #ca9161; stroke-linejoin: miter"/>
     <use xlink:href="#m12112916e4" x="212.959171" y="28.014682" style="fill: #ca9161; stroke: #ca9161; stroke-linejoin: miter"/>
    </g>
   </g>
   <g id="LineCollection_1">
    <path d="M 72.762341 178.418318 
L 212.959171 178.418318 
" clip-path="url(#p998b3c31fa)" style="fill: none; stroke-dasharray: 4.44,1.92; stroke-dashoffset: 0; stroke: #808080; stroke-width: 1.2"/>
   </g>
   <g id="patch_3">
    <path d="M 65.7525 185.9385 
L 65.7525 20.4945 
" style="fill: none; stroke: #cccccc; stroke-linejoin: miter; stroke-linecap: square"/>
   </g>
   <g id="patch_4">
    <path d="M 219.969012 185.9385 
L 219.969012 20.4945 
" style="fill: none; stroke: #cccccc; stroke-linejoin: miter; stroke-linecap: square"/>
   </g>
   <g id="patch_5">
    <path d="M 65.7525 185.9385 
L 219.969012 185.9385 
" style="fill: none; stroke: #cccccc; stroke-linejoin: miter; stroke-linecap: square"/>
   </g>
   <g id="patch_6">
    <path d="M 65.7525 20.4945 
L 219.969012 20.4945 
" style="fill: none; stroke: #cccccc; stroke-linejoin: miter; stroke-linecap: square"/>
   </g>
   <g id="text_13">
    <!-- Penalty improvement per algorithm -->
    <g style="fill: #262626" transform="translate(56.020506 14.4945) scale(0.096 -0.096)">
     <defs>
      <path id="DejaVuSerif-50" d="M 1581 2375 
L 2406 2375 
Q 2872 2375 3115 2626 
Q 3359 2878 3359 3353 
Q 3359 3831 3115 4081 
Q 2872 4331 2406 4331 
L 1581 4331 
L 1581 2375 
z
M 353 0 
L 353 331 
L 947 331 
L 947 4331 
L 353 4331 
L 353 4666 
L 2559 4666 
Q 3259 4666 3668 4311 
Q 4078 3956 4078 3353 
Q 4078 2753 3668 2397 
Q 3259 2041 2559 2041 
L 1581 2041 
L 1581 331 
L 2303 331 
L 2303 0 
L 353 0 
z
" transform="scale(0.015625)"/>
      <path id="DejaVuSerif-67" d="M 3359 2988 
L 3359 72 
Q 3359 -644 2965 -1033 
Q 2572 -1422 1844 -1422 
Q 1516 -1422 1216 -1362 
Q 916 -1303 641 -1184 
L 641 -488 
L 941 -488 
Q 997 -813 1206 -963 
Q 1416 -1113 1806 -1113 
Q 2313 -1113 2548 -827 
Q 2784 -541 2784 72 
L 2784 519 
Q 2616 206 2355 57 
Q 2094 -91 1709 -91 
Q 1097 -91 708 395 
Q 319 881 319 1663 
Q 319 2444 706 2928 
Q 1094 3413 1709 3413 
Q 2094 3413 2355 3264 
Q 2616 3116 2784 2803 
L 2784 3322 
L 3909 3322 
L 3909 2988 
L 3359 2988 
z
M 2784 1825 
Q 2784 2422 2554 2737 
Q 2325 3053 1888 3053 
Q 1444 3053 1217 2703 
Q 991 2353 991 1663 
Q 991 975 1217 622 
Q 1444 269 1888 269 
Q 2325 269 2554 583 
Q 2784 897 2784 1497 
L 2784 1825 
z
" transform="scale(0.015625)"/>
      <path id="DejaVuSerif-68" d="M 263 0 
L 263 331 
L 781 331 
L 781 4531 
L 231 4531 
L 231 4863 
L 1356 4863 
L 1356 2731 
Q 1516 3069 1770 3241 
Q 2025 3413 2363 3413 
Q 2913 3413 3172 3097 
Q 3431 2781 3431 2113 
L 3431 331 
L 3944 331 
L 3944 0 
L 2356 0 
L 2356 331 
L 2853 331 
L 2853 1931 
Q 2853 2541 2704 2764 
Q 2556 2988 2175 2988 
Q 1775 2988 1565 2697 
Q 1356 2406 1356 1850 
L 1356 331 
L 1856 331 
L 1856 0 
L 263 0 
z
" transform="scale(0.015625)"/>
     </defs>
     <use xlink:href="#DejaVuSerif-50"/>
     <use xlink:href="#DejaVuSerif-65" x="62.785156"/>
     <use xlink:href="#DejaVuSerif-6e" x="121.964844"/>
     <use xlink:href="#DejaVuSerif-61" x="186.369141"/>
     <use xlink:href="#DejaVuSerif-6c" x="245.988281"/>
     <use xlink:href="#DejaVuSerif-74" x="277.970703"/>
     <use xlink:href="#DejaVuSerif-79" x="318.15625"/>
     <use xlink:href="#DejaVuSerif-20" x="374.650391"/>
     <use xlink:href="#DejaVuSerif-69" x="406.4375"/>
     <use xlink:href="#DejaVuSerif-6d" x="438.419922"/>
     <use xlink:href="#DejaVuSerif-70" x="533.244141"/>
     <use xlink:href="#DejaVuSerif-72" x="597.257812"/>
     <use xlink:href="#DejaVuSerif-6f" x="645.060547"/>
     <use xlink:href="#DejaVuSerif-76" x="705.265625"/>
     <use xlink:href="#DejaVuSerif-65" x="761.759766"/>
     <use xlink:href="#DejaVuSerif-6d" x="820.939453"/>
     <use xlink:href="#DejaVuSerif-65" x="915.763672"/>
     <use xlink:href="#DejaVuSerif-6e" x="974.943359"/>
     <use xlink:href="#DejaVuSerif-74" x="1039.347656"/>
     <use xlink:href="#DejaVuSerif-20" x="1079.533203"/>
     <use xlink:href="#DejaVuSerif-70" x="1111.320312"/>
     <use xlink:href="#DejaVuSerif-65" x="1175.333984"/>
     <use xlink:href="#DejaVuSerif-72" x="1234.513672"/>
     <use xlink:href="#DejaVuSerif-20" x="1282.316406"/>
     <use xlink:href="#DejaVuSerif-61" x="1314.103516"/>
     <use xlink:href="#DejaVuSerif-6c" x="1373.722656"/>
     <use xlink:href="#DejaVuSerif-67" x="1405.705078"/>
     <use xlink:href="#DejaVuSerif-6f" x="1469.71875"/>
     <use xlink:href="#DejaVuSerif-72" x="1529.923828"/>
     <use xlink:href="#DejaVuSerif-69" x="1577.726562"/>
     <use xlink:href="#DejaVuSerif-74" x="1609.708984"/>
     <use xlink:href="#DejaVuSerif-68" x="1649.894531"/>
     <use xlink:href="#DejaVuSerif-6d" x="1714.298828"/>
    </g>
   </g>
  </g>
  <g id="axes_2">
   <g id="patch_7">
    <path d="M 291.8685 185.9385 
L 446.085012 185.9385 
L 446.085012 20.4945 
L 291.8685 20.4945 
z
" style="fill: #ffffff"/>
   </g>
   <g id="matplotlib.axis_3">
    <g id="xtick_6">
     <g id="line2d_19">
      <path d="M 298.878341 185.9385 
L 298.878341 20.4945 
" clip-path="url(#pd1193dd07d)" style="fill: none; stroke: #cccccc; stroke-width: 0.8; stroke-linecap: round"/>
     </g>
     <g id="text_14">
      <!-- (0, 100] -->
      <g style="fill: #262626" transform="translate(281.450216 200.925125) scale(0.088 -0.088)">
       <use xlink:href="#DejaVuSerif-28"/>
       <use xlink:href="#DejaVuSerif-30" x="39.013672"/>
       <use xlink:href="#DejaVuSerif-2c" x="102.636719"/>
       <use xlink:href="#DejaVuSerif-20" x="134.423828"/>
       <use xlink:href="#DejaVuSerif-31" x="166.210938"/>
       <use xlink:href="#DejaVuSerif-30" x="229.833984"/>
       <use xlink:href="#DejaVuSerif-30" x="293.457031"/>
       <use xlink:href="#DejaVuSerif-5d" x="357.080078"/>
      </g>
     </g>
    </g>
    <g id="xtick_7">
     <g id="line2d_20">
      <path d="M 333.927549 185.9385 
L 333.927549 20.4945 
" clip-path="url(#pd1193dd07d)" style="fill: none; stroke: #cccccc; stroke-width: 0.8; stroke-linecap: round"/>
     </g>
    </g>
    <g id="xtick_8">
     <g id="line2d_21">
      <path d="M 368.976756 185.9385 
L 368.976756 20.4945 
" clip-path="url(#pd1193dd07d)" style="fill: none; stroke: #cccccc; stroke-width: 0.8; stroke-linecap: round"/>
     </g>
     <g id="text_15">
      <!-- (200, 300] -->
      <g style="fill: #262626" transform="translate(345.949631 200.925125) scale(0.088 -0.088)">
       <use xlink:href="#DejaVuSerif-28"/>
       <use xlink:href="#DejaVuSerif-32" x="39.013672"/>
       <use xlink:href="#DejaVuSerif-30" x="102.636719"/>
       <use xlink:href="#DejaVuSerif-30" x="166.259766"/>
       <use xlink:href="#DejaVuSerif-2c" x="229.882812"/>
       <use xlink:href="#DejaVuSerif-20" x="261.669922"/>
       <use xlink:href="#DejaVuSerif-33" x="293.457031"/>
       <use xlink:href="#DejaVuSerif-30" x="357.080078"/>
       <use xlink:href="#DejaVuSerif-30" x="420.703125"/>
       <use xlink:href="#DejaVuSerif-5d" x="484.326172"/>
      </g>
     </g>
    </g>
    <g id="xtick_9">
     <g id="line2d_22">
      <path d="M 404.025964 185.9385 
L 404.025964 20.4945 
" clip-path="url(#pd1193dd07d)" style="fill: none; stroke: #cccccc; stroke-width: 0.8; stroke-linecap: round"/>
     </g>
    </g>
    <g id="xtick_10">
     <g id="line2d_23">
      <path d="M 439.075171 185.9385 
L 439.075171 20.4945 
" clip-path="url(#pd1193dd07d)" style="fill: none; stroke: #cccccc; stroke-width: 0.8; stroke-linecap: round"/>
     </g>
     <g id="text_16">
      <!-- (400, 500] -->
      <g style="fill: #262626" transform="translate(416.048046 200.925125) scale(0.088 -0.088)">
       <use xlink:href="#DejaVuSerif-28"/>
       <use xlink:href="#DejaVuSerif-34" x="39.013672"/>
       <use xlink:href="#DejaVuSerif-30" x="102.636719"/>
       <use xlink:href="#DejaVuSerif-30" x="166.259766"/>
       <use xlink:href="#DejaVuSerif-2c" x="229.882812"/>
       <use xlink:href="#DejaVuSerif-20" x="261.669922"/>
       <use xlink:href="#DejaVuSerif-35" x="293.457031"/>
       <use xlink:href="#DejaVuSerif-30" x="357.080078"/>
       <use xlink:href="#DejaVuSerif-30" x="420.703125"/>
       <use xlink:href="#DejaVuSerif-5d" x="484.326172"/>
      </g>
     </g>
    </g>
    <g id="text_17">
     <!-- Number of activities -->
     <g style="fill: #262626" transform="translate(319.178256 214.04975) scale(0.096 -0.096)">
      <use xlink:href="#DejaVuSerif-4e"/>
      <use xlink:href="#DejaVuSerif-75" x="87.5"/>
      <use xlink:href="#DejaVuSerif-6d" x="151.904297"/>
      <use xlink:href="#DejaVuSerif-62" x="246.728516"/>
      <use xlink:href="#DejaVuSerif-65" x="310.742188"/>
      <use xlink:href="#DejaVuSerif-72" x="369.921875"/>
      <use xlink:href="#DejaVuSerif-20" x="417.724609"/>
      <use xlink:href="#DejaVuSerif-6f" x="449.511719"/>
      <use xlink:href="#DejaVuSerif-66" x="509.716797"/>
      <use xlink:href="#DejaVuSerif-20" x="546.728516"/>
      <use xlink:href="#DejaVuSerif-61" x="578.515625"/>
      <use xlink:href="#DejaVuSerif-63" x="638.134766"/>
      <use xlink:href="#DejaVuSerif-74" x="694.140625"/>
      <use xlink:href="#DejaVuSerif-69" x="734.326172"/>
      <use xlink:href="#DejaVuSerif-76" x="766.308594"/>
      <use xlink:href="#DejaVuSerif-69" x="822.802734"/>
      <use xlink:href="#DejaVuSerif-74" x="854.785156"/>
      <use xlink:href="#DejaVuSerif-69" x="894.970703"/>
      <use xlink:href="#DejaVuSerif-65" x="926.953125"/>
      <use xlink:href="#DejaVuSerif-73" x="986.132812"/>
     </g>
    </g>
   </g>
   <g id="matplotlib.axis_4">
    <g id="ytick_8">
     <g id="line2d_24">
      <path d="M 291.8685 175.908373 
L 446.085012 175.908373 
" clip-path="url(#pd1193dd07d)" style="fill: none; stroke: #cccccc; stroke-width: 0.8; stroke-linecap: round"/>
     </g>
     <g id="text_18">
      <!-- −700 -->
      <g style="fill: #262626" transform="translate(259.397375 179.251686) scale(0.088 -0.088)">
       <defs>
        <path id="DejaVuSerif-2212" d="M 678 2259 
L 4684 2259 
L 4684 1753 
L 678 1753 
L 678 2259 
z
" transform="scale(0.015625)"/>
        <path id="DejaVuSerif-37" d="M 3609 4347 
L 1784 0 
L 1319 0 
L 3059 4153 
L 903 4153 
L 903 3578 
L 538 3578 
L 538 4666 
L 3609 4666 
L 3609 4347 
z
" transform="scale(0.015625)"/>
       </defs>
       <use xlink:href="#DejaVuSerif-2212"/>
       <use xlink:href="#DejaVuSerif-37" x="83.789062"/>
       <use xlink:href="#DejaVuSerif-30" x="147.412109"/>
       <use xlink:href="#DejaVuSerif-30" x="211.035156"/>
      </g>
     </g>
    </g>
    <g id="ytick_9">
     <g id="line2d_25">
      <path d="M 291.8685 156.601103 
L 446.085012 156.601103 
" clip-path="url(#pd1193dd07d)" style="fill: none; stroke: #cccccc; stroke-width: 0.8; stroke-linecap: round"/>
     </g>
     <g id="text_19">
      <!-- −600 -->
      <g style="fill: #262626" transform="translate(259.397375 159.944415) scale(0.088 -0.088)">
       <use xlink:href="#DejaVuSerif-2212"/>
       <use xlink:href="#DejaVuSerif-36" x="83.789062"/>
       <use xlink:href="#DejaVuSerif-30" x="147.412109"/>
       <use xlink:href="#DejaVuSerif-30" x="211.035156"/>
      </g>
     </g>
    </g>
    <g id="ytick_10">
     <g id="line2d_26">
      <path d="M 291.8685 137.293832 
L 446.085012 137.293832 
" clip-path="url(#pd1193dd07d)" style="fill: none; stroke: #cccccc; stroke-width: 0.8; stroke-linecap: round"/>
     </g>
     <g id="text_20">
      <!-- −500 -->
      <g style="fill: #262626" transform="translate(259.397375 140.637145) scale(0.088 -0.088)">
       <use xlink:href="#DejaVuSerif-2212"/>
       <use xlink:href="#DejaVuSerif-35" x="83.789062"/>
       <use xlink:href="#DejaVuSerif-30" x="147.412109"/>
       <use xlink:href="#DejaVuSerif-30" x="211.035156"/>
      </g>
     </g>
    </g>
    <g id="ytick_11">
     <g id="line2d_27">
      <path d="M 291.8685 117.986562 
L 446.085012 117.986562 
" clip-path="url(#pd1193dd07d)" style="fill: none; stroke: #cccccc; stroke-width: 0.8; stroke-linecap: round"/>
     </g>
     <g id="text_21">
      <!-- −400 -->
      <g style="fill: #262626" transform="translate(259.397375 121.329874) scale(0.088 -0.088)">
       <use xlink:href="#DejaVuSerif-2212"/>
       <use xlink:href="#DejaVuSerif-34" x="83.789062"/>
       <use xlink:href="#DejaVuSerif-30" x="147.412109"/>
       <use xlink:href="#DejaVuSerif-30" x="211.035156"/>
      </g>
     </g>
    </g>
    <g id="ytick_12">
     <g id="line2d_28">
      <path d="M 291.8685 98.679291 
L 446.085012 98.679291 
" clip-path="url(#pd1193dd07d)" style="fill: none; stroke: #cccccc; stroke-width: 0.8; stroke-linecap: round"/>
     </g>
     <g id="text_22">
      <!-- −300 -->
      <g style="fill: #262626" transform="translate(259.397375 102.022604) scale(0.088 -0.088)">
       <use xlink:href="#DejaVuSerif-2212"/>
       <use xlink:href="#DejaVuSerif-33" x="83.789062"/>
       <use xlink:href="#DejaVuSerif-30" x="147.412109"/>
       <use xlink:href="#DejaVuSerif-30" x="211.035156"/>
      </g>
     </g>
    </g>
    <g id="ytick_13">
     <g id="line2d_29">
      <path d="M 291.8685 79.372021 
L 446.085012 79.372021 
" clip-path="url(#pd1193dd07d)" style="fill: none; stroke: #cccccc; stroke-width: 0.8; stroke-linecap: round"/>
     </g>
     <g id="text_23">
      <!-- −200 -->
      <g style="fill: #262626" transform="translate(259.397375 82.715334) scale(0.088 -0.088)">
       <use xlink:href="#DejaVuSerif-2212"/>
       <use xlink:href="#DejaVuSerif-32" x="83.789062"/>
       <use xlink:href="#DejaVuSerif-30" x="147.412109"/>
       <use xlink:href="#DejaVuSerif-30" x="211.035156"/>
      </g>
     </g>
    </g>
    <g id="ytick_14">
     <g id="line2d_30">
      <path d="M 291.8685 60.064751 
L 446.085012 60.064751 
" clip-path="url(#pd1193dd07d)" style="fill: none; stroke: #cccccc; stroke-width: 0.8; stroke-linecap: round"/>
     </g>
     <g id="text_24">
      <!-- −100 -->
      <g style="fill: #262626" transform="translate(259.397375 63.408063) scale(0.088 -0.088)">
       <use xlink:href="#DejaVuSerif-2212"/>
       <use xlink:href="#DejaVuSerif-31" x="83.789062"/>
       <use xlink:href="#DejaVuSerif-30" x="147.412109"/>
       <use xlink:href="#DejaVuSerif-30" x="211.035156"/>
      </g>
     </g>
    </g>
    <g id="ytick_15">
     <g id="line2d_31">
      <path d="M 291.8685 40.75748 
L 446.085012 40.75748 
" clip-path="url(#pd1193dd07d)" style="fill: none; stroke: #cccccc; stroke-width: 0.8; stroke-linecap: round"/>
     </g>
     <g id="text_25">
      <!-- 0 -->
      <g style="fill: #262626" transform="translate(277.9695 44.100793) scale(0.088 -0.088)">
       <use xlink:href="#DejaVuSerif-30"/>
      </g>
     </g>
    </g>
    <g id="ytick_16">
     <g id="line2d_32">
      <path d="M 291.8685 21.45021 
L 446.085012 21.45021 
" clip-path="url(#pd1193dd07d)" style="fill: none; stroke: #cccccc; stroke-width: 0.8; stroke-linecap: round"/>
     </g>
     <g id="text_26">
      <!-- 100 -->
      <g style="fill: #262626" transform="translate(266.7715 24.793522) scale(0.088 -0.088)">
       <use xlink:href="#DejaVuSerif-31"/>
       <use xlink:href="#DejaVuSerif-30" x="63.623047"/>
       <use xlink:href="#DejaVuSerif-30" x="127.246094"/>
      </g>
     </g>
    </g>
    <g id="text_27">
     <!-- Median makespan improvement -->
     <g style="fill: #262626" transform="translate(253.400875 181.54725) rotate(-90) scale(0.096 -0.096)">
      <defs>
       <path id="DejaVuSerif-6b" d="M 1831 0 
L 219 0 
L 219 331 
L 738 331 
L 738 4531 
L 184 4531 
L 184 4863 
L 1313 4863 
L 1313 1697 
L 2713 2988 
L 2234 2988 
L 2234 3322 
L 3738 3322 
L 3738 2988 
L 3169 2988 
L 2181 2075 
L 3444 331 
L 3922 331 
L 3922 0 
L 2284 0 
L 2284 331 
L 2759 331 
L 1766 1697 
L 1313 1275 
L 1313 331 
L 1831 331 
L 1831 0 
z
" transform="scale(0.015625)"/>
      </defs>
      <use xlink:href="#DejaVuSerif-4d"/>
      <use xlink:href="#DejaVuSerif-65" x="102.392578"/>
      <use xlink:href="#DejaVuSerif-64" x="161.572266"/>
      <use xlink:href="#DejaVuSerif-69" x="225.585938"/>
      <use xlink:href="#DejaVuSerif-61" x="257.568359"/>
      <use xlink:href="#DejaVuSerif-6e" x="317.1875"/>
      <use xlink:href="#DejaVuSerif-20" x="381.591797"/>
      <use xlink:href="#DejaVuSerif-6d" x="413.378906"/>
      <use xlink:href="#DejaVuSerif-61" x="508.203125"/>
      <use xlink:href="#DejaVuSerif-6b" x="567.822266"/>
      <use xlink:href="#DejaVuSerif-65" x="628.417969"/>
      <use xlink:href="#DejaVuSerif-73" x="687.597656"/>
      <use xlink:href="#DejaVuSerif-70" x="738.916016"/>
      <use xlink:href="#DejaVuSerif-61" x="802.929688"/>
      <use xlink:href="#DejaVuSerif-6e" x="862.548828"/>
      <use xlink:href="#DejaVuSerif-20" x="926.953125"/>
      <use xlink:href="#DejaVuSerif-69" x="958.740234"/>
      <use xlink:href="#DejaVuSerif-6d" x="990.722656"/>
      <use xlink:href="#DejaVuSerif-70" x="1085.546875"/>
      <use xlink:href="#DejaVuSerif-72" x="1149.560547"/>
      <use xlink:href="#DejaVuSerif-6f" x="1197.363281"/>
      <use xlink:href="#DejaVuSerif-76" x="1257.568359"/>
      <use xlink:href="#DejaVuSerif-65" x="1314.0625"/>
      <use xlink:href="#DejaVuSerif-6d" x="1373.242188"/>
      <use xlink:href="#DejaVuSerif-65" x="1468.066406"/>
      <use xlink:href="#DejaVuSerif-6e" x="1527.246094"/>
      <use xlink:href="#DejaVuSerif-74" x="1591.650391"/>
     </g>
    </g>
   </g>
   <g id="line2d_33">
    <path d="M 298.878341 30.621163 
L 333.927549 51.955697 
L 368.976756 68.173804 
L 404.025964 75.896712 
L 439.075171 89.218729 
" clip-path="url(#pd1193dd07d)" style="fill: none; stroke: #0173b2; stroke-width: 1.2; stroke-linecap: round"/>
    <g clip-path="url(#pd1193dd07d)">
     <use xlink:href="#mfa0dd73983" x="298.878341" y="30.621163" style="fill: #0173b2; stroke: #0173b2; stroke-linejoin: miter"/>
     <use xlink:href="#mfa0dd73983" x="333.927549" y="51.955697" style="fill: #0173b2; stroke: #0173b2; stroke-linejoin: miter"/>
     <use xlink:href="#mfa0dd73983" x="368.976756" y="68.173804" style="fill: #0173b2; stroke: #0173b2; stroke-linejoin: miter"/>
     <use xlink:href="#mfa0dd73983" x="404.025964" y="75.896712" style="fill: #0173b2; stroke: #0173b2; stroke-linejoin: miter"/>
     <use xlink:href="#mfa0dd73983" x="439.075171" y="89.218729" style="fill: #0173b2; stroke: #0173b2; stroke-linejoin: miter"/>
    </g>
   </g>
   <g id="line2d_34">
    <path d="M 298.878341 75.510567 
L 333.927549 88.832584 
L 368.976756 119.917289 
L 404.025964 136.328469 
L 439.075171 178.418318 
" clip-path="url(#pd1193dd07d)" style="fill: none; stroke: #de8f05; stroke-width: 1.2; stroke-linecap: round"/>
    <g clip-path="url(#pd1193dd07d)">
     <use xlink:href="#mda26c1e0fb" x="298.878341" y="75.510567" style="fill: #de8f05; stroke: #de8f05"/>
     <use xlink:href="#mda26c1e0fb" x="333.927549" y="88.832584" style="fill: #de8f05; stroke: #de8f05"/>
     <use xlink:href="#mda26c1e0fb" x="368.976756" y="119.917289" style="fill: #de8f05; stroke: #de8f05"/>
     <use xlink:href="#mda26c1e0fb" x="404.025964" y="136.328469" style="fill: #de8f05; stroke: #de8f05"/>
     <use xlink:href="#mda26c1e0fb" x="439.075171" y="178.418318" style="fill: #de8f05; stroke: #de8f05"/>
    </g>
   </g>
   <g id="line2d_35">
    <path d="M 298.878341 50.121506 
L 333.927549 56.203297 
L 368.976756 67.787659 
L 404.025964 70.876822 
L 439.075171 79.758166 
" clip-path="url(#pd1193dd07d)" style="fill: none; stroke: #029e73; stroke-width: 1.2; stroke-linecap: round"/>
    <g clip-path="url(#pd1193dd07d)">
     <use xlink:href="#m7edb4c557c" x="298.878341" y="50.121506" style="fill: #029e73; stroke: #029e73; stroke-linejoin: miter"/>
     <use xlink:href="#m7edb4c557c" x="333.927549" y="56.203297" style="fill: #029e73; stroke: #029e73; stroke-linejoin: miter"/>
     <use xlink:href="#m7edb4c557c" x="368.976756" y="67.787659" style="fill: #029e73; stroke: #029e73; stroke-linejoin: miter"/>
     <use xlink:href="#m7edb4c557c" x="404.025964" y="70.876822" style="fill: #029e73; stroke: #029e73; stroke-linejoin: miter"/>
     <use xlink:href="#m7edb4c557c" x="439.075171" y="79.758166" style="fill: #029e73; stroke: #029e73; stroke-linejoin: miter"/>
    </g>
   </g>
   <g id="line2d_36">
    <path d="M 298.878341 31.103845 
L 333.927549 28.014682 
L 368.976756 29.173118 
L 404.025964 33.324181 
L 439.075171 36.509881 
" clip-path="url(#pd1193dd07d)" style="fill: none; stroke: #d55e00; stroke-width: 1.2; stroke-linecap: round"/>
    <g clip-path="url(#pd1193dd07d)">
     <use xlink:href="#mfd72bfad73" x="298.878341" y="31.103845" style="fill: #d55e00; stroke: #d55e00; stroke-linejoin: miter"/>
     <use xlink:href="#mfd72bfad73" x="333.927549" y="28.014682" style="fill: #d55e00; stroke: #d55e00; stroke-linejoin: miter"/>
     <use xlink:href="#mfd72bfad73" x="368.976756" y="29.173118" style="fill: #d55e00; stroke: #d55e00; stroke-linejoin: miter"/>
     <use xlink:href="#mfd72bfad73" x="404.025964" y="33.324181" style="fill: #d55e00; stroke: #d55e00; stroke-linejoin: miter"/>
     <use xlink:href="#mfd72bfad73" x="439.075171" y="36.509881" style="fill: #d55e00; stroke: #d55e00; stroke-linejoin: miter"/>
    </g>
   </g>
   <g id="line2d_37">
    <path d="M 298.878341 35.351445 
L 333.927549 43.267425 
L 368.976756 52.341843 
L 404.025964 60.643969 
L 439.075171 70.297604 
" clip-path="url(#pd1193dd07d)" style="fill: none; stroke: #cc78bc; stroke-width: 1.2; stroke-linecap: round"/>
    <g clip-path="url(#pd1193dd07d)">
     <use xlink:href="#mbe313b9aa1" x="298.878341" y="35.351445" style="fill: #cc78bc; stroke: #cc78bc; stroke-linejoin: miter"/>
     <use xlink:href="#mbe313b9aa1" x="333.927549" y="43.267425" style="fill: #cc78bc; stroke: #cc78bc; stroke-linejoin: miter"/>
     <use xlink:href="#mbe313b9aa1" x="368.976756" y="52.341843" style="fill: #cc78bc; stroke: #cc78bc; stroke-linejoin: miter"/>
     <use xlink:href="#mbe313b9aa1" x="404.025964" y="60.643969" style="fill: #cc78bc; stroke: #cc78bc; stroke-linejoin: miter"/>
     <use xlink:href="#mbe313b9aa1" x="439.075171" y="70.297604" style="fill: #cc78bc; stroke: #cc78bc; stroke-linejoin: miter"/>
    </g>
   </g>
   <g id="line2d_38">
    <path d="M 298.878341 29.173118 
L 333.927549 36.702953 
L 368.976756 52.534915 
L 404.025964 60.161287 
L 439.075171 73.483304 
" clip-path="url(#pd1193dd07d)" style="fill: none; stroke: #ca9161; stroke-width: 1.2; stroke-linecap: round"/>
    <g clip-path="url(#pd1193dd07d)">
     <use xlink:href="#m12112916e4" x="298.878341" y="29.173118" style="fill: #ca9161; stroke: #ca9161; stroke-linejoin: miter"/>
     <use xlink:href="#m12112916e4" x="333.927549" y="36.702953" style="fill: #ca9161; stroke: #ca9161; stroke-linejoin: miter"/>
     <use xlink:href="#m12112916e4" x="368.976756" y="52.534915" style="fill: #ca9161; stroke: #ca9161; stroke-linejoin: miter"/>
     <use xlink:href="#m12112916e4" x="404.025964" y="60.161287" style="fill: #ca9161; stroke: #ca9161; stroke-linejoin: miter"/>
     <use xlink:href="#m12112916e4" x="439.075171" y="73.483304" style="fill: #ca9161; stroke: #ca9161; stroke-linejoin: miter"/>
    </g>
   </g>
   <g id="LineCollection_2">
    <path d="M 298.878341 40.75748 
L 439.075171 40.75748 
" clip-path="url(#pd1193dd07d)" style="fill: none; stroke-dasharray: 4.44,1.92; stroke-dashoffset: 0; stroke: #808080; stroke-width: 1.2"/>
   </g>
   <g id="patch_8">
    <path d="M 291.8685 185.9385 
L 291.8685 20.4945 
" style="fill: none; stroke: #cccccc; stroke-linejoin: miter; stroke-linecap: square"/>
   </g>
   <g id="patch_9">
    <path d="M 446.085012 185.9385 
L 446.085012 20.4945 
" style="fill: none; stroke: #cccccc; stroke-linejoin: miter; stroke-linecap: square"/>
   </g>
   <g id="patch_10">
    <path d="M 291.8685 185.9385 
L 446.085012 185.9385 
" style="fill: none; stroke: #cccccc; stroke-linejoin: miter; stroke-linecap: square"/>
   </g>
   <g id="patch_11">
    <path d="M 291.8685 20.4945 
L 446.085012 20.4945 
" style="fill: none; stroke: #cccccc; stroke-linejoin: miter; stroke-linecap: square"/>
   </g>
   <g id="text_28">
    <!-- Makespan improvement per algorithm -->
    <g style="fill: #262626" transform="translate(275.105256 14.4945) scale(0.096 -0.096)">
     <use xlink:href="#DejaVuSerif-4d"/>
     <use xlink:href="#DejaVuSerif-61" x="102.392578"/>
     <use xlink:href="#DejaVuSerif-6b" x="162.011719"/>
     <use xlink:href="#DejaVuSerif-65" x="222.607422"/>
     <use xlink:href="#DejaVuSerif-73" x="281.787109"/>
     <use xlink:href="#DejaVuSerif-70" x="333.105469"/>
     <use xlink:href="#DejaVuSerif-61" x="397.119141"/>
     <use xlink:href="#DejaVuSerif-6e" x="456.738281"/>
     <use xlink:href="#DejaVuSerif-20" x="521.142578"/>
     <use xlink:href="#DejaVuSerif-69" x="552.929688"/>
     <use xlink:href="#DejaVuSerif-6d" x="584.912109"/>
     <use xlink:href="#DejaVuSerif-70" x="679.736328"/>
     <use xlink:href="#DejaVuSerif-72" x="743.75"/>
     <use xlink:href="#DejaVuSerif-6f" x="791.552734"/>
     <use xlink:href="#DejaVuSerif-76" x="851.757812"/>
     <use xlink:href="#DejaVuSerif-65" x="908.251953"/>
     <use xlink:href="#DejaVuSerif-6d" x="967.431641"/>
     <use xlink:href="#DejaVuSerif-65" x="1062.255859"/>
     <use xlink:href="#DejaVuSerif-6e" x="1121.435547"/>
     <use xlink:href="#DejaVuSerif-74" x="1185.839844"/>
     <use xlink:href="#DejaVuSerif-20" x="1226.025391"/>
     <use xlink:href="#DejaVuSerif-70" x="1257.8125"/>
     <use xlink:href="#DejaVuSerif-65" x="1321.826172"/>
     <use xlink:href="#DejaVuSerif-72" x="1381.005859"/>
     <use xlink:href="#DejaVuSerif-20" x="1428.808594"/>
     <use xlink:href="#DejaVuSerif-61" x="1460.595703"/>
     <use xlink:href="#DejaVuSerif-6c" x="1520.214844"/>
     <use xlink:href="#DejaVuSerif-67" x="1552.197266"/>
     <use xlink:href="#DejaVuSerif-6f" x="1616.210938"/>
     <use xlink:href="#DejaVuSerif-72" x="1676.416016"/>
     <use xlink:href="#DejaVuSerif-69" x="1724.21875"/>
     <use xlink:href="#DejaVuSerif-74" x="1756.201172"/>
     <use xlink:href="#DejaVuSerif-68" x="1796.386719"/>
     <use xlink:href="#DejaVuSerif-6d" x="1860.791016"/>
    </g>
   </g>
  </g>
  <g id="legend_1">
   <g id="patch_12">
    <path d="M 8.96 257.4865 
L 474.469 257.4865 
Q 476.229 257.4865 476.229 255.7265 
L 476.229 230.52275 
Q 476.229 228.76275 474.469 228.76275 
L 8.96 228.76275 
Q 7.2 228.76275 7.2 230.52275 
L 7.2 255.7265 
Q 7.2 257.4865 8.96 257.4865 
z
" style="fill: #ffffff; opacity: 0.8; stroke: #cccccc; stroke-width: 0.8; stroke-linejoin: miter"/>
   </g>
   <g id="line2d_39">
    <path d="M 10.72 235.889375 
L 19.52 235.889375 
L 28.32 235.889375 
" style="fill: none; stroke: #0173b2; stroke-width: 1.2; stroke-linecap: round"/>
    <g>
     <use xlink:href="#mfa0dd73983" x="19.52" y="235.889375" style="fill: #0173b2; stroke: #0173b2; stroke-linejoin: miter"/>
    </g>
   </g>
   <g id="text_29">
    <!-- Stochastic Hill Climb -->
    <g style="fill: #262626" transform="translate(35.36 238.969375) scale(0.088 -0.088)">
     <defs>
      <path id="DejaVuSerif-53" d="M 594 225 
L 594 1288 
L 953 1284 
Q 969 753 1261 498 
Q 1553 244 2150 244 
Q 2706 244 2998 464 
Q 3291 684 3291 1106 
Q 3291 1444 3114 1625 
Q 2938 1806 2369 1978 
L 1753 2163 
Q 1084 2366 811 2669 
Q 538 2972 538 3500 
Q 538 4094 959 4422 
Q 1381 4750 2144 4750 
Q 2469 4750 2856 4679 
Q 3244 4609 3681 4475 
L 3681 3481 
L 3328 3481 
Q 3275 3975 2998 4195 
Q 2722 4416 2156 4416 
Q 1663 4416 1405 4214 
Q 1147 4013 1147 3628 
Q 1147 3294 1340 3103 
Q 1534 2913 2163 2725 
L 2741 2553 
Q 3375 2363 3645 2067 
Q 3916 1772 3916 1275 
Q 3916 597 3481 253 
Q 3047 -91 2188 -91 
Q 1803 -91 1404 -12 
Q 1006 66 594 225 
z
" transform="scale(0.015625)"/>
      <path id="DejaVuSerif-48" d="M 353 0 
L 353 331 
L 947 331 
L 947 4331 
L 353 4331 
L 353 4666 
L 2175 4666 
L 2175 4331 
L 1581 4331 
L 1581 2719 
L 4000 2719 
L 4000 4331 
L 3406 4331 
L 3406 4666 
L 5228 4666 
L 5228 4331 
L 4634 4331 
L 4634 331 
L 5228 331 
L 5228 0 
L 3406 0 
L 3406 331 
L 4000 331 
L 4000 2338 
L 1581 2338 
L 1581 331 
L 2175 331 
L 2175 0 
L 353 0 
z
" transform="scale(0.015625)"/>
      <path id="DejaVuSerif-43" d="M 4513 1234 
Q 4306 581 3820 245 
Q 3334 -91 2591 -91 
Q 2134 -91 1743 65 
Q 1353 222 1050 525 
Q 700 875 529 1320 
Q 359 1766 359 2328 
Q 359 3416 987 4083 
Q 1616 4750 2644 4750 
Q 3025 4750 3456 4650 
Q 3888 4550 4384 4347 
L 4384 3272 
L 4031 3272 
Q 3916 3859 3567 4137 
Q 3219 4416 2591 4416 
Q 1844 4416 1459 3886 
Q 1075 3356 1075 2328 
Q 1075 1303 1459 773 
Q 1844 244 2591 244 
Q 3113 244 3450 492 
Q 3788 741 3938 1234 
L 4513 1234 
z
" transform="scale(0.015625)"/>
     </defs>
     <use xlink:href="#DejaVuSerif-53"/>
     <use xlink:href="#DejaVuSerif-74" x="68.505859"/>
     <use xlink:href="#DejaVuSerif-6f" x="108.691406"/>
     <use xlink:href="#DejaVuSerif-63" x="168.896484"/>
     <use xlink:href="#DejaVuSerif-68" x="224.902344"/>
     <use xlink:href="#DejaVuSerif-61" x="289.306641"/>
     <use xlink:href="#DejaVuSerif-73" x="348.925781"/>
     <use xlink:href="#DejaVuSerif-74" x="400.244141"/>
     <use xlink:href="#DejaVuSerif-69" x="440.429688"/>
     <use xlink:href="#DejaVuSerif-63" x="472.412109"/>
     <use xlink:href="#DejaVuSerif-20" x="528.417969"/>
     <use xlink:href="#DejaVuSerif-48" x="560.205078"/>
     <use xlink:href="#DejaVuSerif-69" x="647.412109"/>
     <use xlink:href="#DejaVuSerif-6c" x="679.394531"/>
     <use xlink:href="#DejaVuSerif-6c" x="711.376953"/>
     <use xlink:href="#DejaVuSerif-20" x="743.359375"/>
     <use xlink:href="#DejaVuSerif-43" x="775.146484"/>
     <use xlink:href="#DejaVuSerif-6c" x="851.660156"/>
     <use xlink:href="#DejaVuSerif-69" x="883.642578"/>
     <use xlink:href="#DejaVuSerif-6d" x="915.625"/>
     <use xlink:href="#DejaVuSerif-62" x="1010.449219"/>
    </g>
   </g>
   <g id="line2d_40">
    <path d="M 10.72 248.806125 
L 19.52 248.806125 
L 28.32 248.806125 
" style="fill: none; stroke: #de8f05; stroke-width: 1.2; stroke-linecap: round"/>
    <g>
     <use xlink:href="#mda26c1e0fb" x="19.52" y="248.806125" style="fill: #de8f05; stroke: #de8f05"/>
    </g>
   </g>
   <g id="text_30">
    <!-- Simulated Annealing -->
    <g style="fill: #262626" transform="translate(35.36 251.886125) scale(0.088 -0.088)">
     <defs>
      <path id="DejaVuSerif-41" d="M 1281 1691 
L 2994 1691 
L 2138 3909 
L 1281 1691 
z
M -38 0 
L -38 331 
L 372 331 
L 2034 4666 
L 2559 4666 
L 4225 331 
L 4684 331 
L 4684 0 
L 2988 0 
L 2988 331 
L 3506 331 
L 3116 1356 
L 1153 1356 
L 763 331 
L 1275 331 
L 1275 0 
L -38 0 
z
" transform="scale(0.015625)"/>
     </defs>
     <use xlink:href="#DejaVuSerif-53"/>
     <use xlink:href="#DejaVuSerif-69" x="68.505859"/>
     <use xlink:href="#DejaVuSerif-6d" x="100.488281"/>
     <use xlink:href="#DejaVuSerif-75" x="195.3125"/>
     <use xlink:href="#DejaVuSerif-6c" x="259.716797"/>
     <use xlink:href="#DejaVuSerif-61" x="291.699219"/>
     <use xlink:href="#DejaVuSerif-74" x="351.318359"/>
     <use xlink:href="#DejaVuSerif-65" x="391.503906"/>
     <use xlink:href="#DejaVuSerif-64" x="450.683594"/>
     <use xlink:href="#DejaVuSerif-20" x="514.697266"/>
     <use xlink:href="#DejaVuSerif-41" x="546.484375"/>
     <use xlink:href="#DejaVuSerif-6e" x="618.701172"/>
     <use xlink:href="#DejaVuSerif-6e" x="683.105469"/>
     <use xlink:href="#DejaVuSerif-65" x="747.509766"/>
     <use xlink:href="#DejaVuSerif-61" x="806.689453"/>
     <use xlink:href="#DejaVuSerif-6c" x="866.308594"/>
     <use xlink:href="#DejaVuSerif-69" x="898.291016"/>
     <use xlink:href="#DejaVuSerif-6e" x="930.273438"/>
     <use xlink:href="#DejaVuSerif-67" x="994.677734"/>
    </g>
   </g>
   <g id="line2d_41">
    <path d="M 147.511875 235.889375 
L 156.311875 235.889375 
L 165.111875 235.889375 
" style="fill: none; stroke: #029e73; stroke-width: 1.2; stroke-linecap: round"/>
    <g>
     <use xlink:href="#m7edb4c557c" x="156.311875" y="235.889375" style="fill: #029e73; stroke: #029e73; stroke-linejoin: miter"/>
    </g>
   </g>
   <g id="text_31">
    <!-- Plant Propagation -->
    <g style="fill: #262626" transform="translate(172.151875 238.969375) scale(0.088 -0.088)">
     <use xlink:href="#DejaVuSerif-50"/>
     <use xlink:href="#DejaVuSerif-6c" x="67.285156"/>
     <use xlink:href="#DejaVuSerif-61" x="99.267578"/>
     <use xlink:href="#DejaVuSerif-6e" x="158.886719"/>
     <use xlink:href="#DejaVuSerif-74" x="223.291016"/>
     <use xlink:href="#DejaVuSerif-20" x="263.476562"/>
     <use xlink:href="#DejaVuSerif-50" x="295.263672"/>
     <use xlink:href="#DejaVuSerif-72" x="362.548828"/>
     <use xlink:href="#DejaVuSerif-6f" x="410.351562"/>
     <use xlink:href="#DejaVuSerif-70" x="470.556641"/>
     <use xlink:href="#DejaVuSerif-61" x="534.570312"/>
     <use xlink:href="#DejaVuSerif-67" x="594.189453"/>
     <use xlink:href="#DejaVuSerif-61" x="658.203125"/>
     <use xlink:href="#DejaVuSerif-74" x="717.822266"/>
     <use xlink:href="#DejaVuSerif-69" x="758.007812"/>
     <use xlink:href="#DejaVuSerif-6f" x="789.990234"/>
     <use xlink:href="#DejaVuSerif-6e" x="850.195312"/>
    </g>
   </g>
   <g id="line2d_42">
    <path d="M 147.511875 248.93125 
L 156.311875 248.93125 
L 165.111875 248.93125 
" style="fill: none; stroke: #d55e00; stroke-width: 1.2; stroke-linecap: round"/>
    <g>
     <use xlink:href="#mfd72bfad73" x="156.311875" y="248.93125" style="fill: #d55e00; stroke: #d55e00; stroke-linejoin: miter"/>
    </g>
   </g>
   <g id="text_32">
    <!-- Genetic Algorithm (No Repair) -->
    <g style="fill: #262626" transform="translate(172.151875 252.01125) scale(0.088 -0.088)">
     <defs>
      <path id="DejaVuSerif-47" d="M 4097 3272 
Q 3988 3856 3641 4136 
Q 3294 4416 2675 4416 
Q 1869 4416 1472 3897 
Q 1075 3378 1075 2328 
Q 1075 1300 1484 772 
Q 1894 244 2688 244 
Q 3041 244 3362 331 
Q 3684 419 3975 594 
L 3975 1797 
L 3097 1797 
L 3097 2131 
L 4609 2131 
L 4609 391 
Q 4194 150 3714 29 
Q 3234 -91 2688 -91 
Q 1631 -91 995 570 
Q 359 1231 359 2328 
Q 359 3434 996 4092 
Q 1634 4750 2713 4750 
Q 3113 4750 3539 4658 
Q 3966 4566 4447 4378 
L 4447 3272 
L 4097 3272 
z
" transform="scale(0.015625)"/>
      <path id="DejaVuSerif-52" d="M 3066 2316 
Q 3284 2256 3442 2114 
Q 3600 1972 3725 1716 
L 4403 331 
L 4972 331 
L 4972 0 
L 3872 0 
L 3144 1484 
Q 2934 1916 2759 2042 
Q 2584 2169 2278 2169 
L 1581 2169 
L 1581 331 
L 2241 331 
L 2241 0 
L 353 0 
L 353 331 
L 947 331 
L 947 4331 
L 353 4331 
L 353 4666 
L 2719 4666 
Q 3400 4666 3770 4341 
Q 4141 4016 4141 3419 
Q 4141 2938 3870 2661 
Q 3600 2384 3066 2316 
z
M 1581 2503 
L 2503 2503 
Q 2975 2503 3200 2726 
Q 3425 2950 3425 3419 
Q 3425 3888 3200 4109 
Q 2975 4331 2503 4331 
L 1581 4331 
L 1581 2503 
z
" transform="scale(0.015625)"/>
      <path id="DejaVuSerif-29" d="M 453 -997 
L 453 -691 
Q 934 -359 1145 242 
Q 1356 844 1356 1931 
Q 1356 3022 1145 3623 
Q 934 4225 453 4556 
L 453 4863 
Q 1216 4522 1603 3783 
Q 1991 3044 1991 1931 
Q 1991 822 1603 83 
Q 1216 -656 453 -997 
z
" transform="scale(0.015625)"/>
     </defs>
     <use xlink:href="#DejaVuSerif-47"/>
     <use xlink:href="#DejaVuSerif-65" x="79.882812"/>
     <use xlink:href="#DejaVuSerif-6e" x="139.0625"/>
     <use xlink:href="#DejaVuSerif-65" x="203.466797"/>
     <use xlink:href="#DejaVuSerif-74" x="262.646484"/>
     <use xlink:href="#DejaVuSerif-69" x="302.832031"/>
     <use xlink:href="#DejaVuSerif-63" x="334.814453"/>
     <use xlink:href="#DejaVuSerif-20" x="390.820312"/>
     <use xlink:href="#DejaVuSerif-41" x="422.607422"/>
     <use xlink:href="#DejaVuSerif-6c" x="494.824219"/>
     <use xlink:href="#DejaVuSerif-67" x="526.806641"/>
     <use xlink:href="#DejaVuSerif-6f" x="590.820312"/>
     <use xlink:href="#DejaVuSerif-72" x="651.025391"/>
     <use xlink:href="#DejaVuSerif-69" x="698.828125"/>
     <use xlink:href="#DejaVuSerif-74" x="730.810547"/>
     <use xlink:href="#DejaVuSerif-68" x="770.996094"/>
     <use xlink:href="#DejaVuSerif-6d" x="835.400391"/>
     <use xlink:href="#DejaVuSerif-20" x="930.224609"/>
     <use xlink:href="#DejaVuSerif-28" x="962.011719"/>
     <use xlink:href="#DejaVuSerif-4e" x="1001.025391"/>
     <use xlink:href="#DejaVuSerif-6f" x="1088.525391"/>
     <use xlink:href="#DejaVuSerif-20" x="1148.730469"/>
     <use xlink:href="#DejaVuSerif-52" x="1180.517578"/>
     <use xlink:href="#DejaVuSerif-65" x="1255.810547"/>
     <use xlink:href="#DejaVuSerif-70" x="1314.990234"/>
     <use xlink:href="#DejaVuSerif-61" x="1379.003906"/>
     <use xlink:href="#DejaVuSerif-69" x="1438.623047"/>
     <use xlink:href="#DejaVuSerif-72" x="1470.605469"/>
     <use xlink:href="#DejaVuSerif-29" x="1518.408203"/>
    </g>
   </g>
   <g id="line2d_43">
    <path d="M 326.80775 235.889375 
L 335.60775 235.889375 
L 344.40775 235.889375 
" style="fill: none; stroke: #cc78bc; stroke-width: 1.2; stroke-linecap: round"/>
    <g>
     <use xlink:href="#mbe313b9aa1" x="335.60775" y="235.889375" style="fill: #cc78bc; stroke: #cc78bc; stroke-linejoin: miter"/>
    </g>
   </g>
   <g id="text_33">
    <!-- Genetic Algorithm (Repair) -->
    <g style="fill: #262626" transform="translate(351.44775 238.969375) scale(0.088 -0.088)">
     <use xlink:href="#DejaVuSerif-47"/>
     <use xlink:href="#DejaVuSerif-65" x="79.882812"/>
     <use xlink:href="#DejaVuSerif-6e" x="139.0625"/>
     <use xlink:href="#DejaVuSerif-65" x="203.466797"/>
     <use xlink:href="#DejaVuSerif-74" x="262.646484"/>
     <use xlink:href="#DejaVuSerif-69" x="302.832031"/>
     <use xlink:href="#DejaVuSerif-63" x="334.814453"/>
     <use xlink:href="#DejaVuSerif-20" x="390.820312"/>
     <use xlink:href="#DejaVuSerif-41" x="422.607422"/>
     <use xlink:href="#DejaVuSerif-6c" x="494.824219"/>
     <use xlink:href="#DejaVuSerif-67" x="526.806641"/>
     <use xlink:href="#DejaVuSerif-6f" x="590.820312"/>
     <use xlink:href="#DejaVuSerif-72" x="651.025391"/>
     <use xlink:href="#DejaVuSerif-69" x="698.828125"/>
     <use xlink:href="#DejaVuSerif-74" x="730.810547"/>
     <use xlink:href="#DejaVuSerif-68" x="770.996094"/>
     <use xlink:href="#DejaVuSerif-6d" x="835.400391"/>
     <use xlink:href="#DejaVuSerif-20" x="930.224609"/>
     <use xlink:href="#DejaVuSerif-28" x="962.011719"/>
     <use xlink:href="#DejaVuSerif-52" x="1001.025391"/>
     <use xlink:href="#DejaVuSerif-65" x="1076.318359"/>
     <use xlink:href="#DejaVuSerif-70" x="1135.498047"/>
     <use xlink:href="#DejaVuSerif-61" x="1199.511719"/>
     <use xlink:href="#DejaVuSerif-69" x="1259.130859"/>
     <use xlink:href="#DejaVuSerif-72" x="1291.113281"/>
     <use xlink:href="#DejaVuSerif-29" x="1338.916016"/>
    </g>
   </g>
   <g id="line2d_44">
    <path d="M 326.80775 248.93125 
L 335.60775 248.93125 
L 344.40775 248.93125 
" style="fill: none; stroke: #ca9161; stroke-width: 1.2; stroke-linecap: round"/>
    <g>
     <use xlink:href="#m12112916e4" x="335.60775" y="248.93125" style="fill: #ca9161; stroke: #ca9161; stroke-linejoin: miter"/>
    </g>
   </g>
   <g id="text_34">
    <!-- Particle Swarm -->
    <g style="fill: #262626" transform="translate(351.44775 252.01125) scale(0.088 -0.088)">
     <defs>
      <path id="DejaVuSerif-77" d="M 3072 3322 
L 3922 728 
L 4672 2988 
L 4191 2988 
L 4191 3322 
L 5394 3322 
L 5394 2988 
L 5025 2988 
L 4038 0 
L 3559 0 
L 2741 2484 
L 1919 0 
L 1459 0 
L 475 2988 
L 103 2988 
L 103 3322 
L 1606 3322 
L 1606 2988 
L 1069 2988 
L 1813 728 
L 2669 3322 
L 3072 3322 
z
" transform="scale(0.015625)"/>
     </defs>
     <use xlink:href="#DejaVuSerif-50"/>
     <use xlink:href="#DejaVuSerif-61" x="62.785156"/>
     <use xlink:href="#DejaVuSerif-72" x="122.404297"/>
     <use xlink:href="#DejaVuSerif-74" x="170.207031"/>
     <use xlink:href="#DejaVuSerif-69" x="210.392578"/>
     <use xlink:href="#DejaVuSerif-63" x="242.375"/>
     <use xlink:href="#DejaVuSerif-6c" x="298.380859"/>
     <use xlink:href="#DejaVuSerif-65" x="330.363281"/>
     <use xlink:href="#DejaVuSerif-20" x="389.542969"/>
     <use xlink:href="#DejaVuSerif-53" x="421.330078"/>
     <use xlink:href="#DejaVuSerif-77" x="489.835938"/>
     <use xlink:href="#DejaVuSerif-61" x="575.431641"/>
     <use xlink:href="#DejaVuSerif-72" x="635.050781"/>
     <use xlink:href="#DejaVuSerif-6d" x="682.853516"/>
    </g>
   </g>
  </g>
 </g>
 <defs>
  <clipPath id="p998b3c31fa">
   <rect x="65.7525" y="20.4945" width="154.216512" height="165.444"/>
  </clipPath>
  <clipPath id="pd1193dd07d">
   <rect x="291.8685" y="20.4945" width="154.216512" height="165.444"/>
  </clipPath>
 </defs>
</svg>
