<?xml version="1.0" encoding="utf-8" standalone="no"?>
<!DOCTYPE svg PUBLIC "-//W3C//DTD SVG 1.1//EN"
  "http://www.w3.org/Graphics/SVG/1.1/DTD/svg11.dtd">
<svg xmlns:xlink="http://www.w3.org/1999/xlink" width="460.8pt" height="172.8pt" viewBox="0 0 460.8 172.8" xmlns="http://www.w3.org/2000/svg" version="1.1">
 <metadata>
  <rdf:RDF xmlns:dc="http://purl.org/dc/elements/1.1/" xmlns:cc="http://creativecommons.org/ns#" xmlns:rdf="http://www.w3.org/1999/02/22-rdf-syntax-ns#">
   <cc:Work>
    <dc:type rdf:resource="http://purl.org/dc/dcmitype/StillImage"/>
    <dc:date>2023-09-24T14:36:09.120159</dc:date>
    <dc:format>image/svg+xml</dc:format>
    <dc:creator>
     <cc:Agent>
      <dc:title>Matplotlib v3.6.3, https://matplotlib.org/</dc:title>
     </cc:Agent>
    </dc:creator>
   </cc:Work>
  </rdf:RDF>
 </metadata>
 <defs>
  <style type="text/css">*{stroke-linejoin: round; stroke-linecap: butt}</style>
 </defs>
 <g id="figure_1">
  <g id="patch_1">
   <path d="M 0 172.8 
L 460.8 172.8 
L 460.8 0 
L 0 0 
z
" style="fill: #ffffff"/>
  </g>
  <g id="axes_1">
   <g id="patch_2">
    <path d="M 59.028 130.692 
L 409.242 130.692 
L 409.242 25.008 
L 59.028 25.008 
z
" style="fill: #ffffff"/>
   </g>
   <g id="matplotlib.axis_1">
    <g id="xtick_1">
     <g id="text_1">
      <!-- (0, 50] -->
      <g style="fill: #262626" transform="translate(73.583875 145.678625) scale(0.088 -0.088)">
       <defs>
        <path id="DejaVuSerif-28" d="M 2041 -997 
Q 1281 -656 893 83 
Q 506 822 506 1931 
Q 506 3044 893 3783 
Q 1281 4522 2041 4863 
L 2041 4556 
Q 1559 4225 1350 3623 
Q 1141 3022 1141 1931 
Q 1141 844 1350 242 
Q 1559 -359 2041 -691 
L 2041 -997 
z
" transform="scale(0.015625)"/>
        <path id="DejaVuSerif-30" d="M 2034 219 
Q 2513 219 2750 744 
Q 2988 1269 2988 2328 
Q 2988 3391 2750 3916 
Q 2513 4441 2034 4441 
Q 1556 4441 1318 3916 
Q 1081 3391 1081 2328 
Q 1081 1269 1318 744 
Q 1556 219 2034 219 
z
M 2034 -91 
Q 1275 -91 848 546 
Q 422 1184 422 2328 
Q 422 3475 848 4112 
Q 1275 4750 2034 4750 
Q 2797 4750 3222 4112 
Q 3647 3475 3647 2328 
Q 3647 1184 3222 546 
Q 2797 -91 2034 -91 
z
" transform="scale(0.015625)"/>
        <path id="DejaVuSerif-2c" d="M 231 -622 
Q 525 -406 662 -114 
Q 800 178 800 594 
L 800 709 
L 1416 709 
Q 1391 175 1164 -208 
Q 938 -591 481 -872 
L 231 -622 
z
" transform="scale(0.015625)"/>
        <path id="DejaVuSerif-20" transform="scale(0.015625)"/>
        <path id="DejaVuSerif-35" d="M 3219 4666 
L 3219 4153 
L 1081 4153 
L 1081 2816 
Q 1244 2928 1461 2984 
Q 1678 3041 1947 3041 
Q 2703 3041 3140 2622 
Q 3578 2203 3578 1478 
Q 3578 738 3136 323 
Q 2694 -91 1894 -91 
Q 1572 -91 1234 -12 
Q 897 66 544 225 
L 544 1131 
L 897 1131 
Q 925 688 1179 453 
Q 1434 219 1894 219 
Q 2388 219 2653 544 
Q 2919 869 2919 1478 
Q 2919 2084 2655 2407 
Q 2391 2731 1894 2731 
Q 1613 2731 1398 2631 
Q 1184 2531 1019 2322 
L 750 2322 
L 750 4666 
L 3219 4666 
z
" transform="scale(0.015625)"/>
        <path id="DejaVuSerif-5d" d="M 1947 4863 
L 1947 -844 
L 494 -844 
L 494 -513 
L 1350 -513 
L 1350 4531 
L 494 4531 
L 494 4863 
L 1947 4863 
z
" transform="scale(0.015625)"/>
       </defs>
       <use xlink:href="#DejaVuSerif-28"/>
       <use xlink:href="#DejaVuSerif-30" x="39.013672"/>
       <use xlink:href="#DejaVuSerif-2c" x="102.636719"/>
       <use xlink:href="#DejaVuSerif-20" x="134.423828"/>
       <use xlink:href="#DejaVuSerif-35" x="166.210938"/>
       <use xlink:href="#DejaVuSerif-30" x="229.833984"/>
       <use xlink:href="#DejaVuSerif-5d" x="293.457031"/>
      </g>
     </g>
    </g>
    <g id="xtick_2">
     <g id="text_2">
      <!-- (50, 100] -->
      <g style="fill: #262626" transform="translate(126.353875 145.678625) scale(0.088 -0.088)">
       <defs>
        <path id="DejaVuSerif-31" d="M 909 0 
L 909 331 
L 1722 331 
L 1722 4213 
L 781 3603 
L 781 4013 
L 1919 4750 
L 2350 4750 
L 2350 331 
L 3163 331 
L 3163 0 
L 909 0 
z
" transform="scale(0.015625)"/>
       </defs>
       <use xlink:href="#DejaVuSerif-28"/>
       <use xlink:href="#DejaVuSerif-35" x="39.013672"/>
       <use xlink:href="#DejaVuSerif-30" x="102.636719"/>
       <use xlink:href="#DejaVuSerif-2c" x="166.259766"/>
       <use xlink:href="#DejaVuSerif-20" x="198.046875"/>
       <use xlink:href="#DejaVuSerif-31" x="229.833984"/>
       <use xlink:href="#DejaVuSerif-30" x="293.457031"/>
       <use xlink:href="#DejaVuSerif-30" x="357.080078"/>
       <use xlink:href="#DejaVuSerif-5d" x="420.703125"/>
      </g>
     </g>
    </g>
    <g id="xtick_3">
     <g id="text_3">
      <!-- (100, 150] -->
      <g style="fill: #262626" transform="translate(181.923375 145.678625) scale(0.088 -0.088)">
       <use xlink:href="#DejaVuSerif-28"/>
       <use xlink:href="#DejaVuSerif-31" x="39.013672"/>
       <use xlink:href="#DejaVuSerif-30" x="102.636719"/>
       <use xlink:href="#DejaVuSerif-30" x="166.259766"/>
       <use xlink:href="#DejaVuSerif-2c" x="229.882812"/>
       <use xlink:href="#DejaVuSerif-20" x="261.669922"/>
       <use xlink:href="#DejaVuSerif-31" x="293.457031"/>
       <use xlink:href="#DejaVuSerif-35" x="357.080078"/>
       <use xlink:href="#DejaVuSerif-30" x="420.703125"/>
       <use xlink:href="#DejaVuSerif-5d" x="484.326172"/>
      </g>
     </g>
    </g>
    <g id="xtick_4">
     <g id="text_4">
      <!-- (150, 200] -->
      <g style="fill: #262626" transform="translate(240.292375 145.678625) scale(0.088 -0.088)">
       <defs>
        <path id="DejaVuSerif-32" d="M 819 3553 
L 469 3553 
L 469 4384 
Q 803 4563 1142 4656 
Q 1481 4750 1806 4750 
Q 2534 4750 2956 4397 
Q 3378 4044 3378 3438 
Q 3378 2753 2422 1800 
Q 2347 1728 2309 1691 
L 1131 513 
L 3078 513 
L 3078 1088 
L 3444 1088 
L 3444 0 
L 434 0 
L 434 341 
L 1850 1753 
Q 2319 2222 2519 2614 
Q 2719 3006 2719 3438 
Q 2719 3909 2473 4175 
Q 2228 4441 1797 4441 
Q 1350 4441 1106 4219 
Q 863 3997 819 3553 
z
" transform="scale(0.015625)"/>
       </defs>
       <use xlink:href="#DejaVuSerif-28"/>
       <use xlink:href="#DejaVuSerif-31" x="39.013672"/>
       <use xlink:href="#DejaVuSerif-35" x="102.636719"/>
       <use xlink:href="#DejaVuSerif-30" x="166.259766"/>
       <use xlink:href="#DejaVuSerif-2c" x="229.882812"/>
       <use xlink:href="#DejaVuSerif-20" x="261.669922"/>
       <use xlink:href="#DejaVuSerif-32" x="293.457031"/>
       <use xlink:href="#DejaVuSerif-30" x="357.080078"/>
       <use xlink:href="#DejaVuSerif-30" x="420.703125"/>
       <use xlink:href="#DejaVuSerif-5d" x="484.326172"/>
      </g>
     </g>
    </g>
    <g id="xtick_5">
     <g id="text_5">
      <!-- (200, 250] -->
      <g style="fill: #262626" transform="translate(298.661375 145.678625) scale(0.088 -0.088)">
       <use xlink:href="#DejaVuSerif-28"/>
       <use xlink:href="#DejaVuSerif-32" x="39.013672"/>
       <use xlink:href="#DejaVuSerif-30" x="102.636719"/>
       <use xlink:href="#DejaVuSerif-30" x="166.259766"/>
       <use xlink:href="#DejaVuSerif-2c" x="229.882812"/>
       <use xlink:href="#DejaVuSerif-20" x="261.669922"/>
       <use xlink:href="#DejaVuSerif-32" x="293.457031"/>
       <use xlink:href="#DejaVuSerif-35" x="357.080078"/>
       <use xlink:href="#DejaVuSerif-30" x="420.703125"/>
       <use xlink:href="#DejaVuSerif-5d" x="484.326172"/>
      </g>
     </g>
    </g>
    <g id="xtick_6">
     <g id="text_6">
      <!-- (250, 300] -->
      <g style="fill: #262626" transform="translate(357.030375 145.678625) scale(0.088 -0.088)">
       <defs>
        <path id="DejaVuSerif-33" d="M 622 4469 
Q 988 4606 1323 4678 
Q 1659 4750 1953 4750 
Q 2638 4750 3022 4454 
Q 3406 4159 3406 3634 
Q 3406 3213 3140 2930 
Q 2875 2647 2388 2547 
Q 2963 2466 3280 2130 
Q 3597 1794 3597 1259 
Q 3597 606 3158 257 
Q 2719 -91 1894 -91 
Q 1528 -91 1179 -12 
Q 831 66 488 225 
L 488 1131 
L 838 1131 
Q 869 681 1141 450 
Q 1413 219 1906 219 
Q 2384 219 2661 495 
Q 2938 772 2938 1253 
Q 2938 1803 2653 2086 
Q 2369 2369 1819 2369 
L 1522 2369 
L 1522 2688 
L 1678 2688 
Q 2225 2688 2498 2914 
Q 2772 3141 2772 3597 
Q 2772 4006 2547 4223 
Q 2322 4441 1900 4441 
Q 1478 4441 1245 4241 
Q 1013 4041 972 3647 
L 622 3647 
L 622 4469 
z
" transform="scale(0.015625)"/>
       </defs>
       <use xlink:href="#DejaVuSerif-28"/>
       <use xlink:href="#DejaVuSerif-32" x="39.013672"/>
       <use xlink:href="#DejaVuSerif-35" x="102.636719"/>
       <use xlink:href="#DejaVuSerif-30" x="166.259766"/>
       <use xlink:href="#DejaVuSerif-2c" x="229.882812"/>
       <use xlink:href="#DejaVuSerif-20" x="261.669922"/>
       <use xlink:href="#DejaVuSerif-33" x="293.457031"/>
       <use xlink:href="#DejaVuSerif-30" x="357.080078"/>
       <use xlink:href="#DejaVuSerif-30" x="420.703125"/>
       <use xlink:href="#DejaVuSerif-5d" x="484.326172"/>
      </g>
     </g>
    </g>
    <g id="text_7">
     <!-- $\lambda$ -->
     <g style="fill: #262626" transform="translate(231.255 158.80325) scale(0.096 -0.096)">
      <defs>
       <path id="DejaVuSans-Oblique-3bb" d="M 2350 4316 
L 3125 0 
L 2516 0 
L 2038 2588 
L 328 0 
L -281 0 
L 1903 3356 
L 1794 3975 
Q 1725 4369 1391 4369 
L 1091 4369 
L 1184 4863 
L 1550 4856 
Q 2253 4847 2350 4316 
z
" transform="scale(0.015625)"/>
      </defs>
      <use xlink:href="#DejaVuSans-Oblique-3bb" transform="translate(0 0.015625)"/>
     </g>
    </g>
   </g>
   <g id="matplotlib.axis_2">
    <g id="ytick_1">
     <g id="line2d_1">
      <path d="M 59.028 120.041893 
L 409.242 120.041893 
" clip-path="url(#p6144394aa1)" style="fill: none; stroke: #cccccc; stroke-width: 0.8; stroke-linecap: round"/>
     </g>
     <g id="line2d_2">
      <defs>
       <path id="m0d5cd572a0" d="M 0 0 
L -4.8 0 
" style="stroke: #262626"/>
      </defs>
      <g>
       <use xlink:href="#m0d5cd572a0" x="59.028" y="120.041893" style="fill: #262626; stroke: #262626"/>
      </g>
     </g>
     <g id="text_8">
      <!-- −40% -->
      <g style="fill: #262626" transform="translate(23.7945 123.385205) scale(0.088 -0.088)">
       <defs>
        <path id="DejaVuSerif-2212" d="M 678 2259 
L 4684 2259 
L 4684 1753 
L 678 1753 
L 678 2259 
z
" transform="scale(0.015625)"/>
        <path id="DejaVuSerif-34" d="M 2234 1581 
L 2234 4063 
L 641 1581 
L 2234 1581 
z
M 3609 0 
L 1484 0 
L 1484 331 
L 2234 331 
L 2234 1247 
L 197 1247 
L 197 1588 
L 2241 4750 
L 2859 4750 
L 2859 1581 
L 3750 1581 
L 3750 1247 
L 2859 1247 
L 2859 331 
L 3609 331 
L 3609 0 
z
" transform="scale(0.015625)"/>
        <path id="DejaVuSerif-25" d="M 1434 4459 
Q 1159 4459 1004 4200 
Q 850 3941 850 3475 
Q 850 3016 1008 2753 
Q 1166 2491 1434 2491 
Q 1700 2491 1854 2752 
Q 2009 3013 2009 3475 
Q 2009 3938 1854 4198 
Q 1700 4459 1434 4459 
z
M 4653 2169 
Q 4381 2169 4226 1906 
Q 4072 1644 4072 1178 
Q 4072 719 4228 458 
Q 4384 197 4653 197 
Q 4922 197 5075 458 
Q 5228 719 5228 1178 
Q 5228 1641 5073 1905 
Q 4919 2169 4653 2169 
z
M 4653 2450 
Q 5147 2450 5437 2106 
Q 5728 1763 5728 1178 
Q 5728 594 5436 251 
Q 5144 -91 4653 -91 
Q 4153 -91 3862 251 
Q 3572 594 3572 1178 
Q 3572 1766 3864 2108 
Q 4156 2450 4653 2450 
z
M 4263 4750 
L 4738 4750 
L 1819 -91 
L 1344 -91 
L 4263 4750 
z
M 1428 4750 
Q 1922 4750 2215 4408 
Q 2509 4066 2509 3481 
Q 2509 2891 2217 2550 
Q 1925 2209 1428 2209 
Q 931 2209 642 2551 
Q 353 2894 353 3481 
Q 353 4063 643 4406 
Q 934 4750 1428 4750 
z
" transform="scale(0.015625)"/>
       </defs>
       <use xlink:href="#DejaVuSerif-2212"/>
       <use xlink:href="#DejaVuSerif-34" x="83.789062"/>
       <use xlink:href="#DejaVuSerif-30" x="147.412109"/>
       <use xlink:href="#DejaVuSerif-25" x="211.035156"/>
      </g>
     </g>
    </g>
    <g id="ytick_2">
     <g id="line2d_3">
      <path d="M 59.028 89.348876 
L 409.242 89.348876 
" clip-path="url(#p6144394aa1)" style="fill: none; stroke: #cccccc; stroke-width: 0.8; stroke-linecap: round"/>
     </g>
     <g id="line2d_4">
      <g>
       <use xlink:href="#m0d5cd572a0" x="59.028" y="89.348876" style="fill: #262626; stroke: #262626"/>
      </g>
     </g>
     <g id="text_9">
      <!-- −35% -->
      <g style="fill: #262626" transform="translate(23.7945 92.692188) scale(0.088 -0.088)">
       <use xlink:href="#DejaVuSerif-2212"/>
       <use xlink:href="#DejaVuSerif-33" x="83.789062"/>
       <use xlink:href="#DejaVuSerif-35" x="147.412109"/>
       <use xlink:href="#DejaVuSerif-25" x="211.035156"/>
      </g>
     </g>
    </g>
    <g id="ytick_3">
     <g id="line2d_5">
      <path d="M 59.028 58.655858 
L 409.242 58.655858 
" clip-path="url(#p6144394aa1)" style="fill: none; stroke: #cccccc; stroke-width: 0.8; stroke-linecap: round"/>
     </g>
     <g id="line2d_6">
      <g>
       <use xlink:href="#m0d5cd572a0" x="59.028" y="58.655858" style="fill: #262626; stroke: #262626"/>
      </g>
     </g>
     <g id="text_10">
      <!-- −30% -->
      <g style="fill: #262626" transform="translate(23.7945 61.999171) scale(0.088 -0.088)">
       <use xlink:href="#DejaVuSerif-2212"/>
       <use xlink:href="#DejaVuSerif-33" x="83.789062"/>
       <use xlink:href="#DejaVuSerif-30" x="147.412109"/>
       <use xlink:href="#DejaVuSerif-25" x="211.035156"/>
      </g>
     </g>
    </g>
    <g id="ytick_4">
     <g id="line2d_7">
      <path d="M 59.028 27.962841 
L 409.242 27.962841 
" clip-path="url(#p6144394aa1)" style="fill: none; stroke: #cccccc; stroke-width: 0.8; stroke-linecap: round"/>
     </g>
     <g id="line2d_8">
      <g>
       <use xlink:href="#m0d5cd572a0" x="59.028" y="27.962841" style="fill: #262626; stroke: #262626"/>
      </g>
     </g>
     <g id="text_11">
      <!-- −25% -->
      <g style="fill: #262626" transform="translate(23.7945 31.306154) scale(0.088 -0.088)">
       <use xlink:href="#DejaVuSerif-2212"/>
       <use xlink:href="#DejaVuSerif-32" x="83.789062"/>
       <use xlink:href="#DejaVuSerif-35" x="147.412109"/>
       <use xlink:href="#DejaVuSerif-25" x="211.035156"/>
      </g>
     </g>
    </g>
    <g id="text_12">
     <!-- Makespan improvement -->
     <g style="fill: #262626" transform="translate(17.798 136.701) rotate(-90) scale(0.096 -0.096)">
      <defs>
       <path id="DejaVuSerif-4d" d="M 353 0 
L 353 331 
L 947 331 
L 947 4331 
L 319 4331 
L 319 4666 
L 1678 4666 
L 3316 1344 
L 4953 4666 
L 6228 4666 
L 6228 4331 
L 5606 4331 
L 5606 331 
L 6203 331 
L 6203 0 
L 4378 0 
L 4378 331 
L 4972 331 
L 4972 3938 
L 3372 684 
L 2931 684 
L 1331 3938 
L 1331 331 
L 1925 331 
L 1925 0 
L 353 0 
z
" transform="scale(0.015625)"/>
       <path id="DejaVuSerif-61" d="M 2547 1044 
L 2547 1747 
L 1806 1747 
Q 1378 1747 1168 1562 
Q 959 1378 959 997 
Q 959 650 1171 447 
Q 1384 244 1747 244 
Q 2106 244 2326 466 
Q 2547 688 2547 1044 
z
M 3122 2075 
L 3122 331 
L 3634 331 
L 3634 0 
L 2547 0 
L 2547 359 
Q 2356 128 2106 18 
Q 1856 -91 1522 -91 
Q 969 -91 644 203 
Q 319 497 319 997 
Q 319 1513 691 1797 
Q 1063 2081 1741 2081 
L 2547 2081 
L 2547 2309 
Q 2547 2688 2317 2895 
Q 2088 3103 1672 3103 
Q 1328 3103 1125 2947 
Q 922 2791 872 2484 
L 575 2484 
L 575 3156 
Q 875 3284 1158 3348 
Q 1441 3413 1709 3413 
Q 2400 3413 2761 3070 
Q 3122 2728 3122 2075 
z
" transform="scale(0.015625)"/>
       <path id="DejaVuSerif-6b" d="M 1831 0 
L 219 0 
L 219 331 
L 738 331 
L 738 4531 
L 184 4531 
L 184 4863 
L 1313 4863 
L 1313 1697 
L 2713 2988 
L 2234 2988 
L 2234 3322 
L 3738 3322 
L 3738 2988 
L 3169 2988 
L 2181 2075 
L 3444 331 
L 3922 331 
L 3922 0 
L 2284 0 
L 2284 331 
L 2759 331 
L 1766 1697 
L 1313 1275 
L 1313 331 
L 1831 331 
L 1831 0 
z
" transform="scale(0.015625)"/>
       <path id="DejaVuSerif-65" d="M 3469 1600 
L 991 1600 
L 991 1575 
Q 991 903 1244 561 
Q 1497 219 1991 219 
Q 2369 219 2611 417 
Q 2853 616 2950 1006 
L 3413 1006 
Q 3275 459 2904 184 
Q 2534 -91 1931 -91 
Q 1203 -91 761 389 
Q 319 869 319 1663 
Q 319 2450 753 2931 
Q 1188 3413 1894 3413 
Q 2647 3413 3050 2948 
Q 3453 2484 3469 1600 
z
M 2791 1931 
Q 2772 2513 2545 2808 
Q 2319 3103 1894 3103 
Q 1497 3103 1269 2806 
Q 1041 2509 991 1931 
L 2791 1931 
z
" transform="scale(0.015625)"/>
       <path id="DejaVuSerif-73" d="M 359 184 
L 359 959 
L 691 959 
Q 703 588 923 403 
Q 1144 219 1575 219 
Q 1963 219 2166 364 
Q 2369 509 2369 788 
Q 2369 1006 2220 1140 
Q 2072 1275 1594 1428 
L 1178 1569 
Q 750 1706 558 1912 
Q 366 2119 366 2438 
Q 366 2894 700 3153 
Q 1034 3413 1625 3413 
Q 1888 3413 2178 3344 
Q 2469 3275 2778 3144 
L 2778 2419 
L 2447 2419 
Q 2434 2741 2221 2922 
Q 2009 3103 1644 3103 
Q 1281 3103 1095 2975 
Q 909 2847 909 2591 
Q 909 2381 1050 2254 
Q 1191 2128 1613 1997 
L 2069 1856 
Q 2541 1709 2748 1489 
Q 2956 1269 2956 922 
Q 2956 450 2595 179 
Q 2234 -91 1600 -91 
Q 1278 -91 972 -22 
Q 666 47 359 184 
z
" transform="scale(0.015625)"/>
       <path id="DejaVuSerif-70" d="M 1313 1825 
L 1313 1497 
Q 1313 897 1542 583 
Q 1772 269 2209 269 
Q 2650 269 2876 622 
Q 3103 975 3103 1663 
Q 3103 2353 2876 2703 
Q 2650 3053 2209 3053 
Q 1772 3053 1542 2737 
Q 1313 2422 1313 1825 
z
M 738 2988 
L 184 2988 
L 184 3322 
L 1313 3322 
L 1313 2803 
Q 1481 3116 1742 3264 
Q 2003 3413 2388 3413 
Q 3000 3413 3387 2928 
Q 3775 2444 3775 1663 
Q 3775 881 3387 395 
Q 3000 -91 2388 -91 
Q 2003 -91 1742 57 
Q 1481 206 1313 519 
L 1313 -997 
L 1856 -997 
L 1856 -1331 
L 184 -1331 
L 184 -997 
L 738 -997 
L 738 2988 
z
" transform="scale(0.015625)"/>
       <path id="DejaVuSerif-6e" d="M 263 0 
L 263 331 
L 781 331 
L 781 2988 
L 231 2988 
L 231 3322 
L 1356 3322 
L 1356 2731 
Q 1516 3069 1770 3241 
Q 2025 3413 2363 3413 
Q 2913 3413 3172 3097 
Q 3431 2781 3431 2113 
L 3431 331 
L 3944 331 
L 3944 0 
L 2356 0 
L 2356 331 
L 2853 331 
L 2853 1931 
Q 2853 2541 2703 2767 
Q 2553 2994 2175 2994 
Q 1775 2994 1565 2701 
Q 1356 2409 1356 1850 
L 1356 331 
L 1856 331 
L 1856 0 
L 263 0 
z
" transform="scale(0.015625)"/>
       <path id="DejaVuSerif-69" d="M 622 4353 
Q 622 4497 726 4603 
Q 831 4709 978 4709 
Q 1122 4709 1226 4603 
Q 1331 4497 1331 4353 
Q 1331 4206 1228 4103 
Q 1125 4000 978 4000 
Q 831 4000 726 4103 
Q 622 4206 622 4353 
z
M 1356 331 
L 1900 331 
L 1900 0 
L 231 0 
L 231 331 
L 781 331 
L 781 2988 
L 231 2988 
L 231 3322 
L 1356 3322 
L 1356 331 
z
" transform="scale(0.015625)"/>
       <path id="DejaVuSerif-6d" d="M 3316 2675 
Q 3481 3041 3739 3227 
Q 3997 3413 4341 3413 
Q 4863 3413 5119 3089 
Q 5375 2766 5375 2113 
L 5375 331 
L 5894 331 
L 5894 0 
L 4300 0 
L 4300 331 
L 4800 331 
L 4800 2047 
Q 4800 2556 4650 2772 
Q 4500 2988 4153 2988 
Q 3769 2988 3567 2697 
Q 3366 2406 3366 1850 
L 3366 331 
L 3866 331 
L 3866 0 
L 2291 0 
L 2291 331 
L 2791 331 
L 2791 2069 
Q 2791 2566 2641 2777 
Q 2491 2988 2144 2988 
Q 1759 2988 1557 2697 
Q 1356 2406 1356 1850 
L 1356 331 
L 1856 331 
L 1856 0 
L 263 0 
L 263 331 
L 781 331 
L 781 2994 
L 231 2994 
L 231 3322 
L 1356 3322 
L 1356 2731 
Q 1516 3063 1762 3238 
Q 2009 3413 2322 3413 
Q 2709 3413 2968 3220 
Q 3228 3028 3316 2675 
z
" transform="scale(0.015625)"/>
       <path id="DejaVuSerif-72" d="M 3059 3328 
L 3059 2497 
L 2728 2497 
Q 2713 2744 2591 2866 
Q 2469 2988 2234 2988 
Q 1809 2988 1582 2694 
Q 1356 2400 1356 1850 
L 1356 331 
L 2022 331 
L 2022 0 
L 263 0 
L 263 331 
L 781 331 
L 781 2994 
L 231 2994 
L 231 3322 
L 1356 3322 
L 1356 2731 
Q 1525 3078 1790 3245 
Q 2056 3413 2438 3413 
Q 2578 3413 2733 3391 
Q 2888 3369 3059 3328 
z
" transform="scale(0.015625)"/>
       <path id="DejaVuSerif-6f" d="M 1925 219 
Q 2388 219 2623 584 
Q 2859 950 2859 1663 
Q 2859 2375 2623 2739 
Q 2388 3103 1925 3103 
Q 1463 3103 1227 2739 
Q 991 2375 991 1663 
Q 991 950 1228 584 
Q 1466 219 1925 219 
z
M 1925 -91 
Q 1200 -91 759 389 
Q 319 869 319 1663 
Q 319 2456 758 2934 
Q 1197 3413 1925 3413 
Q 2653 3413 3092 2934 
Q 3531 2456 3531 1663 
Q 3531 869 3092 389 
Q 2653 -91 1925 -91 
z
" transform="scale(0.015625)"/>
       <path id="DejaVuSerif-76" d="M 1581 0 
L 359 2988 
L -19 2988 
L -19 3322 
L 1509 3322 
L 1509 2988 
L 978 2988 
L 1913 703 
L 2847 2988 
L 2350 2988 
L 2350 3322 
L 3597 3322 
L 3597 2988 
L 3225 2988 
L 2003 0 
L 1581 0 
z
" transform="scale(0.015625)"/>
       <path id="DejaVuSerif-74" d="M 691 2988 
L 184 2988 
L 184 3322 
L 691 3322 
L 691 4353 
L 1269 4353 
L 1269 3322 
L 2350 3322 
L 2350 2988 
L 1269 2988 
L 1269 878 
Q 1269 456 1350 337 
Q 1431 219 1650 219 
Q 1875 219 1978 351 
Q 2081 484 2088 781 
L 2522 781 
Q 2497 328 2275 118 
Q 2053 -91 1600 -91 
Q 1103 -91 897 129 
Q 691 350 691 878 
L 691 2988 
z
" transform="scale(0.015625)"/>
      </defs>
      <use xlink:href="#DejaVuSerif-4d"/>
      <use xlink:href="#DejaVuSerif-61" x="102.392578"/>
      <use xlink:href="#DejaVuSerif-6b" x="162.011719"/>
      <use xlink:href="#DejaVuSerif-65" x="222.607422"/>
      <use xlink:href="#DejaVuSerif-73" x="281.787109"/>
      <use xlink:href="#DejaVuSerif-70" x="333.105469"/>
      <use xlink:href="#DejaVuSerif-61" x="397.119141"/>
      <use xlink:href="#DejaVuSerif-6e" x="456.738281"/>
      <use xlink:href="#DejaVuSerif-20" x="521.142578"/>
      <use xlink:href="#DejaVuSerif-69" x="552.929688"/>
      <use xlink:href="#DejaVuSerif-6d" x="584.912109"/>
      <use xlink:href="#DejaVuSerif-70" x="679.736328"/>
      <use xlink:href="#DejaVuSerif-72" x="743.75"/>
      <use xlink:href="#DejaVuSerif-6f" x="791.552734"/>
      <use xlink:href="#DejaVuSerif-76" x="851.757812"/>
      <use xlink:href="#DejaVuSerif-65" x="908.251953"/>
      <use xlink:href="#DejaVuSerif-6d" x="967.431641"/>
      <use xlink:href="#DejaVuSerif-65" x="1062.255859"/>
      <use xlink:href="#DejaVuSerif-6e" x="1121.435547"/>
      <use xlink:href="#DejaVuSerif-74" x="1185.839844"/>
     </g>
    </g>
   </g>
   <g id="PathCollection_1">
    <defs>
     <path id="C0_0_7d6528d7ab" d="M 0 2.030369 
C 0.53846 2.030369 1.054939 1.816436 1.435688 1.435688 
C 1.816436 1.054939 2.030369 0.53846 2.030369 -0 
C 2.030369 -0.53846 1.816436 -1.054939 1.435688 -1.435688 
C 1.054939 -1.816436 0.53846 -2.030369 0 -2.030369 
C -0.53846 -2.030369 -1.054939 -1.816436 -1.435688 -1.435688 
C -1.816436 -1.054939 -2.030369 -0.53846 -2.030369 0 
C -2.030369 0.53846 -1.816436 1.054939 -1.435688 1.435688 
C -1.054939 1.816436 -0.53846 2.030369 0 2.030369 
z
"/>
    </defs>
    <g clip-path="url(#p6144394aa1)">
     <use xlink:href="#C0_0_7d6528d7ab" x="88.2125" y="58.655858" style="fill: #4c72b0; stroke: #4c72b0; stroke-width: 2.43"/>
    </g>
    <g clip-path="url(#p6144394aa1)">
     <use xlink:href="#C0_0_7d6528d7ab" x="146.5815" y="72.185172" style="fill: #4c72b0; stroke: #4c72b0; stroke-width: 2.43"/>
    </g>
    <g clip-path="url(#p6144394aa1)">
     <use xlink:href="#C0_0_7d6528d7ab" x="204.9505" y="90.810448" style="fill: #4c72b0; stroke: #4c72b0; stroke-width: 2.43"/>
    </g>
    <g clip-path="url(#p6144394aa1)">
     <use xlink:href="#C0_0_7d6528d7ab" x="263.3195" y="49.534239" style="fill: #4c72b0; stroke: #4c72b0; stroke-width: 2.43"/>
    </g>
    <g clip-path="url(#p6144394aa1)">
     <use xlink:href="#C0_0_7d6528d7ab" x="321.6885" y="93.733592" style="fill: #4c72b0; stroke: #4c72b0; stroke-width: 2.43"/>
    </g>
    <g clip-path="url(#p6144394aa1)">
     <use xlink:href="#C0_0_7d6528d7ab" x="380.0575" y="102.81622" style="fill: #4c72b0; stroke: #4c72b0; stroke-width: 2.43"/>
    </g>
   </g>
   <g id="line2d_9">
    <path d="M 88.2125 58.655858 
L 146.5815 72.185172 
L 204.9505 90.810448 
L 263.3195 49.534239 
L 321.6885 93.733592 
L 380.0575 102.81622 
" clip-path="url(#p6144394aa1)" style="fill: none; stroke-dasharray: 11.988,5.184; stroke-dashoffset: 0; stroke: #4c72b0; stroke-width: 3.24"/>
   </g>
   <g id="line2d_10">
    <path d="M 88.2125 84.964159 
L 88.2125 34.226722 
" clip-path="url(#p6144394aa1)" style="fill: none; stroke: #4c72b0; stroke-width: 2.16; stroke-linecap: round"/>
   </g>
   <g id="line2d_11">
    <path d="M 86.753275 84.964159 
L 89.671725 84.964159 
" clip-path="url(#p6144394aa1)" style="fill: none; stroke: #4c72b0; stroke-width: 2.16; stroke-linecap: round"/>
   </g>
   <g id="line2d_12">
    <path d="M 86.753275 34.226722 
L 89.671725 34.226722 
" clip-path="url(#p6144394aa1)" style="fill: none; stroke: #4c72b0; stroke-width: 2.16; stroke-linecap: round"/>
   </g>
   <g id="line2d_13">
    <path d="M 146.5815 96.761135 
L 146.5815 48.301588 
" clip-path="url(#p6144394aa1)" style="fill: none; stroke: #4c72b0; stroke-width: 2.16; stroke-linecap: round"/>
   </g>
   <g id="line2d_14">
    <path d="M 145.122275 96.761135 
L 148.040725 96.761135 
" clip-path="url(#p6144394aa1)" style="fill: none; stroke: #4c72b0; stroke-width: 2.16; stroke-linecap: round"/>
   </g>
   <g id="line2d_15">
    <path d="M 145.122275 48.301588 
L 148.040725 48.301588 
" clip-path="url(#p6144394aa1)" style="fill: none; stroke: #4c72b0; stroke-width: 2.16; stroke-linecap: round"/>
   </g>
   <g id="line2d_16">
    <path d="M 204.9505 125.888182 
L 204.9505 76.652567 
" clip-path="url(#p6144394aa1)" style="fill: none; stroke: #4c72b0; stroke-width: 2.16; stroke-linecap: round"/>
   </g>
   <g id="line2d_17">
    <path d="M 203.491275 125.888182 
L 206.409725 125.888182 
" clip-path="url(#p6144394aa1)" style="fill: none; stroke: #4c72b0; stroke-width: 2.16; stroke-linecap: round"/>
   </g>
   <g id="line2d_18">
    <path d="M 203.491275 76.652567 
L 206.409725 76.652567 
" clip-path="url(#p6144394aa1)" style="fill: none; stroke: #4c72b0; stroke-width: 2.16; stroke-linecap: round"/>
   </g>
   <g id="line2d_19">
    <path d="M 263.3195 69.61765 
L 263.3195 29.811818 
" clip-path="url(#p6144394aa1)" style="fill: none; stroke: #4c72b0; stroke-width: 2.16; stroke-linecap: round"/>
   </g>
   <g id="line2d_20">
    <path d="M 261.860275 69.61765 
L 264.778725 69.61765 
" clip-path="url(#p6144394aa1)" style="fill: none; stroke: #4c72b0; stroke-width: 2.16; stroke-linecap: round"/>
   </g>
   <g id="line2d_21">
    <path d="M 261.860275 29.811818 
L 264.778725 29.811818 
" clip-path="url(#p6144394aa1)" style="fill: none; stroke: #4c72b0; stroke-width: 2.16; stroke-linecap: round"/>
   </g>
   <g id="line2d_22">
    <path d="M 321.6885 115.657176 
L 321.6885 54.464844 
" clip-path="url(#p6144394aa1)" style="fill: none; stroke: #4c72b0; stroke-width: 2.16; stroke-linecap: round"/>
   </g>
   <g id="line2d_23">
    <path d="M 320.229275 115.657176 
L 323.147725 115.657176 
" clip-path="url(#p6144394aa1)" style="fill: none; stroke: #4c72b0; stroke-width: 2.16; stroke-linecap: round"/>
   </g>
   <g id="line2d_24">
    <path d="M 320.229275 54.464844 
L 323.147725 54.464844 
" clip-path="url(#p6144394aa1)" style="fill: none; stroke: #4c72b0; stroke-width: 2.16; stroke-linecap: round"/>
   </g>
   <g id="line2d_25">
    <path d="M 380.0575 125.052998 
L 380.0575 65.546128 
" clip-path="url(#p6144394aa1)" style="fill: none; stroke: #4c72b0; stroke-width: 2.16; stroke-linecap: round"/>
   </g>
   <g id="line2d_26">
    <path d="M 378.598275 125.052998 
L 381.516725 125.052998 
" clip-path="url(#p6144394aa1)" style="fill: none; stroke: #4c72b0; stroke-width: 2.16; stroke-linecap: round"/>
   </g>
   <g id="line2d_27">
    <path d="M 378.598275 65.546128 
L 381.516725 65.546128 
" clip-path="url(#p6144394aa1)" style="fill: none; stroke: #4c72b0; stroke-width: 2.16; stroke-linecap: round"/>
   </g>
   <g id="patch_3">
    <path d="M 59.028 130.692 
L 59.028 25.008 
" style="fill: none; stroke: #cccccc; stroke-linejoin: miter; stroke-linecap: square"/>
   </g>
   <g id="patch_4">
    <path d="M 409.242 130.692 
L 409.242 25.008 
" style="fill: none; stroke: #cccccc; stroke-linejoin: miter; stroke-linecap: square"/>
   </g>
   <g id="patch_5">
    <path d="M 59.028 130.692 
L 409.242 130.692 
" style="fill: none; stroke: #cccccc; stroke-linejoin: miter; stroke-linecap: square"/>
   </g>
   <g id="patch_6">
    <path d="M 59.028 25.008 
L 409.242 25.008 
" style="fill: none; stroke: #cccccc; stroke-linejoin: miter; stroke-linecap: square"/>
   </g>
   <g id="text_13">
    <!-- Makespan improvement and valid solutions per $\lambda$ for PPA -->
    <g style="fill: #262626" transform="translate(94.023 19.008) scale(0.096 -0.096)">
     <defs>
      <path id="DejaVuSerif-64" d="M 3359 331 
L 3909 331 
L 3909 0 
L 2784 0 
L 2784 519 
Q 2616 206 2355 57 
Q 2094 -91 1709 -91 
Q 1097 -91 708 395 
Q 319 881 319 1663 
Q 319 2444 706 2928 
Q 1094 3413 1709 3413 
Q 2094 3413 2355 3264 
Q 2616 3116 2784 2803 
L 2784 4531 
L 2241 4531 
L 2241 4863 
L 3359 4863 
L 3359 331 
z
M 2784 1497 
L 2784 1825 
Q 2784 2422 2554 2737 
Q 2325 3053 1888 3053 
Q 1444 3053 1217 2703 
Q 991 2353 991 1663 
Q 991 975 1217 622 
Q 1444 269 1888 269 
Q 2325 269 2554 583 
Q 2784 897 2784 1497 
z
" transform="scale(0.015625)"/>
      <path id="DejaVuSerif-6c" d="M 1313 331 
L 1856 331 
L 1856 0 
L 184 0 
L 184 331 
L 738 331 
L 738 4531 
L 184 4531 
L 184 4863 
L 1313 4863 
L 1313 331 
z
" transform="scale(0.015625)"/>
      <path id="DejaVuSerif-75" d="M 2266 3322 
L 3341 3322 
L 3341 331 
L 3884 331 
L 3884 0 
L 2766 0 
L 2766 588 
Q 2606 256 2353 82 
Q 2100 -91 1766 -91 
Q 1213 -91 952 223 
Q 691 538 691 1209 
L 691 2988 
L 172 2988 
L 172 3322 
L 1269 3322 
L 1269 1388 
Q 1269 781 1417 556 
Q 1566 331 1947 331 
Q 2347 331 2556 625 
Q 2766 919 2766 1478 
L 2766 2988 
L 2266 2988 
L 2266 3322 
z
" transform="scale(0.015625)"/>
      <path id="DejaVuSerif-66" d="M 2753 4078 
L 2450 4078 
Q 2447 4313 2317 4434 
Q 2188 4556 1941 4556 
Q 1619 4556 1487 4379 
Q 1356 4203 1356 3750 
L 1356 3322 
L 2284 3322 
L 2284 2988 
L 1356 2988 
L 1356 331 
L 2094 331 
L 2094 0 
L 231 0 
L 231 331 
L 781 331 
L 781 2988 
L 231 2988 
L 231 3322 
L 781 3322 
L 781 3738 
Q 781 4294 1070 4578 
Q 1359 4863 1919 4863 
Q 2128 4863 2337 4825 
Q 2547 4788 2753 4709 
L 2753 4078 
z
" transform="scale(0.015625)"/>
      <path id="DejaVuSerif-50" d="M 1581 2375 
L 2406 2375 
Q 2872 2375 3115 2626 
Q 3359 2878 3359 3353 
Q 3359 3831 3115 4081 
Q 2872 4331 2406 4331 
L 1581 4331 
L 1581 2375 
z
M 353 0 
L 353 331 
L 947 331 
L 947 4331 
L 353 4331 
L 353 4666 
L 2559 4666 
Q 3259 4666 3668 4311 
Q 4078 3956 4078 3353 
Q 4078 2753 3668 2397 
Q 3259 2041 2559 2041 
L 1581 2041 
L 1581 331 
L 2303 331 
L 2303 0 
L 353 0 
z
" transform="scale(0.015625)"/>
      <path id="DejaVuSerif-41" d="M 1281 1691 
L 2994 1691 
L 2138 3909 
L 1281 1691 
z
M -38 0 
L -38 331 
L 372 331 
L 2034 4666 
L 2559 4666 
L 4225 331 
L 4684 331 
L 4684 0 
L 2988 0 
L 2988 331 
L 3506 331 
L 3116 1356 
L 1153 1356 
L 763 331 
L 1275 331 
L 1275 0 
L -38 0 
z
" transform="scale(0.015625)"/>
     </defs>
     <use xlink:href="#DejaVuSerif-4d" transform="translate(0 0.015625)"/>
     <use xlink:href="#DejaVuSerif-61" transform="translate(102.392578 0.015625)"/>
     <use xlink:href="#DejaVuSerif-6b" transform="translate(162.011719 0.015625)"/>
     <use xlink:href="#DejaVuSerif-65" transform="translate(222.607422 0.015625)"/>
     <use xlink:href="#DejaVuSerif-73" transform="translate(281.787109 0.015625)"/>
     <use xlink:href="#DejaVuSerif-70" transform="translate(333.105469 0.015625)"/>
     <use xlink:href="#DejaVuSerif-61" transform="translate(397.119141 0.015625)"/>
     <use xlink:href="#DejaVuSerif-6e" transform="translate(456.738281 0.015625)"/>
     <use xlink:href="#DejaVuSerif-20" transform="translate(521.142578 0.015625)"/>
     <use xlink:href="#DejaVuSerif-69" transform="translate(552.929688 0.015625)"/>
     <use xlink:href="#DejaVuSerif-6d" transform="translate(584.912109 0.015625)"/>
     <use xlink:href="#DejaVuSerif-70" transform="translate(679.736328 0.015625)"/>
     <use xlink:href="#DejaVuSerif-72" transform="translate(743.75 0.015625)"/>
     <use xlink:href="#DejaVuSerif-6f" transform="translate(791.552734 0.015625)"/>
     <use xlink:href="#DejaVuSerif-76" transform="translate(851.757812 0.015625)"/>
     <use xlink:href="#DejaVuSerif-65" transform="translate(908.251953 0.015625)"/>
     <use xlink:href="#DejaVuSerif-6d" transform="translate(967.431641 0.015625)"/>
     <use xlink:href="#DejaVuSerif-65" transform="translate(1062.255859 0.015625)"/>
     <use xlink:href="#DejaVuSerif-6e" transform="translate(1121.435547 0.015625)"/>
     <use xlink:href="#DejaVuSerif-74" transform="translate(1185.839844 0.015625)"/>
     <use xlink:href="#DejaVuSerif-20" transform="translate(1226.025391 0.015625)"/>
     <use xlink:href="#DejaVuSerif-61" transform="translate(1257.8125 0.015625)"/>
     <use xlink:href="#DejaVuSerif-6e" transform="translate(1317.431641 0.015625)"/>
     <use xlink:href="#DejaVuSerif-64" transform="translate(1381.835938 0.015625)"/>
     <use xlink:href="#DejaVuSerif-20" transform="translate(1445.849609 0.015625)"/>
     <use xlink:href="#DejaVuSerif-76" transform="translate(1477.636719 0.015625)"/>
     <use xlink:href="#DejaVuSerif-61" transform="translate(1534.130859 0.015625)"/>
     <use xlink:href="#DejaVuSerif-6c" transform="translate(1593.75 0.015625)"/>
     <use xlink:href="#DejaVuSerif-69" transform="translate(1625.732422 0.015625)"/>
     <use xlink:href="#DejaVuSerif-64" transform="translate(1657.714844 0.015625)"/>
     <use xlink:href="#DejaVuSerif-20" transform="translate(1721.728516 0.015625)"/>
     <use xlink:href="#DejaVuSerif-73" transform="translate(1753.515625 0.015625)"/>
     <use xlink:href="#DejaVuSerif-6f" transform="translate(1804.833984 0.015625)"/>
     <use xlink:href="#DejaVuSerif-6c" transform="translate(1865.039062 0.015625)"/>
     <use xlink:href="#DejaVuSerif-75" transform="translate(1897.021484 0.015625)"/>
     <use xlink:href="#DejaVuSerif-74" transform="translate(1961.425781 0.015625)"/>
     <use xlink:href="#DejaVuSerif-69" transform="translate(2001.611328 0.015625)"/>
     <use xlink:href="#DejaVuSerif-6f" transform="translate(2033.59375 0.015625)"/>
     <use xlink:href="#DejaVuSerif-6e" transform="translate(2093.798828 0.015625)"/>
     <use xlink:href="#DejaVuSerif-73" transform="translate(2158.203125 0.015625)"/>
     <use xlink:href="#DejaVuSerif-20" transform="translate(2209.521484 0.015625)"/>
     <use xlink:href="#DejaVuSerif-70" transform="translate(2241.308594 0.015625)"/>
     <use xlink:href="#DejaVuSerif-65" transform="translate(2305.322266 0.015625)"/>
     <use xlink:href="#DejaVuSerif-72" transform="translate(2364.501953 0.015625)"/>
     <use xlink:href="#DejaVuSerif-20" transform="translate(2412.304688 0.015625)"/>
     <use xlink:href="#DejaVuSans-Oblique-3bb" transform="translate(2444.091797 0.015625)"/>
     <use xlink:href="#DejaVuSerif-20" transform="translate(2503.271484 0.015625)"/>
     <use xlink:href="#DejaVuSerif-66" transform="translate(2535.058594 0.015625)"/>
     <use xlink:href="#DejaVuSerif-6f" transform="translate(2572.070312 0.015625)"/>
     <use xlink:href="#DejaVuSerif-72" transform="translate(2632.275391 0.015625)"/>
     <use xlink:href="#DejaVuSerif-20" transform="translate(2680.078125 0.015625)"/>
     <use xlink:href="#DejaVuSerif-50" transform="translate(2711.865234 0.015625)"/>
     <use xlink:href="#DejaVuSerif-50" transform="translate(2779.150391 0.015625)"/>
     <use xlink:href="#DejaVuSerif-41" transform="translate(2846.435547 0.015625)"/>
    </g>
   </g>
  </g>
  <g id="axes_2">
   <g id="matplotlib.axis_3">
    <g id="ytick_5">
     <g id="line2d_28">
      <defs>
       <path id="md33f2ee6f0" d="M 0 0 
L 4.8 0 
" style="stroke: #262626"/>
      </defs>
      <g>
       <use xlink:href="#md33f2ee6f0" x="409.242" y="104.897208" style="fill: #262626; stroke: #262626"/>
      </g>
     </g>
     <g id="text_14">
      <!-- 50% -->
      <g style="fill: #262626" transform="translate(417.542 108.240521) scale(0.088 -0.088)">
       <use xlink:href="#DejaVuSerif-35"/>
       <use xlink:href="#DejaVuSerif-30" x="63.623047"/>
       <use xlink:href="#DejaVuSerif-25" x="127.246094"/>
      </g>
     </g>
    </g>
    <g id="ytick_6">
     <g id="line2d_29">
      <g>
       <use xlink:href="#md33f2ee6f0" x="409.242" y="76.853267" style="fill: #262626; stroke: #262626"/>
      </g>
     </g>
     <g id="text_15">
      <!-- 60% -->
      <g style="fill: #262626" transform="translate(417.542 80.19658) scale(0.088 -0.088)">
       <defs>
        <path id="DejaVuSerif-36" d="M 2094 219 
Q 2534 219 2771 542 
Q 3009 866 3009 1472 
Q 3009 2078 2771 2401 
Q 2534 2725 2094 2725 
Q 1647 2725 1412 2412 
Q 1178 2100 1178 1509 
Q 1178 888 1415 553 
Q 1653 219 2094 219 
z
M 1075 2569 
Q 1288 2803 1556 2918 
Q 1825 3034 2163 3034 
Q 2859 3034 3264 2615 
Q 3669 2197 3669 1472 
Q 3669 763 3233 336 
Q 2797 -91 2069 -91 
Q 1278 -91 853 498 
Q 428 1088 428 2181 
Q 428 3406 931 4078 
Q 1434 4750 2350 4750 
Q 2597 4750 2869 4703 
Q 3141 4656 3425 4563 
L 3425 3794 
L 3072 3794 
Q 3034 4109 2831 4275 
Q 2628 4441 2284 4441 
Q 1678 4441 1381 3981 
Q 1084 3522 1075 2569 
z
" transform="scale(0.015625)"/>
       </defs>
       <use xlink:href="#DejaVuSerif-36"/>
       <use xlink:href="#DejaVuSerif-30" x="63.623047"/>
       <use xlink:href="#DejaVuSerif-25" x="127.246094"/>
      </g>
     </g>
    </g>
    <g id="ytick_7">
     <g id="line2d_30">
      <g>
       <use xlink:href="#md33f2ee6f0" x="409.242" y="48.809326" style="fill: #262626; stroke: #262626"/>
      </g>
     </g>
     <g id="text_16">
      <!-- 70% -->
      <g style="fill: #262626" transform="translate(417.542 52.152639) scale(0.088 -0.088)">
       <defs>
        <path id="DejaVuSerif-37" d="M 3609 4347 
L 1784 0 
L 1319 0 
L 3059 4153 
L 903 4153 
L 903 3578 
L 538 3578 
L 538 4666 
L 3609 4666 
L 3609 4347 
z
" transform="scale(0.015625)"/>
       </defs>
       <use xlink:href="#DejaVuSerif-37"/>
       <use xlink:href="#DejaVuSerif-30" x="63.623047"/>
       <use xlink:href="#DejaVuSerif-25" x="127.246094"/>
      </g>
     </g>
    </g>
    <g id="text_17">
     <!-- Percentage valid -->
     <g style="fill: #262626" transform="translate(448.395875 118.56675) rotate(-90) scale(0.096 -0.096)">
      <defs>
       <path id="DejaVuSerif-63" d="M 3291 997 
Q 3169 466 2822 187 
Q 2475 -91 1925 -91 
Q 1200 -91 759 389 
Q 319 869 319 1663 
Q 319 2459 759 2936 
Q 1200 3413 1925 3413 
Q 2241 3413 2553 3339 
Q 2866 3266 3181 3116 
L 3181 2266 
L 2847 2266 
Q 2781 2703 2561 2903 
Q 2341 3103 1931 3103 
Q 1466 3103 1228 2742 
Q 991 2381 991 1663 
Q 991 944 1227 581 
Q 1463 219 1931 219 
Q 2303 219 2525 412 
Q 2747 606 2828 997 
L 3291 997 
z
" transform="scale(0.015625)"/>
       <path id="DejaVuSerif-67" d="M 3359 2988 
L 3359 72 
Q 3359 -644 2965 -1033 
Q 2572 -1422 1844 -1422 
Q 1516 -1422 1216 -1362 
Q 916 -1303 641 -1184 
L 641 -488 
L 941 -488 
Q 997 -813 1206 -963 
Q 1416 -1113 1806 -1113 
Q 2313 -1113 2548 -827 
Q 2784 -541 2784 72 
L 2784 519 
Q 2616 206 2355 57 
Q 2094 -91 1709 -91 
Q 1097 -91 708 395 
Q 319 881 319 1663 
Q 319 2444 706 2928 
Q 1094 3413 1709 3413 
Q 2094 3413 2355 3264 
Q 2616 3116 2784 2803 
L 2784 3322 
L 3909 3322 
L 3909 2988 
L 3359 2988 
z
M 2784 1825 
Q 2784 2422 2554 2737 
Q 2325 3053 1888 3053 
Q 1444 3053 1217 2703 
Q 991 2353 991 1663 
Q 991 975 1217 622 
Q 1444 269 1888 269 
Q 2325 269 2554 583 
Q 2784 897 2784 1497 
L 2784 1825 
z
" transform="scale(0.015625)"/>
      </defs>
      <use xlink:href="#DejaVuSerif-50"/>
      <use xlink:href="#DejaVuSerif-65" x="62.785156"/>
      <use xlink:href="#DejaVuSerif-72" x="121.964844"/>
      <use xlink:href="#DejaVuSerif-63" x="169.767578"/>
      <use xlink:href="#DejaVuSerif-65" x="225.773438"/>
      <use xlink:href="#DejaVuSerif-6e" x="284.953125"/>
      <use xlink:href="#DejaVuSerif-74" x="349.357422"/>
      <use xlink:href="#DejaVuSerif-61" x="389.542969"/>
      <use xlink:href="#DejaVuSerif-67" x="449.162109"/>
      <use xlink:href="#DejaVuSerif-65" x="513.175781"/>
      <use xlink:href="#DejaVuSerif-20" x="572.355469"/>
      <use xlink:href="#DejaVuSerif-76" x="604.142578"/>
      <use xlink:href="#DejaVuSerif-61" x="660.636719"/>
      <use xlink:href="#DejaVuSerif-6c" x="720.255859"/>
      <use xlink:href="#DejaVuSerif-69" x="752.238281"/>
      <use xlink:href="#DejaVuSerif-64" x="784.220703"/>
     </g>
    </g>
   </g>
   <g id="PathCollection_2">
    <path d="M 84.151762 51.903032 
L 92.273238 43.781556 
M 84.151762 43.781556 
L 92.273238 51.903032 
" clip-path="url(#p6144394aa1)" style="fill: #dd8452; stroke: #dd8452; stroke-width: 2.43"/>
    <path d="M 142.520762 78.140429 
L 150.642238 70.018953 
M 142.520762 70.018953 
L 150.642238 78.140429 
" clip-path="url(#p6144394aa1)" style="fill: #dd8452; stroke: #dd8452; stroke-width: 2.43"/>
    <path d="M 200.889762 72.140482 
L 209.011238 64.019006 
M 200.889762 64.019006 
L 209.011238 72.140482 
" clip-path="url(#p6144394aa1)" style="fill: #dd8452; stroke: #dd8452; stroke-width: 2.43"/>
    <path d="M 259.258762 53.774708 
L 267.380238 45.653232 
M 259.258762 45.653232 
L 267.380238 53.774708 
" clip-path="url(#p6144394aa1)" style="fill: #dd8452; stroke: #dd8452; stroke-width: 2.43"/>
    <path d="M 317.627762 108.118307 
L 325.749238 99.996831 
M 317.627762 99.996831 
L 325.749238 108.118307 
" clip-path="url(#p6144394aa1)" style="fill: #dd8452; stroke: #dd8452; stroke-width: 2.43"/>
    <path d="M 375.996762 76.348712 
L 384.118238 68.227237 
M 375.996762 68.227237 
L 384.118238 76.348712 
" clip-path="url(#p6144394aa1)" style="fill: #dd8452; stroke: #dd8452; stroke-width: 2.43"/>
   </g>
   <g id="line2d_31">
    <path d="M 88.2125 47.842294 
L 146.5815 74.079691 
L 204.9505 68.079744 
L 263.3195 49.71397 
L 321.6885 104.057569 
L 380.0575 72.287975 
" clip-path="url(#p6144394aa1)" style="fill: none; stroke-dasharray: 3.24,5.346; stroke-dashoffset: 0; stroke: #dd8452; stroke-width: 3.24"/>
   </g>
   <g id="line2d_32">
    <path d="M 88.2125 69.117008 
L 88.2125 30.387358 
" clip-path="url(#p6144394aa1)" style="fill: none; stroke: #dd8452; stroke-width: 2.16; stroke-linecap: round"/>
   </g>
   <g id="line2d_33">
    <path d="M 86.753275 69.117008 
L 89.671725 69.117008 
" clip-path="url(#p6144394aa1)" style="fill: none; stroke: #dd8452; stroke-width: 2.16; stroke-linecap: round"/>
   </g>
   <g id="line2d_34">
    <path d="M 86.753275 30.387358 
L 89.671725 30.387358 
" clip-path="url(#p6144394aa1)" style="fill: none; stroke: #dd8452; stroke-width: 2.16; stroke-linecap: round"/>
   </g>
   <g id="line2d_35">
    <path d="M 146.5815 94.111077 
L 146.5815 55.58918 
" clip-path="url(#p6144394aa1)" style="fill: none; stroke: #dd8452; stroke-width: 2.16; stroke-linecap: round"/>
   </g>
   <g id="line2d_36">
    <path d="M 145.122275 94.111077 
L 148.040725 94.111077 
" clip-path="url(#p6144394aa1)" style="fill: none; stroke: #dd8452; stroke-width: 2.16; stroke-linecap: round"/>
   </g>
   <g id="line2d_37">
    <path d="M 145.122275 55.58918 
L 148.040725 55.58918 
" clip-path="url(#p6144394aa1)" style="fill: none; stroke: #dd8452; stroke-width: 2.16; stroke-linecap: round"/>
   </g>
   <g id="line2d_38">
    <path d="M 204.9505 88.446852 
L 204.9505 47.712636 
" clip-path="url(#p6144394aa1)" style="fill: none; stroke: #dd8452; stroke-width: 2.16; stroke-linecap: round"/>
   </g>
   <g id="line2d_39">
    <path d="M 203.491275 88.446852 
L 206.409725 88.446852 
" clip-path="url(#p6144394aa1)" style="fill: none; stroke: #dd8452; stroke-width: 2.16; stroke-linecap: round"/>
   </g>
   <g id="line2d_40">
    <path d="M 203.491275 47.712636 
L 206.409725 47.712636 
" clip-path="url(#p6144394aa1)" style="fill: none; stroke: #dd8452; stroke-width: 2.16; stroke-linecap: round"/>
   </g>
   <g id="line2d_41">
    <path d="M 263.3195 69.616121 
L 263.3195 29.811818 
" clip-path="url(#p6144394aa1)" style="fill: none; stroke: #dd8452; stroke-width: 2.16; stroke-linecap: round"/>
   </g>
   <g id="line2d_42">
    <path d="M 261.860275 69.616121 
L 264.778725 69.616121 
" clip-path="url(#p6144394aa1)" style="fill: none; stroke: #dd8452; stroke-width: 2.16; stroke-linecap: round"/>
   </g>
   <g id="line2d_43">
    <path d="M 261.860275 29.811818 
L 264.778725 29.811818 
" clip-path="url(#p6144394aa1)" style="fill: none; stroke: #dd8452; stroke-width: 2.16; stroke-linecap: round"/>
   </g>
   <g id="line2d_44">
    <path d="M 321.6885 125.888182 
L 321.6885 80.547679 
" clip-path="url(#p6144394aa1)" style="fill: none; stroke: #dd8452; stroke-width: 2.16; stroke-linecap: round"/>
   </g>
   <g id="line2d_45">
    <path d="M 320.229275 125.888182 
L 323.147725 125.888182 
" clip-path="url(#p6144394aa1)" style="fill: none; stroke: #dd8452; stroke-width: 2.16; stroke-linecap: round"/>
   </g>
   <g id="line2d_46">
    <path d="M 320.229275 80.547679 
L 323.147725 80.547679 
" clip-path="url(#p6144394aa1)" style="fill: none; stroke: #dd8452; stroke-width: 2.16; stroke-linecap: round"/>
   </g>
   <g id="line2d_47">
    <path d="M 380.0575 93.483976 
L 380.0575 49.461511 
" clip-path="url(#p6144394aa1)" style="fill: none; stroke: #dd8452; stroke-width: 2.16; stroke-linecap: round"/>
   </g>
   <g id="line2d_48">
    <path d="M 378.598275 93.483976 
L 381.516725 93.483976 
" clip-path="url(#p6144394aa1)" style="fill: none; stroke: #dd8452; stroke-width: 2.16; stroke-linecap: round"/>
   </g>
   <g id="line2d_49">
    <path d="M 378.598275 49.461511 
L 381.516725 49.461511 
" clip-path="url(#p6144394aa1)" style="fill: none; stroke: #dd8452; stroke-width: 2.16; stroke-linecap: round"/>
   </g>
   <g id="patch_7">
    <path d="M 59.028 130.692 
L 59.028 25.008 
" style="fill: none; stroke: #cccccc; stroke-linejoin: miter; stroke-linecap: square"/>
   </g>
   <g id="patch_8">
    <path d="M 409.242 130.692 
L 409.242 25.008 
" style="fill: none; stroke: #cccccc; stroke-linejoin: miter; stroke-linecap: square"/>
   </g>
   <g id="patch_9">
    <path d="M 59.028 130.692 
L 409.242 130.692 
" style="fill: none; stroke: #cccccc; stroke-linejoin: miter; stroke-linecap: square"/>
   </g>
   <g id="patch_10">
    <path d="M 59.028 25.008 
L 409.242 25.008 
" style="fill: none; stroke: #cccccc; stroke-linejoin: miter; stroke-linecap: square"/>
   </g>
   <g id="legend_1">
    <g id="patch_11">
     <path d="M 65.188 126.292 
L 236.954375 126.292 
Q 238.714375 126.292 238.714375 124.532 
L 238.714375 99.453375 
Q 238.714375 97.693375 236.954375 97.693375 
L 65.188 97.693375 
Q 63.428 97.693375 63.428 99.453375 
L 63.428 124.532 
Q 63.428 126.292 65.188 126.292 
z
" style="fill: #ffffff; opacity: 0.8; stroke: #cccccc; stroke-width: 0.8; stroke-linejoin: miter"/>
    </g>
    <g id="line2d_50">
     <path d="M 66.948 104.82 
L 75.748 104.82 
L 84.548 104.82 
" style="fill: none; stroke-dasharray: 4.44,1.92; stroke-dashoffset: 0; stroke: #4c72b0; stroke-width: 1.2"/>
     <defs>
      <path id="m28e44401be" d="M 0 1.2 
C 0.318244 1.2 0.623496 1.07356 0.848528 0.848528 
C 1.07356 0.623496 1.2 0.318244 1.2 0 
C 1.2 -0.318244 1.07356 -0.623496 0.848528 -0.848528 
C 0.623496 -1.07356 0.318244 -1.2 0 -1.2 
C -0.318244 -1.2 -0.623496 -1.07356 -0.848528 -0.848528 
C -1.07356 -0.623496 -1.2 -0.318244 -1.2 0 
C -1.2 0.318244 -1.07356 0.623496 -0.848528 0.848528 
C -0.623496 1.07356 -0.318244 1.2 0 1.2 
z
" style="stroke: #4c72b0"/>
     </defs>
     <g>
      <use xlink:href="#m28e44401be" x="75.748" y="104.82" style="fill: #4c72b0; stroke: #4c72b0"/>
     </g>
    </g>
    <g id="text_18">
     <!-- Median makespan improvement -->
     <g style="fill: #262626" transform="translate(91.588 107.9) scale(0.088 -0.088)">
      <use xlink:href="#DejaVuSerif-4d"/>
      <use xlink:href="#DejaVuSerif-65" x="102.392578"/>
      <use xlink:href="#DejaVuSerif-64" x="161.572266"/>
      <use xlink:href="#DejaVuSerif-69" x="225.585938"/>
      <use xlink:href="#DejaVuSerif-61" x="257.568359"/>
      <use xlink:href="#DejaVuSerif-6e" x="317.1875"/>
      <use xlink:href="#DejaVuSerif-20" x="381.591797"/>
      <use xlink:href="#DejaVuSerif-6d" x="413.378906"/>
      <use xlink:href="#DejaVuSerif-61" x="508.203125"/>
      <use xlink:href="#DejaVuSerif-6b" x="567.822266"/>
      <use xlink:href="#DejaVuSerif-65" x="628.417969"/>
      <use xlink:href="#DejaVuSerif-73" x="687.597656"/>
      <use xlink:href="#DejaVuSerif-70" x="738.916016"/>
      <use xlink:href="#DejaVuSerif-61" x="802.929688"/>
      <use xlink:href="#DejaVuSerif-6e" x="862.548828"/>
      <use xlink:href="#DejaVuSerif-20" x="926.953125"/>
      <use xlink:href="#DejaVuSerif-69" x="958.740234"/>
      <use xlink:href="#DejaVuSerif-6d" x="990.722656"/>
      <use xlink:href="#DejaVuSerif-70" x="1085.546875"/>
      <use xlink:href="#DejaVuSerif-72" x="1149.560547"/>
      <use xlink:href="#DejaVuSerif-6f" x="1197.363281"/>
      <use xlink:href="#DejaVuSerif-76" x="1257.568359"/>
      <use xlink:href="#DejaVuSerif-65" x="1314.0625"/>
      <use xlink:href="#DejaVuSerif-6d" x="1373.242188"/>
      <use xlink:href="#DejaVuSerif-65" x="1468.066406"/>
      <use xlink:href="#DejaVuSerif-6e" x="1527.246094"/>
      <use xlink:href="#DejaVuSerif-74" x="1591.650391"/>
     </g>
    </g>
    <g id="line2d_51">
     <path d="M 66.948 117.73675 
L 75.748 117.73675 
L 84.548 117.73675 
" style="fill: none; stroke-dasharray: 1.2,1.98; stroke-dashoffset: 0; stroke: #dd8452; stroke-width: 1.2"/>
     <defs>
      <path id="m4969c85578" d="M -2.4 2.4 
L 2.4 -2.4 
M -2.4 -2.4 
L 2.4 2.4 
" style="stroke: #dd8452"/>
     </defs>
     <g>
      <use xlink:href="#m4969c85578" x="75.748" y="117.73675" style="fill: #dd8452; stroke: #dd8452"/>
     </g>
    </g>
    <g id="text_19">
     <!-- Percentage of valid solutions -->
     <g style="fill: #262626" transform="translate(91.588 120.81675) scale(0.088 -0.088)">
      <use xlink:href="#DejaVuSerif-50"/>
      <use xlink:href="#DejaVuSerif-65" x="62.785156"/>
      <use xlink:href="#DejaVuSerif-72" x="121.964844"/>
      <use xlink:href="#DejaVuSerif-63" x="169.767578"/>
      <use xlink:href="#DejaVuSerif-65" x="225.773438"/>
      <use xlink:href="#DejaVuSerif-6e" x="284.953125"/>
      <use xlink:href="#DejaVuSerif-74" x="349.357422"/>
      <use xlink:href="#DejaVuSerif-61" x="389.542969"/>
      <use xlink:href="#DejaVuSerif-67" x="449.162109"/>
      <use xlink:href="#DejaVuSerif-65" x="513.175781"/>
      <use xlink:href="#DejaVuSerif-20" x="572.355469"/>
      <use xlink:href="#DejaVuSerif-6f" x="604.142578"/>
      <use xlink:href="#DejaVuSerif-66" x="664.347656"/>
      <use xlink:href="#DejaVuSerif-20" x="701.359375"/>
      <use xlink:href="#DejaVuSerif-76" x="733.146484"/>
      <use xlink:href="#DejaVuSerif-61" x="789.640625"/>
      <use xlink:href="#DejaVuSerif-6c" x="849.259766"/>
      <use xlink:href="#DejaVuSerif-69" x="881.242188"/>
      <use xlink:href="#DejaVuSerif-64" x="913.224609"/>
      <use xlink:href="#DejaVuSerif-20" x="977.238281"/>
      <use xlink:href="#DejaVuSerif-73" x="1009.025391"/>
      <use xlink:href="#DejaVuSerif-6f" x="1060.34375"/>
      <use xlink:href="#DejaVuSerif-6c" x="1120.548828"/>
      <use xlink:href="#DejaVuSerif-75" x="1152.53125"/>
      <use xlink:href="#DejaVuSerif-74" x="1216.935547"/>
      <use xlink:href="#DejaVuSerif-69" x="1257.121094"/>
      <use xlink:href="#DejaVuSerif-6f" x="1289.103516"/>
      <use xlink:href="#DejaVuSerif-6e" x="1349.308594"/>
      <use xlink:href="#DejaVuSerif-73" x="1413.712891"/>
     </g>
    </g>
   </g>
  </g>
 </g>
 <defs>
  <clipPath id="p6144394aa1">
   <rect x="59.028" y="25.008" width="350.214" height="105.684"/>
  </clipPath>
 </defs>
</svg>
