<?xml version="1.0" encoding="utf-8" standalone="no"?>
<!DOCTYPE svg PUBLIC "-//W3C//DTD SVG 1.1//EN"
  "http://www.w3.org/Graphics/SVG/1.1/DTD/svg11.dtd">
<svg xmlns:xlink="http://www.w3.org/1999/xlink" width="460.8pt" height="172.8pt" viewBox="0 0 460.8 172.8" xmlns="http://www.w3.org/2000/svg" version="1.1">
 <metadata>
  <rdf:RDF xmlns:dc="http://purl.org/dc/elements/1.1/" xmlns:cc="http://creativecommons.org/ns#" xmlns:rdf="http://www.w3.org/1999/02/22-rdf-syntax-ns#">
   <cc:Work>
    <dc:type rdf:resource="http://purl.org/dc/dcmitype/StillImage"/>
    <dc:date>2023-09-24T14:36:19.033121</dc:date>
    <dc:format>image/svg+xml</dc:format>
    <dc:creator>
     <cc:Agent>
      <dc:title>Matplotlib v3.6.3, https://matplotlib.org/</dc:title>
     </cc:Agent>
    </dc:creator>
   </cc:Work>
  </rdf:RDF>
 </metadata>
 <defs>
  <style type="text/css">*{stroke-linejoin: round; stroke-linecap: butt}</style>
 </defs>
 <g id="figure_1">
  <g id="patch_1">
   <path d="M 0 172.8 
L 460.8 172.8 
L 460.8 0 
L 0 0 
z
" style="fill: #ffffff"/>
  </g>
  <g id="axes_1">
   <g id="patch_2">
    <path d="M 58.938 129.9 
L 403.752 129.9 
L 403.752 25.008 
L 58.938 25.008 
z
" style="fill: #ffffff"/>
   </g>
   <g id="matplotlib.axis_1">
    <g id="xtick_1">
     <g id="text_1">
      <!-- (0.0, 0.4] -->
      <g style="fill: #262626" transform="translate(73.194525 144.886625) scale(0.088 -0.088)">
       <defs>
        <path id="DejaVuSerif-28" d="M 2041 -997 
Q 1281 -656 893 83 
Q 506 822 506 1931 
Q 506 3044 893 3783 
Q 1281 4522 2041 4863 
L 2041 4556 
Q 1559 4225 1350 3623 
Q 1141 3022 1141 1931 
Q 1141 844 1350 242 
Q 1559 -359 2041 -691 
L 2041 -997 
z
" transform="scale(0.015625)"/>
        <path id="DejaVuSerif-30" d="M 2034 219 
Q 2513 219 2750 744 
Q 2988 1269 2988 2328 
Q 2988 3391 2750 3916 
Q 2513 4441 2034 4441 
Q 1556 4441 1318 3916 
Q 1081 3391 1081 2328 
Q 1081 1269 1318 744 
Q 1556 219 2034 219 
z
M 2034 -91 
Q 1275 -91 848 546 
Q 422 1184 422 2328 
Q 422 3475 848 4112 
Q 1275 4750 2034 4750 
Q 2797 4750 3222 4112 
Q 3647 3475 3647 2328 
Q 3647 1184 3222 546 
Q 2797 -91 2034 -91 
z
" transform="scale(0.015625)"/>
        <path id="DejaVuSerif-2e" d="M 603 325 
Q 603 500 722 622 
Q 841 744 1019 744 
Q 1191 744 1312 622 
Q 1434 500 1434 325 
Q 1434 153 1312 31 
Q 1191 -91 1019 -91 
Q 841 -91 722 29 
Q 603 150 603 325 
z
" transform="scale(0.015625)"/>
        <path id="DejaVuSerif-2c" d="M 231 -622 
Q 525 -406 662 -114 
Q 800 178 800 594 
L 800 709 
L 1416 709 
Q 1391 175 1164 -208 
Q 938 -591 481 -872 
L 231 -622 
z
" transform="scale(0.015625)"/>
        <path id="DejaVuSerif-20" transform="scale(0.015625)"/>
        <path id="DejaVuSerif-34" d="M 2234 1581 
L 2234 4063 
L 641 1581 
L 2234 1581 
z
M 3609 0 
L 1484 0 
L 1484 331 
L 2234 331 
L 2234 1247 
L 197 1247 
L 197 1588 
L 2241 4750 
L 2859 4750 
L 2859 1581 
L 3750 1581 
L 3750 1247 
L 2859 1247 
L 2859 331 
L 3609 331 
L 3609 0 
z
" transform="scale(0.015625)"/>
        <path id="DejaVuSerif-5d" d="M 1947 4863 
L 1947 -844 
L 494 -844 
L 494 -513 
L 1350 -513 
L 1350 4531 
L 494 4531 
L 494 4863 
L 1947 4863 
z
" transform="scale(0.015625)"/>
       </defs>
       <use xlink:href="#DejaVuSerif-28"/>
       <use xlink:href="#DejaVuSerif-30" x="39.013672"/>
       <use xlink:href="#DejaVuSerif-2e" x="102.636719"/>
       <use xlink:href="#DejaVuSerif-30" x="134.423828"/>
       <use xlink:href="#DejaVuSerif-2c" x="198.046875"/>
       <use xlink:href="#DejaVuSerif-20" x="229.833984"/>
       <use xlink:href="#DejaVuSerif-30" x="261.621094"/>
       <use xlink:href="#DejaVuSerif-2e" x="325.244141"/>
       <use xlink:href="#DejaVuSerif-34" x="357.03125"/>
       <use xlink:href="#DejaVuSerif-5d" x="420.654297"/>
      </g>
     </g>
    </g>
    <g id="xtick_2">
     <g id="text_2">
      <!-- (0.4, 0.8] -->
      <g style="fill: #262626" transform="translate(142.157325 144.886625) scale(0.088 -0.088)">
       <defs>
        <path id="DejaVuSerif-38" d="M 2981 1275 
Q 2981 1775 2732 2051 
Q 2484 2328 2034 2328 
Q 1584 2328 1336 2051 
Q 1088 1775 1088 1275 
Q 1088 772 1336 495 
Q 1584 219 2034 219 
Q 2484 219 2732 495 
Q 2981 772 2981 1275 
z
M 2853 3541 
Q 2853 3966 2637 4203 
Q 2422 4441 2034 4441 
Q 1650 4441 1433 4203 
Q 1216 3966 1216 3541 
Q 1216 3113 1433 2875 
Q 1650 2638 2034 2638 
Q 2422 2638 2637 2875 
Q 2853 3113 2853 3541 
z
M 2516 2484 
Q 3047 2413 3344 2092 
Q 3641 1772 3641 1275 
Q 3641 619 3225 264 
Q 2809 -91 2034 -91 
Q 1263 -91 845 264 
Q 428 619 428 1275 
Q 428 1772 725 2092 
Q 1022 2413 1556 2484 
Q 1084 2569 832 2842 
Q 581 3116 581 3541 
Q 581 4103 968 4426 
Q 1356 4750 2034 4750 
Q 2713 4750 3100 4426 
Q 3488 4103 3488 3541 
Q 3488 3116 3236 2842 
Q 2984 2569 2516 2484 
z
" transform="scale(0.015625)"/>
       </defs>
       <use xlink:href="#DejaVuSerif-28"/>
       <use xlink:href="#DejaVuSerif-30" x="39.013672"/>
       <use xlink:href="#DejaVuSerif-2e" x="102.636719"/>
       <use xlink:href="#DejaVuSerif-34" x="134.423828"/>
       <use xlink:href="#DejaVuSerif-2c" x="198.046875"/>
       <use xlink:href="#DejaVuSerif-20" x="229.833984"/>
       <use xlink:href="#DejaVuSerif-30" x="261.621094"/>
       <use xlink:href="#DejaVuSerif-2e" x="325.244141"/>
       <use xlink:href="#DejaVuSerif-38" x="357.03125"/>
       <use xlink:href="#DejaVuSerif-5d" x="420.654297"/>
      </g>
     </g>
    </g>
    <g id="xtick_3">
     <g id="text_3">
      <!-- (0.8, 1.2] -->
      <g style="fill: #262626" transform="translate(211.120125 144.886625) scale(0.088 -0.088)">
       <defs>
        <path id="DejaVuSerif-31" d="M 909 0 
L 909 331 
L 1722 331 
L 1722 4213 
L 781 3603 
L 781 4013 
L 1919 4750 
L 2350 4750 
L 2350 331 
L 3163 331 
L 3163 0 
L 909 0 
z
" transform="scale(0.015625)"/>
        <path id="DejaVuSerif-32" d="M 819 3553 
L 469 3553 
L 469 4384 
Q 803 4563 1142 4656 
Q 1481 4750 1806 4750 
Q 2534 4750 2956 4397 
Q 3378 4044 3378 3438 
Q 3378 2753 2422 1800 
Q 2347 1728 2309 1691 
L 1131 513 
L 3078 513 
L 3078 1088 
L 3444 1088 
L 3444 0 
L 434 0 
L 434 341 
L 1850 1753 
Q 2319 2222 2519 2614 
Q 2719 3006 2719 3438 
Q 2719 3909 2473 4175 
Q 2228 4441 1797 4441 
Q 1350 4441 1106 4219 
Q 863 3997 819 3553 
z
" transform="scale(0.015625)"/>
       </defs>
       <use xlink:href="#DejaVuSerif-28"/>
       <use xlink:href="#DejaVuSerif-30" x="39.013672"/>
       <use xlink:href="#DejaVuSerif-2e" x="102.636719"/>
       <use xlink:href="#DejaVuSerif-38" x="134.423828"/>
       <use xlink:href="#DejaVuSerif-2c" x="198.046875"/>
       <use xlink:href="#DejaVuSerif-20" x="229.833984"/>
       <use xlink:href="#DejaVuSerif-31" x="261.621094"/>
       <use xlink:href="#DejaVuSerif-2e" x="325.244141"/>
       <use xlink:href="#DejaVuSerif-32" x="357.03125"/>
       <use xlink:href="#DejaVuSerif-5d" x="420.654297"/>
      </g>
     </g>
    </g>
    <g id="xtick_4">
     <g id="text_4">
      <!-- (1.2, 1.6] -->
      <g style="fill: #262626" transform="translate(280.082925 144.886625) scale(0.088 -0.088)">
       <defs>
        <path id="DejaVuSerif-36" d="M 2094 219 
Q 2534 219 2771 542 
Q 3009 866 3009 1472 
Q 3009 2078 2771 2401 
Q 2534 2725 2094 2725 
Q 1647 2725 1412 2412 
Q 1178 2100 1178 1509 
Q 1178 888 1415 553 
Q 1653 219 2094 219 
z
M 1075 2569 
Q 1288 2803 1556 2918 
Q 1825 3034 2163 3034 
Q 2859 3034 3264 2615 
Q 3669 2197 3669 1472 
Q 3669 763 3233 336 
Q 2797 -91 2069 -91 
Q 1278 -91 853 498 
Q 428 1088 428 2181 
Q 428 3406 931 4078 
Q 1434 4750 2350 4750 
Q 2597 4750 2869 4703 
Q 3141 4656 3425 4563 
L 3425 3794 
L 3072 3794 
Q 3034 4109 2831 4275 
Q 2628 4441 2284 4441 
Q 1678 4441 1381 3981 
Q 1084 3522 1075 2569 
z
" transform="scale(0.015625)"/>
       </defs>
       <use xlink:href="#DejaVuSerif-28"/>
       <use xlink:href="#DejaVuSerif-31" x="39.013672"/>
       <use xlink:href="#DejaVuSerif-2e" x="102.636719"/>
       <use xlink:href="#DejaVuSerif-32" x="134.423828"/>
       <use xlink:href="#DejaVuSerif-2c" x="198.046875"/>
       <use xlink:href="#DejaVuSerif-20" x="229.833984"/>
       <use xlink:href="#DejaVuSerif-31" x="261.621094"/>
       <use xlink:href="#DejaVuSerif-2e" x="325.244141"/>
       <use xlink:href="#DejaVuSerif-36" x="357.03125"/>
       <use xlink:href="#DejaVuSerif-5d" x="420.654297"/>
      </g>
     </g>
    </g>
    <g id="xtick_5">
     <g id="text_5">
      <!-- (1.6, 2.0] -->
      <g style="fill: #262626" transform="translate(349.045725 144.886625) scale(0.088 -0.088)">
       <use xlink:href="#DejaVuSerif-28"/>
       <use xlink:href="#DejaVuSerif-31" x="39.013672"/>
       <use xlink:href="#DejaVuSerif-2e" x="102.636719"/>
       <use xlink:href="#DejaVuSerif-36" x="134.423828"/>
       <use xlink:href="#DejaVuSerif-2c" x="198.046875"/>
       <use xlink:href="#DejaVuSerif-20" x="229.833984"/>
       <use xlink:href="#DejaVuSerif-32" x="261.621094"/>
       <use xlink:href="#DejaVuSerif-2e" x="325.244141"/>
       <use xlink:href="#DejaVuSerif-30" x="357.03125"/>
       <use xlink:href="#DejaVuSerif-5d" x="420.654297"/>
      </g>
     </g>
    </g>
    <g id="text_6">
     <!-- $S_{\max}$ -->
     <g style="fill: #262626" transform="translate(220.833 158.01125) scale(0.096 -0.096)">
      <defs>
       <path id="DejaVuSans-Oblique-53" d="M 3859 4513 
L 3738 3897 
Q 3422 4066 3111 4152 
Q 2800 4238 2509 4238 
Q 1944 4238 1609 3991 
Q 1275 3744 1275 3334 
Q 1275 3109 1398 2989 
Q 1522 2869 2034 2731 
L 2413 2638 
Q 3053 2472 3303 2217 
Q 3553 1963 3553 1503 
Q 3553 797 2998 353 
Q 2444 -91 1538 -91 
Q 1166 -91 791 -17 
Q 416 56 38 206 
L 166 856 
Q 513 641 861 531 
Q 1209 422 1556 422 
Q 2147 422 2503 684 
Q 2859 947 2859 1369 
Q 2859 1650 2717 1795 
Q 2575 1941 2106 2059 
L 1728 2156 
Q 1081 2325 845 2545 
Q 609 2766 609 3163 
Q 609 3859 1145 4304 
Q 1681 4750 2541 4750 
Q 2875 4750 3203 4690 
Q 3531 4631 3859 4513 
z
" transform="scale(0.015625)"/>
       <path id="DejaVuSans-6d" d="M 3328 2828 
Q 3544 3216 3844 3400 
Q 4144 3584 4550 3584 
Q 5097 3584 5394 3201 
Q 5691 2819 5691 2113 
L 5691 0 
L 5113 0 
L 5113 2094 
Q 5113 2597 4934 2840 
Q 4756 3084 4391 3084 
Q 3944 3084 3684 2787 
Q 3425 2491 3425 1978 
L 3425 0 
L 2847 0 
L 2847 2094 
Q 2847 2600 2669 2842 
Q 2491 3084 2119 3084 
Q 1678 3084 1418 2786 
Q 1159 2488 1159 1978 
L 1159 0 
L 581 0 
L 581 3500 
L 1159 3500 
L 1159 2956 
Q 1356 3278 1631 3431 
Q 1906 3584 2284 3584 
Q 2666 3584 2933 3390 
Q 3200 3197 3328 2828 
z
" transform="scale(0.015625)"/>
       <path id="DejaVuSans-61" d="M 2194 1759 
Q 1497 1759 1228 1600 
Q 959 1441 959 1056 
Q 959 750 1161 570 
Q 1363 391 1709 391 
Q 2188 391 2477 730 
Q 2766 1069 2766 1631 
L 2766 1759 
L 2194 1759 
z
M 3341 1997 
L 3341 0 
L 2766 0 
L 2766 531 
Q 2569 213 2275 61 
Q 1981 -91 1556 -91 
Q 1019 -91 701 211 
Q 384 513 384 1019 
Q 384 1609 779 1909 
Q 1175 2209 1959 2209 
L 2766 2209 
L 2766 2266 
Q 2766 2663 2505 2880 
Q 2244 3097 1772 3097 
Q 1472 3097 1187 3025 
Q 903 2953 641 2809 
L 641 3341 
Q 956 3463 1253 3523 
Q 1550 3584 1831 3584 
Q 2591 3584 2966 3190 
Q 3341 2797 3341 1997 
z
" transform="scale(0.015625)"/>
       <path id="DejaVuSans-78" d="M 3513 3500 
L 2247 1797 
L 3578 0 
L 2900 0 
L 1881 1375 
L 863 0 
L 184 0 
L 1544 1831 
L 300 3500 
L 978 3500 
L 1906 2253 
L 2834 3500 
L 3513 3500 
z
" transform="scale(0.015625)"/>
      </defs>
      <use xlink:href="#DejaVuSans-Oblique-53" transform="translate(0 0.78125)"/>
      <use xlink:href="#DejaVuSans-6d" transform="translate(63.476562 -15.625) scale(0.7)"/>
      <use xlink:href="#DejaVuSans-61" transform="translate(131.665039 -15.625) scale(0.7)"/>
      <use xlink:href="#DejaVuSans-78" transform="translate(174.560547 -15.625) scale(0.7)"/>
     </g>
    </g>
   </g>
   <g id="matplotlib.axis_2">
    <g id="ytick_1">
     <g id="line2d_1">
      <path d="M 58.938 122.627649 
L 403.752 122.627649 
" clip-path="url(#p4981360a1a)" style="fill: none; stroke: #cccccc; stroke-width: 0.8; stroke-linecap: round"/>
     </g>
     <g id="line2d_2">
      <defs>
       <path id="mc9c8601960" d="M 0 0 
L -4.8 0 
" style="stroke: #262626"/>
      </defs>
      <g>
       <use xlink:href="#mc9c8601960" x="58.938" y="122.627649" style="fill: #262626; stroke: #262626"/>
      </g>
     </g>
     <g id="text_7">
      <!-- −60% -->
      <g style="fill: #262626" transform="translate(23.7045 125.970962) scale(0.088 -0.088)">
       <defs>
        <path id="DejaVuSerif-2212" d="M 678 2259 
L 4684 2259 
L 4684 1753 
L 678 1753 
L 678 2259 
z
" transform="scale(0.015625)"/>
        <path id="DejaVuSerif-25" d="M 1434 4459 
Q 1159 4459 1004 4200 
Q 850 3941 850 3475 
Q 850 3016 1008 2753 
Q 1166 2491 1434 2491 
Q 1700 2491 1854 2752 
Q 2009 3013 2009 3475 
Q 2009 3938 1854 4198 
Q 1700 4459 1434 4459 
z
M 4653 2169 
Q 4381 2169 4226 1906 
Q 4072 1644 4072 1178 
Q 4072 719 4228 458 
Q 4384 197 4653 197 
Q 4922 197 5075 458 
Q 5228 719 5228 1178 
Q 5228 1641 5073 1905 
Q 4919 2169 4653 2169 
z
M 4653 2450 
Q 5147 2450 5437 2106 
Q 5728 1763 5728 1178 
Q 5728 594 5436 251 
Q 5144 -91 4653 -91 
Q 4153 -91 3862 251 
Q 3572 594 3572 1178 
Q 3572 1766 3864 2108 
Q 4156 2450 4653 2450 
z
M 4263 4750 
L 4738 4750 
L 1819 -91 
L 1344 -91 
L 4263 4750 
z
M 1428 4750 
Q 1922 4750 2215 4408 
Q 2509 4066 2509 3481 
Q 2509 2891 2217 2550 
Q 1925 2209 1428 2209 
Q 931 2209 642 2551 
Q 353 2894 353 3481 
Q 353 4063 643 4406 
Q 934 4750 1428 4750 
z
" transform="scale(0.015625)"/>
       </defs>
       <use xlink:href="#DejaVuSerif-2212"/>
       <use xlink:href="#DejaVuSerif-36" x="83.789062"/>
       <use xlink:href="#DejaVuSerif-30" x="147.412109"/>
       <use xlink:href="#DejaVuSerif-25" x="211.035156"/>
      </g>
     </g>
    </g>
    <g id="ytick_2">
     <g id="line2d_3">
      <path d="M 58.938 99.204295 
L 403.752 99.204295 
" clip-path="url(#p4981360a1a)" style="fill: none; stroke: #cccccc; stroke-width: 0.8; stroke-linecap: round"/>
     </g>
     <g id="line2d_4">
      <g>
       <use xlink:href="#mc9c8601960" x="58.938" y="99.204295" style="fill: #262626; stroke: #262626"/>
      </g>
     </g>
     <g id="text_8">
      <!-- −40% -->
      <g style="fill: #262626" transform="translate(23.7045 102.547607) scale(0.088 -0.088)">
       <use xlink:href="#DejaVuSerif-2212"/>
       <use xlink:href="#DejaVuSerif-34" x="83.789062"/>
       <use xlink:href="#DejaVuSerif-30" x="147.412109"/>
       <use xlink:href="#DejaVuSerif-25" x="211.035156"/>
      </g>
     </g>
    </g>
    <g id="ytick_3">
     <g id="line2d_5">
      <path d="M 58.938 75.78094 
L 403.752 75.78094 
" clip-path="url(#p4981360a1a)" style="fill: none; stroke: #cccccc; stroke-width: 0.8; stroke-linecap: round"/>
     </g>
     <g id="line2d_6">
      <g>
       <use xlink:href="#mc9c8601960" x="58.938" y="75.78094" style="fill: #262626; stroke: #262626"/>
      </g>
     </g>
     <g id="text_9">
      <!-- −20% -->
      <g style="fill: #262626" transform="translate(23.7045 79.124252) scale(0.088 -0.088)">
       <use xlink:href="#DejaVuSerif-2212"/>
       <use xlink:href="#DejaVuSerif-32" x="83.789062"/>
       <use xlink:href="#DejaVuSerif-30" x="147.412109"/>
       <use xlink:href="#DejaVuSerif-25" x="211.035156"/>
      </g>
     </g>
    </g>
    <g id="ytick_4">
     <g id="line2d_7">
      <path d="M 58.938 52.357585 
L 403.752 52.357585 
" clip-path="url(#p4981360a1a)" style="fill: none; stroke: #cccccc; stroke-width: 0.8; stroke-linecap: round"/>
     </g>
     <g id="line2d_8">
      <g>
       <use xlink:href="#mc9c8601960" x="58.938" y="52.357585" style="fill: #262626; stroke: #262626"/>
      </g>
     </g>
     <g id="text_10">
      <!-- 0% -->
      <g style="fill: #262626" transform="translate(36.677625 55.700898) scale(0.088 -0.088)">
       <use xlink:href="#DejaVuSerif-30"/>
       <use xlink:href="#DejaVuSerif-25" x="63.623047"/>
      </g>
     </g>
    </g>
    <g id="ytick_5">
     <g id="line2d_9">
      <path d="M 58.938 28.93423 
L 403.752 28.93423 
" clip-path="url(#p4981360a1a)" style="fill: none; stroke: #cccccc; stroke-width: 0.8; stroke-linecap: round"/>
     </g>
     <g id="line2d_10">
      <g>
       <use xlink:href="#mc9c8601960" x="58.938" y="28.93423" style="fill: #262626; stroke: #262626"/>
      </g>
     </g>
     <g id="text_11">
      <!-- 20% -->
      <g style="fill: #262626" transform="translate(31.078625 32.277543) scale(0.088 -0.088)">
       <use xlink:href="#DejaVuSerif-32"/>
       <use xlink:href="#DejaVuSerif-30" x="63.623047"/>
       <use xlink:href="#DejaVuSerif-25" x="127.246094"/>
      </g>
     </g>
    </g>
    <g id="text_12">
     <!-- Makespan improvement -->
     <g style="fill: #262626" transform="translate(17.708 136.305) rotate(-90) scale(0.096 -0.096)">
      <defs>
       <path id="DejaVuSerif-4d" d="M 353 0 
L 353 331 
L 947 331 
L 947 4331 
L 319 4331 
L 319 4666 
L 1678 4666 
L 3316 1344 
L 4953 4666 
L 6228 4666 
L 6228 4331 
L 5606 4331 
L 5606 331 
L 6203 331 
L 6203 0 
L 4378 0 
L 4378 331 
L 4972 331 
L 4972 3938 
L 3372 684 
L 2931 684 
L 1331 3938 
L 1331 331 
L 1925 331 
L 1925 0 
L 353 0 
z
" transform="scale(0.015625)"/>
       <path id="DejaVuSerif-61" d="M 2547 1044 
L 2547 1747 
L 1806 1747 
Q 1378 1747 1168 1562 
Q 959 1378 959 997 
Q 959 650 1171 447 
Q 1384 244 1747 244 
Q 2106 244 2326 466 
Q 2547 688 2547 1044 
z
M 3122 2075 
L 3122 331 
L 3634 331 
L 3634 0 
L 2547 0 
L 2547 359 
Q 2356 128 2106 18 
Q 1856 -91 1522 -91 
Q 969 -91 644 203 
Q 319 497 319 997 
Q 319 1513 691 1797 
Q 1063 2081 1741 2081 
L 2547 2081 
L 2547 2309 
Q 2547 2688 2317 2895 
Q 2088 3103 1672 3103 
Q 1328 3103 1125 2947 
Q 922 2791 872 2484 
L 575 2484 
L 575 3156 
Q 875 3284 1158 3348 
Q 1441 3413 1709 3413 
Q 2400 3413 2761 3070 
Q 3122 2728 3122 2075 
z
" transform="scale(0.015625)"/>
       <path id="DejaVuSerif-6b" d="M 1831 0 
L 219 0 
L 219 331 
L 738 331 
L 738 4531 
L 184 4531 
L 184 4863 
L 1313 4863 
L 1313 1697 
L 2713 2988 
L 2234 2988 
L 2234 3322 
L 3738 3322 
L 3738 2988 
L 3169 2988 
L 2181 2075 
L 3444 331 
L 3922 331 
L 3922 0 
L 2284 0 
L 2284 331 
L 2759 331 
L 1766 1697 
L 1313 1275 
L 1313 331 
L 1831 331 
L 1831 0 
z
" transform="scale(0.015625)"/>
       <path id="DejaVuSerif-65" d="M 3469 1600 
L 991 1600 
L 991 1575 
Q 991 903 1244 561 
Q 1497 219 1991 219 
Q 2369 219 2611 417 
Q 2853 616 2950 1006 
L 3413 1006 
Q 3275 459 2904 184 
Q 2534 -91 1931 -91 
Q 1203 -91 761 389 
Q 319 869 319 1663 
Q 319 2450 753 2931 
Q 1188 3413 1894 3413 
Q 2647 3413 3050 2948 
Q 3453 2484 3469 1600 
z
M 2791 1931 
Q 2772 2513 2545 2808 
Q 2319 3103 1894 3103 
Q 1497 3103 1269 2806 
Q 1041 2509 991 1931 
L 2791 1931 
z
" transform="scale(0.015625)"/>
       <path id="DejaVuSerif-73" d="M 359 184 
L 359 959 
L 691 959 
Q 703 588 923 403 
Q 1144 219 1575 219 
Q 1963 219 2166 364 
Q 2369 509 2369 788 
Q 2369 1006 2220 1140 
Q 2072 1275 1594 1428 
L 1178 1569 
Q 750 1706 558 1912 
Q 366 2119 366 2438 
Q 366 2894 700 3153 
Q 1034 3413 1625 3413 
Q 1888 3413 2178 3344 
Q 2469 3275 2778 3144 
L 2778 2419 
L 2447 2419 
Q 2434 2741 2221 2922 
Q 2009 3103 1644 3103 
Q 1281 3103 1095 2975 
Q 909 2847 909 2591 
Q 909 2381 1050 2254 
Q 1191 2128 1613 1997 
L 2069 1856 
Q 2541 1709 2748 1489 
Q 2956 1269 2956 922 
Q 2956 450 2595 179 
Q 2234 -91 1600 -91 
Q 1278 -91 972 -22 
Q 666 47 359 184 
z
" transform="scale(0.015625)"/>
       <path id="DejaVuSerif-70" d="M 1313 1825 
L 1313 1497 
Q 1313 897 1542 583 
Q 1772 269 2209 269 
Q 2650 269 2876 622 
Q 3103 975 3103 1663 
Q 3103 2353 2876 2703 
Q 2650 3053 2209 3053 
Q 1772 3053 1542 2737 
Q 1313 2422 1313 1825 
z
M 738 2988 
L 184 2988 
L 184 3322 
L 1313 3322 
L 1313 2803 
Q 1481 3116 1742 3264 
Q 2003 3413 2388 3413 
Q 3000 3413 3387 2928 
Q 3775 2444 3775 1663 
Q 3775 881 3387 395 
Q 3000 -91 2388 -91 
Q 2003 -91 1742 57 
Q 1481 206 1313 519 
L 1313 -997 
L 1856 -997 
L 1856 -1331 
L 184 -1331 
L 184 -997 
L 738 -997 
L 738 2988 
z
" transform="scale(0.015625)"/>
       <path id="DejaVuSerif-6e" d="M 263 0 
L 263 331 
L 781 331 
L 781 2988 
L 231 2988 
L 231 3322 
L 1356 3322 
L 1356 2731 
Q 1516 3069 1770 3241 
Q 2025 3413 2363 3413 
Q 2913 3413 3172 3097 
Q 3431 2781 3431 2113 
L 3431 331 
L 3944 331 
L 3944 0 
L 2356 0 
L 2356 331 
L 2853 331 
L 2853 1931 
Q 2853 2541 2703 2767 
Q 2553 2994 2175 2994 
Q 1775 2994 1565 2701 
Q 1356 2409 1356 1850 
L 1356 331 
L 1856 331 
L 1856 0 
L 263 0 
z
" transform="scale(0.015625)"/>
       <path id="DejaVuSerif-69" d="M 622 4353 
Q 622 4497 726 4603 
Q 831 4709 978 4709 
Q 1122 4709 1226 4603 
Q 1331 4497 1331 4353 
Q 1331 4206 1228 4103 
Q 1125 4000 978 4000 
Q 831 4000 726 4103 
Q 622 4206 622 4353 
z
M 1356 331 
L 1900 331 
L 1900 0 
L 231 0 
L 231 331 
L 781 331 
L 781 2988 
L 231 2988 
L 231 3322 
L 1356 3322 
L 1356 331 
z
" transform="scale(0.015625)"/>
       <path id="DejaVuSerif-6d" d="M 3316 2675 
Q 3481 3041 3739 3227 
Q 3997 3413 4341 3413 
Q 4863 3413 5119 3089 
Q 5375 2766 5375 2113 
L 5375 331 
L 5894 331 
L 5894 0 
L 4300 0 
L 4300 331 
L 4800 331 
L 4800 2047 
Q 4800 2556 4650 2772 
Q 4500 2988 4153 2988 
Q 3769 2988 3567 2697 
Q 3366 2406 3366 1850 
L 3366 331 
L 3866 331 
L 3866 0 
L 2291 0 
L 2291 331 
L 2791 331 
L 2791 2069 
Q 2791 2566 2641 2777 
Q 2491 2988 2144 2988 
Q 1759 2988 1557 2697 
Q 1356 2406 1356 1850 
L 1356 331 
L 1856 331 
L 1856 0 
L 263 0 
L 263 331 
L 781 331 
L 781 2994 
L 231 2994 
L 231 3322 
L 1356 3322 
L 1356 2731 
Q 1516 3063 1762 3238 
Q 2009 3413 2322 3413 
Q 2709 3413 2968 3220 
Q 3228 3028 3316 2675 
z
" transform="scale(0.015625)"/>
       <path id="DejaVuSerif-72" d="M 3059 3328 
L 3059 2497 
L 2728 2497 
Q 2713 2744 2591 2866 
Q 2469 2988 2234 2988 
Q 1809 2988 1582 2694 
Q 1356 2400 1356 1850 
L 1356 331 
L 2022 331 
L 2022 0 
L 263 0 
L 263 331 
L 781 331 
L 781 2994 
L 231 2994 
L 231 3322 
L 1356 3322 
L 1356 2731 
Q 1525 3078 1790 3245 
Q 2056 3413 2438 3413 
Q 2578 3413 2733 3391 
Q 2888 3369 3059 3328 
z
" transform="scale(0.015625)"/>
       <path id="DejaVuSerif-6f" d="M 1925 219 
Q 2388 219 2623 584 
Q 2859 950 2859 1663 
Q 2859 2375 2623 2739 
Q 2388 3103 1925 3103 
Q 1463 3103 1227 2739 
Q 991 2375 991 1663 
Q 991 950 1228 584 
Q 1466 219 1925 219 
z
M 1925 -91 
Q 1200 -91 759 389 
Q 319 869 319 1663 
Q 319 2456 758 2934 
Q 1197 3413 1925 3413 
Q 2653 3413 3092 2934 
Q 3531 2456 3531 1663 
Q 3531 869 3092 389 
Q 2653 -91 1925 -91 
z
" transform="scale(0.015625)"/>
       <path id="DejaVuSerif-76" d="M 1581 0 
L 359 2988 
L -19 2988 
L -19 3322 
L 1509 3322 
L 1509 2988 
L 978 2988 
L 1913 703 
L 2847 2988 
L 2350 2988 
L 2350 3322 
L 3597 3322 
L 3597 2988 
L 3225 2988 
L 2003 0 
L 1581 0 
z
" transform="scale(0.015625)"/>
       <path id="DejaVuSerif-74" d="M 691 2988 
L 184 2988 
L 184 3322 
L 691 3322 
L 691 4353 
L 1269 4353 
L 1269 3322 
L 2350 3322 
L 2350 2988 
L 1269 2988 
L 1269 878 
Q 1269 456 1350 337 
Q 1431 219 1650 219 
Q 1875 219 1978 351 
Q 2081 484 2088 781 
L 2522 781 
Q 2497 328 2275 118 
Q 2053 -91 1600 -91 
Q 1103 -91 897 129 
Q 691 350 691 878 
L 691 2988 
z
" transform="scale(0.015625)"/>
      </defs>
      <use xlink:href="#DejaVuSerif-4d"/>
      <use xlink:href="#DejaVuSerif-61" x="102.392578"/>
      <use xlink:href="#DejaVuSerif-6b" x="162.011719"/>
      <use xlink:href="#DejaVuSerif-65" x="222.607422"/>
      <use xlink:href="#DejaVuSerif-73" x="281.787109"/>
      <use xlink:href="#DejaVuSerif-70" x="333.105469"/>
      <use xlink:href="#DejaVuSerif-61" x="397.119141"/>
      <use xlink:href="#DejaVuSerif-6e" x="456.738281"/>
      <use xlink:href="#DejaVuSerif-20" x="521.142578"/>
      <use xlink:href="#DejaVuSerif-69" x="552.929688"/>
      <use xlink:href="#DejaVuSerif-6d" x="584.912109"/>
      <use xlink:href="#DejaVuSerif-70" x="679.736328"/>
      <use xlink:href="#DejaVuSerif-72" x="743.75"/>
      <use xlink:href="#DejaVuSerif-6f" x="791.552734"/>
      <use xlink:href="#DejaVuSerif-76" x="851.757812"/>
      <use xlink:href="#DejaVuSerif-65" x="908.251953"/>
      <use xlink:href="#DejaVuSerif-6d" x="967.431641"/>
      <use xlink:href="#DejaVuSerif-65" x="1062.255859"/>
      <use xlink:href="#DejaVuSerif-6e" x="1121.435547"/>
      <use xlink:href="#DejaVuSerif-74" x="1185.839844"/>
     </g>
    </g>
   </g>
   <g id="PathCollection_1">
    <defs>
     <path id="C0_0_bc1671bf1f" d="M 0 2.030369 
C 0.53846 2.030369 1.054939 1.816436 1.435688 1.435688 
C 1.816436 1.054939 2.030369 0.53846 2.030369 -0 
C 2.030369 -0.53846 1.816436 -1.054939 1.435688 -1.435688 
C 1.054939 -1.816436 0.53846 -2.030369 0 -2.030369 
C -0.53846 -2.030369 -1.054939 -1.816436 -1.435688 -1.435688 
C -1.816436 -1.054939 -2.030369 -0.53846 -2.030369 0 
C -2.030369 0.53846 -1.816436 1.054939 -1.435688 1.435688 
C -1.054939 1.816436 -0.53846 2.030369 0 2.030369 
z
"/>
    </defs>
    <g clip-path="url(#p4981360a1a)">
     <use xlink:href="#C0_0_bc1671bf1f" x="93.4194" y="118.444907" style="fill: #4c72b0; stroke: #4c72b0; stroke-width: 2.43"/>
    </g>
    <g clip-path="url(#p4981360a1a)">
     <use xlink:href="#C0_0_bc1671bf1f" x="162.3822" y="72.434746" style="fill: #4c72b0; stroke: #4c72b0; stroke-width: 2.43"/>
    </g>
    <g clip-path="url(#p4981360a1a)">
     <use xlink:href="#C0_0_bc1671bf1f" x="231.345" y="54.236464" style="fill: #4c72b0; stroke: #4c72b0; stroke-width: 2.43"/>
    </g>
    <g clip-path="url(#p4981360a1a)">
     <use xlink:href="#C0_0_bc1671bf1f" x="300.3078" y="42.327952" style="fill: #4c72b0; stroke: #4c72b0; stroke-width: 2.43"/>
    </g>
    <g clip-path="url(#p4981360a1a)">
     <use xlink:href="#C0_0_bc1671bf1f" x="369.2706" y="36.294944" style="fill: #4c72b0; stroke: #4c72b0; stroke-width: 2.43"/>
    </g>
   </g>
   <g id="line2d_11">
    <path d="M 93.4194 118.444907 
L 162.3822 72.434746 
L 231.345 54.236464 
L 300.3078 42.327952 
L 369.2706 36.294944 
" clip-path="url(#p4981360a1a)" style="fill: none; stroke-dasharray: 11.988,5.184; stroke-dashoffset: 0; stroke: #4c72b0; stroke-width: 3.24"/>
   </g>
   <g id="line2d_12">
    <path d="M 93.4194 125.132182 
L 93.4194 113.146768 
" clip-path="url(#p4981360a1a)" style="fill: none; stroke: #4c72b0; stroke-width: 2.16; stroke-linecap: round"/>
   </g>
   <g id="line2d_13">
    <path d="M 91.69533 125.132182 
L 95.14347 125.132182 
" clip-path="url(#p4981360a1a)" style="fill: none; stroke: #4c72b0; stroke-width: 2.16; stroke-linecap: round"/>
   </g>
   <g id="line2d_14">
    <path d="M 91.69533 113.146768 
L 95.14347 113.146768 
" clip-path="url(#p4981360a1a)" style="fill: none; stroke: #4c72b0; stroke-width: 2.16; stroke-linecap: round"/>
   </g>
   <g id="line2d_15">
    <path d="M 162.3822 76.896338 
L 162.3822 69.278372 
" clip-path="url(#p4981360a1a)" style="fill: none; stroke: #4c72b0; stroke-width: 2.16; stroke-linecap: round"/>
   </g>
   <g id="line2d_16">
    <path d="M 160.65813 76.896338 
L 164.10627 76.896338 
" clip-path="url(#p4981360a1a)" style="fill: none; stroke: #4c72b0; stroke-width: 2.16; stroke-linecap: round"/>
   </g>
   <g id="line2d_17">
    <path d="M 160.65813 69.278372 
L 164.10627 69.278372 
" clip-path="url(#p4981360a1a)" style="fill: none; stroke: #4c72b0; stroke-width: 2.16; stroke-linecap: round"/>
   </g>
   <g id="line2d_18">
    <path d="M 231.345 59.607671 
L 231.345 47.756569 
" clip-path="url(#p4981360a1a)" style="fill: none; stroke: #4c72b0; stroke-width: 2.16; stroke-linecap: round"/>
   </g>
   <g id="line2d_19">
    <path d="M 229.62093 59.607671 
L 233.06907 59.607671 
" clip-path="url(#p4981360a1a)" style="fill: none; stroke: #4c72b0; stroke-width: 2.16; stroke-linecap: round"/>
   </g>
   <g id="line2d_20">
    <path d="M 229.62093 47.756569 
L 233.06907 47.756569 
" clip-path="url(#p4981360a1a)" style="fill: none; stroke: #4c72b0; stroke-width: 2.16; stroke-linecap: round"/>
   </g>
   <g id="line2d_21">
    <path d="M 300.3078 49.011392 
L 300.3078 38.139538 
" clip-path="url(#p4981360a1a)" style="fill: none; stroke: #4c72b0; stroke-width: 2.16; stroke-linecap: round"/>
   </g>
   <g id="line2d_22">
    <path d="M 298.58373 49.011392 
L 302.03187 49.011392 
" clip-path="url(#p4981360a1a)" style="fill: none; stroke: #4c72b0; stroke-width: 2.16; stroke-linecap: round"/>
   </g>
   <g id="line2d_23">
    <path d="M 298.58373 38.139538 
L 302.03187 38.139538 
" clip-path="url(#p4981360a1a)" style="fill: none; stroke: #4c72b0; stroke-width: 2.16; stroke-linecap: round"/>
   </g>
   <g id="line2d_24">
    <path d="M 369.2706 39.832764 
L 369.2706 29.775818 
" clip-path="url(#p4981360a1a)" style="fill: none; stroke: #4c72b0; stroke-width: 2.16; stroke-linecap: round"/>
   </g>
   <g id="line2d_25">
    <path d="M 367.54653 39.832764 
L 370.99467 39.832764 
" clip-path="url(#p4981360a1a)" style="fill: none; stroke: #4c72b0; stroke-width: 2.16; stroke-linecap: round"/>
   </g>
   <g id="line2d_26">
    <path d="M 367.54653 29.775818 
L 370.99467 29.775818 
" clip-path="url(#p4981360a1a)" style="fill: none; stroke: #4c72b0; stroke-width: 2.16; stroke-linecap: round"/>
   </g>
   <g id="patch_3">
    <path d="M 58.938 129.9 
L 58.938 25.008 
" style="fill: none; stroke: #cccccc; stroke-linejoin: miter; stroke-linecap: square"/>
   </g>
   <g id="patch_4">
    <path d="M 403.752 129.9 
L 403.752 25.008 
" style="fill: none; stroke: #cccccc; stroke-linejoin: miter; stroke-linecap: square"/>
   </g>
   <g id="patch_5">
    <path d="M 58.938 129.9 
L 403.752 129.9 
" style="fill: none; stroke: #cccccc; stroke-linejoin: miter; stroke-linecap: square"/>
   </g>
   <g id="patch_6">
    <path d="M 58.938 25.008 
L 403.752 25.008 
" style="fill: none; stroke: #cccccc; stroke-linejoin: miter; stroke-linecap: square"/>
   </g>
   <g id="text_13">
    <!-- Makespan improvement and valid solutions per $S_{\max}$ for PSO -->
    <g style="fill: #262626" transform="translate(83.025 19.008) scale(0.096 -0.096)">
     <defs>
      <path id="DejaVuSerif-64" d="M 3359 331 
L 3909 331 
L 3909 0 
L 2784 0 
L 2784 519 
Q 2616 206 2355 57 
Q 2094 -91 1709 -91 
Q 1097 -91 708 395 
Q 319 881 319 1663 
Q 319 2444 706 2928 
Q 1094 3413 1709 3413 
Q 2094 3413 2355 3264 
Q 2616 3116 2784 2803 
L 2784 4531 
L 2241 4531 
L 2241 4863 
L 3359 4863 
L 3359 331 
z
M 2784 1497 
L 2784 1825 
Q 2784 2422 2554 2737 
Q 2325 3053 1888 3053 
Q 1444 3053 1217 2703 
Q 991 2353 991 1663 
Q 991 975 1217 622 
Q 1444 269 1888 269 
Q 2325 269 2554 583 
Q 2784 897 2784 1497 
z
" transform="scale(0.015625)"/>
      <path id="DejaVuSerif-6c" d="M 1313 331 
L 1856 331 
L 1856 0 
L 184 0 
L 184 331 
L 738 331 
L 738 4531 
L 184 4531 
L 184 4863 
L 1313 4863 
L 1313 331 
z
" transform="scale(0.015625)"/>
      <path id="DejaVuSerif-75" d="M 2266 3322 
L 3341 3322 
L 3341 331 
L 3884 331 
L 3884 0 
L 2766 0 
L 2766 588 
Q 2606 256 2353 82 
Q 2100 -91 1766 -91 
Q 1213 -91 952 223 
Q 691 538 691 1209 
L 691 2988 
L 172 2988 
L 172 3322 
L 1269 3322 
L 1269 1388 
Q 1269 781 1417 556 
Q 1566 331 1947 331 
Q 2347 331 2556 625 
Q 2766 919 2766 1478 
L 2766 2988 
L 2266 2988 
L 2266 3322 
z
" transform="scale(0.015625)"/>
      <path id="DejaVuSerif-66" d="M 2753 4078 
L 2450 4078 
Q 2447 4313 2317 4434 
Q 2188 4556 1941 4556 
Q 1619 4556 1487 4379 
Q 1356 4203 1356 3750 
L 1356 3322 
L 2284 3322 
L 2284 2988 
L 1356 2988 
L 1356 331 
L 2094 331 
L 2094 0 
L 231 0 
L 231 331 
L 781 331 
L 781 2988 
L 231 2988 
L 231 3322 
L 781 3322 
L 781 3738 
Q 781 4294 1070 4578 
Q 1359 4863 1919 4863 
Q 2128 4863 2337 4825 
Q 2547 4788 2753 4709 
L 2753 4078 
z
" transform="scale(0.015625)"/>
      <path id="DejaVuSerif-50" d="M 1581 2375 
L 2406 2375 
Q 2872 2375 3115 2626 
Q 3359 2878 3359 3353 
Q 3359 3831 3115 4081 
Q 2872 4331 2406 4331 
L 1581 4331 
L 1581 2375 
z
M 353 0 
L 353 331 
L 947 331 
L 947 4331 
L 353 4331 
L 353 4666 
L 2559 4666 
Q 3259 4666 3668 4311 
Q 4078 3956 4078 3353 
Q 4078 2753 3668 2397 
Q 3259 2041 2559 2041 
L 1581 2041 
L 1581 331 
L 2303 331 
L 2303 0 
L 353 0 
z
" transform="scale(0.015625)"/>
      <path id="DejaVuSerif-53" d="M 594 225 
L 594 1288 
L 953 1284 
Q 969 753 1261 498 
Q 1553 244 2150 244 
Q 2706 244 2998 464 
Q 3291 684 3291 1106 
Q 3291 1444 3114 1625 
Q 2938 1806 2369 1978 
L 1753 2163 
Q 1084 2366 811 2669 
Q 538 2972 538 3500 
Q 538 4094 959 4422 
Q 1381 4750 2144 4750 
Q 2469 4750 2856 4679 
Q 3244 4609 3681 4475 
L 3681 3481 
L 3328 3481 
Q 3275 3975 2998 4195 
Q 2722 4416 2156 4416 
Q 1663 4416 1405 4214 
Q 1147 4013 1147 3628 
Q 1147 3294 1340 3103 
Q 1534 2913 2163 2725 
L 2741 2553 
Q 3375 2363 3645 2067 
Q 3916 1772 3916 1275 
Q 3916 597 3481 253 
Q 3047 -91 2188 -91 
Q 1803 -91 1404 -12 
Q 1006 66 594 225 
z
" transform="scale(0.015625)"/>
      <path id="DejaVuSerif-4f" d="M 2625 244 
Q 3391 244 3781 770 
Q 4172 1297 4172 2328 
Q 4172 3363 3781 3889 
Q 3391 4416 2625 4416 
Q 1856 4416 1465 3889 
Q 1075 3363 1075 2328 
Q 1075 1297 1465 770 
Q 1856 244 2625 244 
z
M 2625 -91 
Q 2150 -91 1751 65 
Q 1353 222 1050 525 
Q 700 875 529 1319 
Q 359 1763 359 2328 
Q 359 2894 529 3339 
Q 700 3784 1050 4134 
Q 1356 4441 1750 4595 
Q 2144 4750 2625 4750 
Q 3641 4750 4266 4084 
Q 4891 3419 4891 2328 
Q 4891 1769 4719 1320 
Q 4547 872 4197 525 
Q 3891 219 3497 64 
Q 3103 -91 2625 -91 
z
" transform="scale(0.015625)"/>
     </defs>
     <use xlink:href="#DejaVuSerif-4d" transform="translate(0 0.015625)"/>
     <use xlink:href="#DejaVuSerif-61" transform="translate(102.392578 0.015625)"/>
     <use xlink:href="#DejaVuSerif-6b" transform="translate(162.011719 0.015625)"/>
     <use xlink:href="#DejaVuSerif-65" transform="translate(222.607422 0.015625)"/>
     <use xlink:href="#DejaVuSerif-73" transform="translate(281.787109 0.015625)"/>
     <use xlink:href="#DejaVuSerif-70" transform="translate(333.105469 0.015625)"/>
     <use xlink:href="#DejaVuSerif-61" transform="translate(397.119141 0.015625)"/>
     <use xlink:href="#DejaVuSerif-6e" transform="translate(456.738281 0.015625)"/>
     <use xlink:href="#DejaVuSerif-20" transform="translate(521.142578 0.015625)"/>
     <use xlink:href="#DejaVuSerif-69" transform="translate(552.929688 0.015625)"/>
     <use xlink:href="#DejaVuSerif-6d" transform="translate(584.912109 0.015625)"/>
     <use xlink:href="#DejaVuSerif-70" transform="translate(679.736328 0.015625)"/>
     <use xlink:href="#DejaVuSerif-72" transform="translate(743.75 0.015625)"/>
     <use xlink:href="#DejaVuSerif-6f" transform="translate(791.552734 0.015625)"/>
     <use xlink:href="#DejaVuSerif-76" transform="translate(851.757812 0.015625)"/>
     <use xlink:href="#DejaVuSerif-65" transform="translate(908.251953 0.015625)"/>
     <use xlink:href="#DejaVuSerif-6d" transform="translate(967.431641 0.015625)"/>
     <use xlink:href="#DejaVuSerif-65" transform="translate(1062.255859 0.015625)"/>
     <use xlink:href="#DejaVuSerif-6e" transform="translate(1121.435547 0.015625)"/>
     <use xlink:href="#DejaVuSerif-74" transform="translate(1185.839844 0.015625)"/>
     <use xlink:href="#DejaVuSerif-20" transform="translate(1226.025391 0.015625)"/>
     <use xlink:href="#DejaVuSerif-61" transform="translate(1257.8125 0.015625)"/>
     <use xlink:href="#DejaVuSerif-6e" transform="translate(1317.431641 0.015625)"/>
     <use xlink:href="#DejaVuSerif-64" transform="translate(1381.835938 0.015625)"/>
     <use xlink:href="#DejaVuSerif-20" transform="translate(1445.849609 0.015625)"/>
     <use xlink:href="#DejaVuSerif-76" transform="translate(1477.636719 0.015625)"/>
     <use xlink:href="#DejaVuSerif-61" transform="translate(1534.130859 0.015625)"/>
     <use xlink:href="#DejaVuSerif-6c" transform="translate(1593.75 0.015625)"/>
     <use xlink:href="#DejaVuSerif-69" transform="translate(1625.732422 0.015625)"/>
     <use xlink:href="#DejaVuSerif-64" transform="translate(1657.714844 0.015625)"/>
     <use xlink:href="#DejaVuSerif-20" transform="translate(1721.728516 0.015625)"/>
     <use xlink:href="#DejaVuSerif-73" transform="translate(1753.515625 0.015625)"/>
     <use xlink:href="#DejaVuSerif-6f" transform="translate(1804.833984 0.015625)"/>
     <use xlink:href="#DejaVuSerif-6c" transform="translate(1865.039062 0.015625)"/>
     <use xlink:href="#DejaVuSerif-75" transform="translate(1897.021484 0.015625)"/>
     <use xlink:href="#DejaVuSerif-74" transform="translate(1961.425781 0.015625)"/>
     <use xlink:href="#DejaVuSerif-69" transform="translate(2001.611328 0.015625)"/>
     <use xlink:href="#DejaVuSerif-6f" transform="translate(2033.59375 0.015625)"/>
     <use xlink:href="#DejaVuSerif-6e" transform="translate(2093.798828 0.015625)"/>
     <use xlink:href="#DejaVuSerif-73" transform="translate(2158.203125 0.015625)"/>
     <use xlink:href="#DejaVuSerif-20" transform="translate(2209.521484 0.015625)"/>
     <use xlink:href="#DejaVuSerif-70" transform="translate(2241.308594 0.015625)"/>
     <use xlink:href="#DejaVuSerif-65" transform="translate(2305.322266 0.015625)"/>
     <use xlink:href="#DejaVuSerif-72" transform="translate(2364.501953 0.015625)"/>
     <use xlink:href="#DejaVuSerif-20" transform="translate(2412.304688 0.015625)"/>
     <use xlink:href="#DejaVuSans-Oblique-53" transform="translate(2444.091797 0.015625)"/>
     <use xlink:href="#DejaVuSans-6d" transform="translate(2507.568359 -16.390625) scale(0.7)"/>
     <use xlink:href="#DejaVuSans-61" transform="translate(2575.756836 -16.390625) scale(0.7)"/>
     <use xlink:href="#DejaVuSans-78" transform="translate(2618.652344 -16.390625) scale(0.7)"/>
     <use xlink:href="#DejaVuSerif-20" transform="translate(2662.8125 0.015625)"/>
     <use xlink:href="#DejaVuSerif-66" transform="translate(2694.599609 0.015625)"/>
     <use xlink:href="#DejaVuSerif-6f" transform="translate(2731.611328 0.015625)"/>
     <use xlink:href="#DejaVuSerif-72" transform="translate(2791.816406 0.015625)"/>
     <use xlink:href="#DejaVuSerif-20" transform="translate(2839.619141 0.015625)"/>
     <use xlink:href="#DejaVuSerif-50" transform="translate(2871.40625 0.015625)"/>
     <use xlink:href="#DejaVuSerif-53" transform="translate(2938.691406 0.015625)"/>
     <use xlink:href="#DejaVuSerif-4f" transform="translate(3007.197266 0.015625)"/>
    </g>
   </g>
  </g>
  <g id="axes_2">
   <g id="matplotlib.axis_3">
    <g id="ytick_6">
     <g id="line2d_27">
      <defs>
       <path id="mb14669658b" d="M 0 0 
L 4.8 0 
" style="stroke: #262626"/>
      </defs>
      <g>
       <use xlink:href="#mb14669658b" x="403.752" y="118.718077" style="fill: #262626; stroke: #262626"/>
      </g>
     </g>
     <g id="text_14">
      <!-- 80% -->
      <g style="fill: #262626" transform="translate(412.052 122.061389) scale(0.088 -0.088)">
       <use xlink:href="#DejaVuSerif-38"/>
       <use xlink:href="#DejaVuSerif-30" x="63.623047"/>
       <use xlink:href="#DejaVuSerif-25" x="127.246094"/>
      </g>
     </g>
    </g>
    <g id="ytick_7">
     <g id="line2d_28">
      <g>
       <use xlink:href="#mb14669658b" x="403.752" y="96.482512" style="fill: #262626; stroke: #262626"/>
      </g>
     </g>
     <g id="text_15">
      <!-- 85% -->
      <g style="fill: #262626" transform="translate(412.052 99.825825) scale(0.088 -0.088)">
       <defs>
        <path id="DejaVuSerif-35" d="M 3219 4666 
L 3219 4153 
L 1081 4153 
L 1081 2816 
Q 1244 2928 1461 2984 
Q 1678 3041 1947 3041 
Q 2703 3041 3140 2622 
Q 3578 2203 3578 1478 
Q 3578 738 3136 323 
Q 2694 -91 1894 -91 
Q 1572 -91 1234 -12 
Q 897 66 544 225 
L 544 1131 
L 897 1131 
Q 925 688 1179 453 
Q 1434 219 1894 219 
Q 2388 219 2653 544 
Q 2919 869 2919 1478 
Q 2919 2084 2655 2407 
Q 2391 2731 1894 2731 
Q 1613 2731 1398 2631 
Q 1184 2531 1019 2322 
L 750 2322 
L 750 4666 
L 3219 4666 
z
" transform="scale(0.015625)"/>
       </defs>
       <use xlink:href="#DejaVuSerif-38"/>
       <use xlink:href="#DejaVuSerif-35" x="63.623047"/>
       <use xlink:href="#DejaVuSerif-25" x="127.246094"/>
      </g>
     </g>
    </g>
    <g id="ytick_8">
     <g id="line2d_29">
      <g>
       <use xlink:href="#mb14669658b" x="403.752" y="74.246947" style="fill: #262626; stroke: #262626"/>
      </g>
     </g>
     <g id="text_16">
      <!-- 90% -->
      <g style="fill: #262626" transform="translate(412.052 77.59026) scale(0.088 -0.088)">
       <defs>
        <path id="DejaVuSerif-39" d="M 2994 2091 
Q 2784 1856 2512 1740 
Q 2241 1625 1900 1625 
Q 1206 1625 804 2044 
Q 403 2463 403 3188 
Q 403 3897 839 4323 
Q 1275 4750 2003 4750 
Q 2794 4750 3217 4161 
Q 3641 3572 3641 2478 
Q 3641 1253 3137 581 
Q 2634 -91 1722 -91 
Q 1475 -91 1203 -44 
Q 931 3 647 97 
L 647 872 
L 997 872 
Q 1038 556 1241 387 
Q 1444 219 1784 219 
Q 2391 219 2687 676 
Q 2984 1134 2994 2091 
z
M 1978 4441 
Q 1534 4441 1298 4117 
Q 1063 3794 1063 3188 
Q 1063 2581 1298 2256 
Q 1534 1931 1978 1931 
Q 2422 1931 2658 2245 
Q 2894 2559 2894 3150 
Q 2894 3772 2656 4106 
Q 2419 4441 1978 4441 
z
" transform="scale(0.015625)"/>
       </defs>
       <use xlink:href="#DejaVuSerif-39"/>
       <use xlink:href="#DejaVuSerif-30" x="63.623047"/>
       <use xlink:href="#DejaVuSerif-25" x="127.246094"/>
      </g>
     </g>
    </g>
    <g id="ytick_9">
     <g id="line2d_30">
      <g>
       <use xlink:href="#mb14669658b" x="403.752" y="52.011383" style="fill: #262626; stroke: #262626"/>
      </g>
     </g>
     <g id="text_17">
      <!-- 95% -->
      <g style="fill: #262626" transform="translate(412.052 55.354695) scale(0.088 -0.088)">
       <use xlink:href="#DejaVuSerif-39"/>
       <use xlink:href="#DejaVuSerif-35" x="63.623047"/>
       <use xlink:href="#DejaVuSerif-25" x="127.246094"/>
      </g>
     </g>
    </g>
    <g id="ytick_10">
     <g id="line2d_31">
      <g>
       <use xlink:href="#mb14669658b" x="403.752" y="29.775818" style="fill: #262626; stroke: #262626"/>
      </g>
     </g>
     <g id="text_18">
      <!-- 100% -->
      <g style="fill: #262626" transform="translate(412.052 33.119131) scale(0.088 -0.088)">
       <use xlink:href="#DejaVuSerif-31"/>
       <use xlink:href="#DejaVuSerif-30" x="63.623047"/>
       <use xlink:href="#DejaVuSerif-30" x="127.246094"/>
       <use xlink:href="#DejaVuSerif-25" x="190.869141"/>
      </g>
     </g>
    </g>
    <g id="text_19">
     <!-- Percentage valid -->
     <g style="fill: #262626" transform="translate(448.504875 118.17075) rotate(-90) scale(0.096 -0.096)">
      <defs>
       <path id="DejaVuSerif-63" d="M 3291 997 
Q 3169 466 2822 187 
Q 2475 -91 1925 -91 
Q 1200 -91 759 389 
Q 319 869 319 1663 
Q 319 2459 759 2936 
Q 1200 3413 1925 3413 
Q 2241 3413 2553 3339 
Q 2866 3266 3181 3116 
L 3181 2266 
L 2847 2266 
Q 2781 2703 2561 2903 
Q 2341 3103 1931 3103 
Q 1466 3103 1228 2742 
Q 991 2381 991 1663 
Q 991 944 1227 581 
Q 1463 219 1931 219 
Q 2303 219 2525 412 
Q 2747 606 2828 997 
L 3291 997 
z
" transform="scale(0.015625)"/>
       <path id="DejaVuSerif-67" d="M 3359 2988 
L 3359 72 
Q 3359 -644 2965 -1033 
Q 2572 -1422 1844 -1422 
Q 1516 -1422 1216 -1362 
Q 916 -1303 641 -1184 
L 641 -488 
L 941 -488 
Q 997 -813 1206 -963 
Q 1416 -1113 1806 -1113 
Q 2313 -1113 2548 -827 
Q 2784 -541 2784 72 
L 2784 519 
Q 2616 206 2355 57 
Q 2094 -91 1709 -91 
Q 1097 -91 708 395 
Q 319 881 319 1663 
Q 319 2444 706 2928 
Q 1094 3413 1709 3413 
Q 2094 3413 2355 3264 
Q 2616 3116 2784 2803 
L 2784 3322 
L 3909 3322 
L 3909 2988 
L 3359 2988 
z
M 2784 1825 
Q 2784 2422 2554 2737 
Q 2325 3053 1888 3053 
Q 1444 3053 1217 2703 
Q 991 2353 991 1663 
Q 991 975 1217 622 
Q 1444 269 1888 269 
Q 2325 269 2554 583 
Q 2784 897 2784 1497 
L 2784 1825 
z
" transform="scale(0.015625)"/>
      </defs>
      <use xlink:href="#DejaVuSerif-50"/>
      <use xlink:href="#DejaVuSerif-65" x="62.785156"/>
      <use xlink:href="#DejaVuSerif-72" x="121.964844"/>
      <use xlink:href="#DejaVuSerif-63" x="169.767578"/>
      <use xlink:href="#DejaVuSerif-65" x="225.773438"/>
      <use xlink:href="#DejaVuSerif-6e" x="284.953125"/>
      <use xlink:href="#DejaVuSerif-74" x="349.357422"/>
      <use xlink:href="#DejaVuSerif-61" x="389.542969"/>
      <use xlink:href="#DejaVuSerif-67" x="449.162109"/>
      <use xlink:href="#DejaVuSerif-65" x="513.175781"/>
      <use xlink:href="#DejaVuSerif-20" x="572.355469"/>
      <use xlink:href="#DejaVuSerif-76" x="604.142578"/>
      <use xlink:href="#DejaVuSerif-61" x="660.636719"/>
      <use xlink:href="#DejaVuSerif-6c" x="720.255859"/>
      <use xlink:href="#DejaVuSerif-69" x="752.238281"/>
      <use xlink:href="#DejaVuSerif-64" x="784.220703"/>
     </g>
    </g>
   </g>
   <g id="PathCollection_2">
    <path d="M 89.358662 104.697147 
L 97.480138 96.575671 
M 89.358662 96.575671 
L 97.480138 104.697147 
" clip-path="url(#p4981360a1a)" style="fill: #dd8452; stroke: #dd8452; stroke-width: 2.43"/>
    <path d="M 158.321462 63.182986 
L 166.442938 55.061511 
M 158.321462 55.061511 
L 166.442938 63.182986 
" clip-path="url(#p4981360a1a)" style="fill: #dd8452; stroke: #dd8452; stroke-width: 2.43"/>
    <path d="M 227.284262 55.52979 
L 235.405738 47.408314 
M 227.284262 47.408314 
L 235.405738 55.52979 
" clip-path="url(#p4981360a1a)" style="fill: #dd8452; stroke: #dd8452; stroke-width: 2.43"/>
    <path d="M 296.247062 35.895405 
L 304.368538 27.773929 
M 296.247062 27.773929 
L 304.368538 35.895405 
" clip-path="url(#p4981360a1a)" style="fill: #dd8452; stroke: #dd8452; stroke-width: 2.43"/>
    <path d="M 365.209862 38.283669 
L 373.331338 30.162193 
M 365.209862 30.162193 
L 373.331338 38.283669 
" clip-path="url(#p4981360a1a)" style="fill: #dd8452; stroke: #dd8452; stroke-width: 2.43"/>
   </g>
   <g id="line2d_32">
    <path d="M 93.4194 100.636409 
L 162.3822 59.122249 
L 231.345 51.469052 
L 300.3078 31.834667 
L 369.2706 34.222931 
" clip-path="url(#p4981360a1a)" style="fill: none; stroke-dasharray: 3.24,5.346; stroke-dashoffset: 0; stroke: #dd8452; stroke-width: 3.24"/>
   </g>
   <g id="line2d_33">
    <path d="M 93.4194 125.132182 
L 93.4194 78.645191 
" clip-path="url(#p4981360a1a)" style="fill: none; stroke: #dd8452; stroke-width: 2.16; stroke-linecap: round"/>
   </g>
   <g id="line2d_34">
    <path d="M 91.69533 125.132182 
L 95.14347 125.132182 
" clip-path="url(#p4981360a1a)" style="fill: none; stroke: #dd8452; stroke-width: 2.16; stroke-linecap: round"/>
   </g>
   <g id="line2d_35">
    <path d="M 91.69533 78.645191 
L 95.14347 78.645191 
" clip-path="url(#p4981360a1a)" style="fill: none; stroke: #dd8452; stroke-width: 2.16; stroke-linecap: round"/>
   </g>
   <g id="line2d_36">
    <path d="M 162.3822 74.924173 
L 162.3822 43.320325 
" clip-path="url(#p4981360a1a)" style="fill: none; stroke: #dd8452; stroke-width: 2.16; stroke-linecap: round"/>
   </g>
   <g id="line2d_37">
    <path d="M 160.65813 74.924173 
L 164.10627 74.924173 
" clip-path="url(#p4981360a1a)" style="fill: none; stroke: #dd8452; stroke-width: 2.16; stroke-linecap: round"/>
   </g>
   <g id="line2d_38">
    <path d="M 160.65813 43.320325 
L 164.10627 43.320325 
" clip-path="url(#p4981360a1a)" style="fill: none; stroke: #dd8452; stroke-width: 2.16; stroke-linecap: round"/>
   </g>
   <g id="line2d_39">
    <path d="M 231.345 66.654316 
L 231.345 40.622435 
" clip-path="url(#p4981360a1a)" style="fill: none; stroke: #dd8452; stroke-width: 2.16; stroke-linecap: round"/>
   </g>
   <g id="line2d_40">
    <path d="M 229.62093 66.654316 
L 233.06907 66.654316 
" clip-path="url(#p4981360a1a)" style="fill: none; stroke: #dd8452; stroke-width: 2.16; stroke-linecap: round"/>
   </g>
   <g id="line2d_41">
    <path d="M 229.62093 40.622435 
L 233.06907 40.622435 
" clip-path="url(#p4981360a1a)" style="fill: none; stroke: #dd8452; stroke-width: 2.16; stroke-linecap: round"/>
   </g>
   <g id="line2d_42">
    <path d="M 300.3078 35.952364 
L 300.3078 29.775818 
" clip-path="url(#p4981360a1a)" style="fill: none; stroke: #dd8452; stroke-width: 2.16; stroke-linecap: round"/>
   </g>
   <g id="line2d_43">
    <path d="M 298.58373 35.952364 
L 302.03187 35.952364 
" clip-path="url(#p4981360a1a)" style="fill: none; stroke: #dd8452; stroke-width: 2.16; stroke-linecap: round"/>
   </g>
   <g id="line2d_44">
    <path d="M 298.58373 29.775818 
L 302.03187 29.775818 
" clip-path="url(#p4981360a1a)" style="fill: none; stroke: #dd8452; stroke-width: 2.16; stroke-linecap: round"/>
   </g>
   <g id="line2d_45">
    <path d="M 369.2706 40.8936 
L 369.2706 29.775818 
" clip-path="url(#p4981360a1a)" style="fill: none; stroke: #dd8452; stroke-width: 2.16; stroke-linecap: round"/>
   </g>
   <g id="line2d_46">
    <path d="M 367.54653 40.8936 
L 370.99467 40.8936 
" clip-path="url(#p4981360a1a)" style="fill: none; stroke: #dd8452; stroke-width: 2.16; stroke-linecap: round"/>
   </g>
   <g id="line2d_47">
    <path d="M 367.54653 29.775818 
L 370.99467 29.775818 
" clip-path="url(#p4981360a1a)" style="fill: none; stroke: #dd8452; stroke-width: 2.16; stroke-linecap: round"/>
   </g>
   <g id="patch_7">
    <path d="M 58.938 129.9 
L 58.938 25.008 
" style="fill: none; stroke: #cccccc; stroke-linejoin: miter; stroke-linecap: square"/>
   </g>
   <g id="patch_8">
    <path d="M 403.752 129.9 
L 403.752 25.008 
" style="fill: none; stroke: #cccccc; stroke-linejoin: miter; stroke-linecap: square"/>
   </g>
   <g id="patch_9">
    <path d="M 58.938 129.9 
L 403.752 129.9 
" style="fill: none; stroke: #cccccc; stroke-linejoin: miter; stroke-linecap: square"/>
   </g>
   <g id="patch_10">
    <path d="M 58.938 25.008 
L 403.752 25.008 
" style="fill: none; stroke: #cccccc; stroke-linejoin: miter; stroke-linecap: square"/>
   </g>
   <g id="legend_1">
    <g id="patch_11">
     <path d="M 225.825625 125.5 
L 397.592 125.5 
Q 399.352 125.5 399.352 123.74 
L 399.352 98.661375 
Q 399.352 96.901375 397.592 96.901375 
L 225.825625 96.901375 
Q 224.065625 96.901375 224.065625 98.661375 
L 224.065625 123.74 
Q 224.065625 125.5 225.825625 125.5 
z
" style="fill: #ffffff; opacity: 0.8; stroke: #cccccc; stroke-width: 0.8; stroke-linejoin: miter"/>
    </g>
    <g id="line2d_48">
     <path d="M 227.585625 104.028 
L 236.385625 104.028 
L 245.185625 104.028 
" style="fill: none; stroke-dasharray: 4.44,1.92; stroke-dashoffset: 0; stroke: #4c72b0; stroke-width: 1.2"/>
     <defs>
      <path id="m8e12f4eefc" d="M 0 1.2 
C 0.318244 1.2 0.623496 1.07356 0.848528 0.848528 
C 1.07356 0.623496 1.2 0.318244 1.2 0 
C 1.2 -0.318244 1.07356 -0.623496 0.848528 -0.848528 
C 0.623496 -1.07356 0.318244 -1.2 0 -1.2 
C -0.318244 -1.2 -0.623496 -1.07356 -0.848528 -0.848528 
C -1.07356 -0.623496 -1.2 -0.318244 -1.2 0 
C -1.2 0.318244 -1.07356 0.623496 -0.848528 0.848528 
C -0.623496 1.07356 -0.318244 1.2 0 1.2 
z
" style="stroke: #4c72b0"/>
     </defs>
     <g>
      <use xlink:href="#m8e12f4eefc" x="236.385625" y="104.028" style="fill: #4c72b0; stroke: #4c72b0"/>
     </g>
    </g>
    <g id="text_20">
     <!-- Median makespan improvement -->
     <g style="fill: #262626" transform="translate(252.225625 107.108) scale(0.088 -0.088)">
      <use xlink:href="#DejaVuSerif-4d"/>
      <use xlink:href="#DejaVuSerif-65" x="102.392578"/>
      <use xlink:href="#DejaVuSerif-64" x="161.572266"/>
      <use xlink:href="#DejaVuSerif-69" x="225.585938"/>
      <use xlink:href="#DejaVuSerif-61" x="257.568359"/>
      <use xlink:href="#DejaVuSerif-6e" x="317.1875"/>
      <use xlink:href="#DejaVuSerif-20" x="381.591797"/>
      <use xlink:href="#DejaVuSerif-6d" x="413.378906"/>
      <use xlink:href="#DejaVuSerif-61" x="508.203125"/>
      <use xlink:href="#DejaVuSerif-6b" x="567.822266"/>
      <use xlink:href="#DejaVuSerif-65" x="628.417969"/>
      <use xlink:href="#DejaVuSerif-73" x="687.597656"/>
      <use xlink:href="#DejaVuSerif-70" x="738.916016"/>
      <use xlink:href="#DejaVuSerif-61" x="802.929688"/>
      <use xlink:href="#DejaVuSerif-6e" x="862.548828"/>
      <use xlink:href="#DejaVuSerif-20" x="926.953125"/>
      <use xlink:href="#DejaVuSerif-69" x="958.740234"/>
      <use xlink:href="#DejaVuSerif-6d" x="990.722656"/>
      <use xlink:href="#DejaVuSerif-70" x="1085.546875"/>
      <use xlink:href="#DejaVuSerif-72" x="1149.560547"/>
      <use xlink:href="#DejaVuSerif-6f" x="1197.363281"/>
      <use xlink:href="#DejaVuSerif-76" x="1257.568359"/>
      <use xlink:href="#DejaVuSerif-65" x="1314.0625"/>
      <use xlink:href="#DejaVuSerif-6d" x="1373.242188"/>
      <use xlink:href="#DejaVuSerif-65" x="1468.066406"/>
      <use xlink:href="#DejaVuSerif-6e" x="1527.246094"/>
      <use xlink:href="#DejaVuSerif-74" x="1591.650391"/>
     </g>
    </g>
    <g id="line2d_49">
     <path d="M 227.585625 116.94475 
L 236.385625 116.94475 
L 245.185625 116.94475 
" style="fill: none; stroke-dasharray: 1.2,1.98; stroke-dashoffset: 0; stroke: #dd8452; stroke-width: 1.2"/>
     <defs>
      <path id="m7f10a4c334" d="M -2.4 2.4 
L 2.4 -2.4 
M -2.4 -2.4 
L 2.4 2.4 
" style="stroke: #dd8452"/>
     </defs>
     <g>
      <use xlink:href="#m7f10a4c334" x="236.385625" y="116.94475" style="fill: #dd8452; stroke: #dd8452"/>
     </g>
    </g>
    <g id="text_21">
     <!-- Percentage of valid solutions -->
     <g style="fill: #262626" transform="translate(252.225625 120.02475) scale(0.088 -0.088)">
      <use xlink:href="#DejaVuSerif-50"/>
      <use xlink:href="#DejaVuSerif-65" x="62.785156"/>
      <use xlink:href="#DejaVuSerif-72" x="121.964844"/>
      <use xlink:href="#DejaVuSerif-63" x="169.767578"/>
      <use xlink:href="#DejaVuSerif-65" x="225.773438"/>
      <use xlink:href="#DejaVuSerif-6e" x="284.953125"/>
      <use xlink:href="#DejaVuSerif-74" x="349.357422"/>
      <use xlink:href="#DejaVuSerif-61" x="389.542969"/>
      <use xlink:href="#DejaVuSerif-67" x="449.162109"/>
      <use xlink:href="#DejaVuSerif-65" x="513.175781"/>
      <use xlink:href="#DejaVuSerif-20" x="572.355469"/>
      <use xlink:href="#DejaVuSerif-6f" x="604.142578"/>
      <use xlink:href="#DejaVuSerif-66" x="664.347656"/>
      <use xlink:href="#DejaVuSerif-20" x="701.359375"/>
      <use xlink:href="#DejaVuSerif-76" x="733.146484"/>
      <use xlink:href="#DejaVuSerif-61" x="789.640625"/>
      <use xlink:href="#DejaVuSerif-6c" x="849.259766"/>
      <use xlink:href="#DejaVuSerif-69" x="881.242188"/>
      <use xlink:href="#DejaVuSerif-64" x="913.224609"/>
      <use xlink:href="#DejaVuSerif-20" x="977.238281"/>
      <use xlink:href="#DejaVuSerif-73" x="1009.025391"/>
      <use xlink:href="#DejaVuSerif-6f" x="1060.34375"/>
      <use xlink:href="#DejaVuSerif-6c" x="1120.548828"/>
      <use xlink:href="#DejaVuSerif-75" x="1152.53125"/>
      <use xlink:href="#DejaVuSerif-74" x="1216.935547"/>
      <use xlink:href="#DejaVuSerif-69" x="1257.121094"/>
      <use xlink:href="#DejaVuSerif-6f" x="1289.103516"/>
      <use xlink:href="#DejaVuSerif-6e" x="1349.308594"/>
      <use xlink:href="#DejaVuSerif-73" x="1413.712891"/>
     </g>
    </g>
   </g>
  </g>
 </g>
 <defs>
  <clipPath id="p4981360a1a">
   <rect x="58.938" y="25.008" width="344.814" height="104.892"/>
  </clipPath>
 </defs>
</svg>
